<?xml version="1.0" encoding="utf-8" standalone="no"?>
<!DOCTYPE svg PUBLIC "-//W3C//DTD SVG 1.1//EN"
  "http://www.w3.org/Graphics/SVG/1.1/DTD/svg11.dtd">
<!-- Created with matplotlib (https://matplotlib.org/) -->
<svg height="576pt" version="1.1" viewBox="0 0 864 576" width="864pt" xmlns="http://www.w3.org/2000/svg" xmlns:xlink="http://www.w3.org/1999/xlink">
 <defs>
  <style type="text/css">
*{stroke-linecap:butt;stroke-linejoin:round;}
  </style>
 </defs>
 <g id="figure_1">
  <g id="patch_1">
   <path d="M 0 576 
L 864 576 
L 864 0 
L 0 0 
z
" style="fill:#ffffff;"/>
  </g>
  <g id="axes_1">
   <g id="patch_2">
    <path d="M 43.2 267.974579 
L 846.72 267.974579 
L 846.72 23.04 
L 43.2 23.04 
z
" style="fill:#ffffff;"/>
   </g>
   <g id="PolyCollection_1">
    <defs>
     <path d="M 79.723636 -319.564147 
L 79.723636 -319.564147 
L 89.33512 -319.564147 
L 98.946603 -319.34825 
L 108.558086 -319.491927 
L 118.169569 -320.614504 
L 127.781053 -320.281217 
L 137.392536 -321.066201 
L 147.004019 -321.504227 
L 156.615502 -322.014288 
L 166.226986 -323.920781 
L 175.838469 -323.651885 
L 185.449952 -324.129723 
L 195.061435 -325.007644 
L 204.672919 -326.37705 
L 214.284402 -328.346383 
L 223.895885 -330.595866 
L 233.507368 -333.852363 
L 243.118852 -338.336357 
L 252.730335 -343.886377 
L 262.341818 -350.8066 
L 271.953301 -359.081491 
L 281.564785 -368.874939 
L 291.176268 -380.103093 
L 300.787751 -392.954983 
L 310.399234 -407.120101 
L 320.010718 -421.811919 
L 329.622201 -437.28537 
L 339.233684 -452.474353 
L 348.845167 -466.15307 
L 358.456651 -479.216832 
L 368.068134 -488.114932 
L 377.679617 -494.708615 
L 387.2911 -494.006993 
L 396.902584 -494.00211 
L 406.514067 -486.342152 
L 416.12555 -479.040067 
L 425.737033 -477.7437 
L 435.348517 -466.823361 
L 444.96 -461.963631 
L 454.571483 -454.221222 
L 464.182967 -450.807723 
L 473.79445 -444.069229 
L 483.405933 -437.014264 
L 493.017416 -438.187061 
L 502.6289 -432.118349 
L 512.240383 -429.92194 
L 521.851866 -426.164231 
L 531.463349 -421.232213 
L 541.074833 -413.024616 
L 550.686316 -407.002478 
L 560.297799 -405.70878 
L 569.909282 -400.272628 
L 579.520766 -394.957793 
L 589.132249 -388.720816 
L 598.743732 -382.373864 
L 608.355215 -376.864786 
L 617.966699 -373.698576 
L 627.578182 -370.683181 
L 637.189665 -367.844661 
L 646.801148 -364.163422 
L 656.412632 -360.820386 
L 666.024115 -357.813043 
L 675.635598 -354.471405 
L 685.247081 -351.996747 
L 694.858565 -350.250513 
L 704.470048 -347.445281 
L 714.081531 -345.410734 
L 723.693014 -343.439128 
L 733.304498 -341.325975 
L 742.915981 -339.632068 
L 752.527464 -337.921074 
L 762.138947 -336.965511 
L 771.750431 -336.119919 
L 781.361914 -334.927708 
L 790.973397 -333.581659 
L 800.58488 -332.402334 
L 800.58488 -344.241197 
L 800.58488 -344.241197 
L 790.973397 -344.743234 
L 781.361914 -344.922236 
L 771.750431 -345.590769 
L 762.138947 -345.521039 
L 752.527464 -345.988176 
L 742.915981 -346.588086 
L 733.304498 -348.082021 
L 723.693014 -349.589186 
L 714.081531 -351.842381 
L 704.470048 -353.932528 
L 694.858565 -356.441584 
L 685.247081 -358.849167 
L 675.635598 -361.669242 
L 666.024115 -365.104884 
L 656.412632 -368.438793 
L 646.801148 -372.367357 
L 637.189665 -376.483268 
L 627.578182 -379.952653 
L 617.966699 -384.149286 
L 608.355215 -388.394021 
L 598.743732 -393.854616 
L 589.132249 -400.520573 
L 579.520766 -406.636264 
L 569.909282 -413.90697 
L 560.297799 -420.439307 
L 550.686316 -421.582062 
L 541.074833 -427.844895 
L 531.463349 -435.182778 
L 521.851866 -440.322012 
L 512.240383 -446.035878 
L 502.6289 -449.42176 
L 493.017416 -457.818175 
L 483.405933 -459.489181 
L 473.79445 -463.61624 
L 464.182967 -469.988623 
L 454.571483 -475.967339 
L 444.96 -483.445536 
L 435.348517 -491.535025 
L 425.737033 -502.35791 
L 416.12555 -505.7046 
L 406.514067 -509.438331 
L 396.902584 -514.443261 
L 387.2911 -514.325712 
L 377.679617 -513.21115 
L 368.068134 -509.167279 
L 358.456651 -500.383038 
L 348.845167 -486.405158 
L 339.233684 -472.047338 
L 329.622201 -454.914778 
L 320.010718 -437.550354 
L 310.399234 -420.070954 
L 300.787751 -404.011391 
L 291.176268 -389.23231 
L 281.564785 -376.076582 
L 271.953301 -365.091742 
L 262.341818 -355.597648 
L 252.730335 -347.918578 
L 243.118852 -341.5103 
L 233.507368 -336.511323 
L 223.895885 -332.768267 
L 214.284402 -330.033808 
L 204.672919 -327.745706 
L 195.061435 -326.097281 
L 185.449952 -324.915737 
L 175.838469 -324.269133 
L 166.226986 -324.361057 
L 156.615502 -322.345156 
L 147.004019 -321.729746 
L 137.392536 -321.198552 
L 127.781053 -320.380211 
L 118.169569 -320.698924 
L 108.558086 -319.540544 
L 98.946603 -319.355305 
L 89.33512 -319.564147 
L 79.723636 -319.564147 
z
" id="m655f9b470e" style="stroke:#0000ff;stroke-opacity:0.1;"/>
    </defs>
    <g clip-path="url(#p47215ed8f9)">
     <use style="fill:#0000ff;fill-opacity:0.1;stroke:#0000ff;stroke-opacity:0.1;" x="0" xlink:href="#m655f9b470e" y="576"/>
    </g>
   </g>
   <g id="matplotlib.axis_1">
    <g id="xtick_1">
     <g id="line2d_1">
      <defs>
       <path d="M 0 0 
L 0 3.5 
" id="m0679e07b15" style="stroke:#000000;stroke-width:0.8;"/>
      </defs>
      <g>
       <use style="stroke:#000000;stroke-width:0.8;" x="214.284402" xlink:href="#m0679e07b15" y="267.974579"/>
      </g>
     </g>
     <g id="text_1">
      <!-- 2020-03-01 -->
      <defs>
       <path d="M 19.1875 8.296875 
L 53.609375 8.296875 
L 53.609375 0 
L 7.328125 0 
L 7.328125 8.296875 
Q 12.9375 14.109375 22.625 23.890625 
Q 32.328125 33.6875 34.8125 36.53125 
Q 39.546875 41.84375 41.421875 45.53125 
Q 43.3125 49.21875 43.3125 52.78125 
Q 43.3125 58.59375 39.234375 62.25 
Q 35.15625 65.921875 28.609375 65.921875 
Q 23.96875 65.921875 18.8125 64.3125 
Q 13.671875 62.703125 7.8125 59.421875 
L 7.8125 69.390625 
Q 13.765625 71.78125 18.9375 73 
Q 24.125 74.21875 28.421875 74.21875 
Q 39.75 74.21875 46.484375 68.546875 
Q 53.21875 62.890625 53.21875 53.421875 
Q 53.21875 48.921875 51.53125 44.890625 
Q 49.859375 40.875 45.40625 35.40625 
Q 44.1875 33.984375 37.640625 27.21875 
Q 31.109375 20.453125 19.1875 8.296875 
z
" id="DejaVuSans-50"/>
       <path d="M 31.78125 66.40625 
Q 24.171875 66.40625 20.328125 58.90625 
Q 16.5 51.421875 16.5 36.375 
Q 16.5 21.390625 20.328125 13.890625 
Q 24.171875 6.390625 31.78125 6.390625 
Q 39.453125 6.390625 43.28125 13.890625 
Q 47.125 21.390625 47.125 36.375 
Q 47.125 51.421875 43.28125 58.90625 
Q 39.453125 66.40625 31.78125 66.40625 
z
M 31.78125 74.21875 
Q 44.046875 74.21875 50.515625 64.515625 
Q 56.984375 54.828125 56.984375 36.375 
Q 56.984375 17.96875 50.515625 8.265625 
Q 44.046875 -1.421875 31.78125 -1.421875 
Q 19.53125 -1.421875 13.0625 8.265625 
Q 6.59375 17.96875 6.59375 36.375 
Q 6.59375 54.828125 13.0625 64.515625 
Q 19.53125 74.21875 31.78125 74.21875 
z
" id="DejaVuSans-48"/>
       <path d="M 4.890625 31.390625 
L 31.203125 31.390625 
L 31.203125 23.390625 
L 4.890625 23.390625 
z
" id="DejaVuSans-45"/>
       <path d="M 40.578125 39.3125 
Q 47.65625 37.796875 51.625 33 
Q 55.609375 28.21875 55.609375 21.1875 
Q 55.609375 10.40625 48.1875 4.484375 
Q 40.765625 -1.421875 27.09375 -1.421875 
Q 22.515625 -1.421875 17.65625 -0.515625 
Q 12.796875 0.390625 7.625 2.203125 
L 7.625 11.71875 
Q 11.71875 9.328125 16.59375 8.109375 
Q 21.484375 6.890625 26.8125 6.890625 
Q 36.078125 6.890625 40.9375 10.546875 
Q 45.796875 14.203125 45.796875 21.1875 
Q 45.796875 27.640625 41.28125 31.265625 
Q 36.765625 34.90625 28.71875 34.90625 
L 20.21875 34.90625 
L 20.21875 43.015625 
L 29.109375 43.015625 
Q 36.375 43.015625 40.234375 45.921875 
Q 44.09375 48.828125 44.09375 54.296875 
Q 44.09375 59.90625 40.109375 62.90625 
Q 36.140625 65.921875 28.71875 65.921875 
Q 24.65625 65.921875 20.015625 65.03125 
Q 15.375 64.15625 9.8125 62.3125 
L 9.8125 71.09375 
Q 15.4375 72.65625 20.34375 73.4375 
Q 25.25 74.21875 29.59375 74.21875 
Q 40.828125 74.21875 47.359375 69.109375 
Q 53.90625 64.015625 53.90625 55.328125 
Q 53.90625 49.265625 50.4375 45.09375 
Q 46.96875 40.921875 40.578125 39.3125 
z
" id="DejaVuSans-51"/>
       <path d="M 12.40625 8.296875 
L 28.515625 8.296875 
L 28.515625 63.921875 
L 10.984375 60.40625 
L 10.984375 69.390625 
L 28.421875 72.90625 
L 38.28125 72.90625 
L 38.28125 8.296875 
L 54.390625 8.296875 
L 54.390625 0 
L 12.40625 0 
z
" id="DejaVuSans-49"/>
      </defs>
      <g transform="translate(185.226589 282.573017)scale(0.1 -0.1)">
       <use xlink:href="#DejaVuSans-50"/>
       <use x="63.623047" xlink:href="#DejaVuSans-48"/>
       <use x="127.246094" xlink:href="#DejaVuSans-50"/>
       <use x="190.869141" xlink:href="#DejaVuSans-48"/>
       <use x="254.492188" xlink:href="#DejaVuSans-45"/>
       <use x="290.576172" xlink:href="#DejaVuSans-48"/>
       <use x="354.199219" xlink:href="#DejaVuSans-51"/>
       <use x="417.822266" xlink:href="#DejaVuSans-45"/>
       <use x="453.90625" xlink:href="#DejaVuSans-48"/>
       <use x="517.529297" xlink:href="#DejaVuSans-49"/>
      </g>
     </g>
    </g>
    <g id="xtick_2">
     <g id="line2d_2">
      <g>
       <use style="stroke:#000000;stroke-width:0.8;" x="348.845167" xlink:href="#m0679e07b15" y="267.974579"/>
      </g>
     </g>
     <g id="text_2">
      <!-- 2020-03-15 -->
      <defs>
       <path d="M 10.796875 72.90625 
L 49.515625 72.90625 
L 49.515625 64.59375 
L 19.828125 64.59375 
L 19.828125 46.734375 
Q 21.96875 47.46875 24.109375 47.828125 
Q 26.265625 48.1875 28.421875 48.1875 
Q 40.625 48.1875 47.75 41.5 
Q 54.890625 34.8125 54.890625 23.390625 
Q 54.890625 11.625 47.5625 5.09375 
Q 40.234375 -1.421875 26.90625 -1.421875 
Q 22.3125 -1.421875 17.546875 -0.640625 
Q 12.796875 0.140625 7.71875 1.703125 
L 7.71875 11.625 
Q 12.109375 9.234375 16.796875 8.0625 
Q 21.484375 6.890625 26.703125 6.890625 
Q 35.15625 6.890625 40.078125 11.328125 
Q 45.015625 15.765625 45.015625 23.390625 
Q 45.015625 31 40.078125 35.4375 
Q 35.15625 39.890625 26.703125 39.890625 
Q 22.75 39.890625 18.8125 39.015625 
Q 14.890625 38.140625 10.796875 36.28125 
z
" id="DejaVuSans-53"/>
      </defs>
      <g transform="translate(319.787355 282.573017)scale(0.1 -0.1)">
       <use xlink:href="#DejaVuSans-50"/>
       <use x="63.623047" xlink:href="#DejaVuSans-48"/>
       <use x="127.246094" xlink:href="#DejaVuSans-50"/>
       <use x="190.869141" xlink:href="#DejaVuSans-48"/>
       <use x="254.492188" xlink:href="#DejaVuSans-45"/>
       <use x="290.576172" xlink:href="#DejaVuSans-48"/>
       <use x="354.199219" xlink:href="#DejaVuSans-51"/>
       <use x="417.822266" xlink:href="#DejaVuSans-45"/>
       <use x="453.90625" xlink:href="#DejaVuSans-49"/>
       <use x="517.529297" xlink:href="#DejaVuSans-53"/>
      </g>
     </g>
    </g>
    <g id="xtick_3">
     <g id="line2d_3">
      <g>
       <use style="stroke:#000000;stroke-width:0.8;" x="512.240383" xlink:href="#m0679e07b15" y="267.974579"/>
      </g>
     </g>
     <g id="text_3">
      <!-- 2020-04-01 -->
      <defs>
       <path d="M 37.796875 64.3125 
L 12.890625 25.390625 
L 37.796875 25.390625 
z
M 35.203125 72.90625 
L 47.609375 72.90625 
L 47.609375 25.390625 
L 58.015625 25.390625 
L 58.015625 17.1875 
L 47.609375 17.1875 
L 47.609375 0 
L 37.796875 0 
L 37.796875 17.1875 
L 4.890625 17.1875 
L 4.890625 26.703125 
z
" id="DejaVuSans-52"/>
      </defs>
      <g transform="translate(483.18257 282.573017)scale(0.1 -0.1)">
       <use xlink:href="#DejaVuSans-50"/>
       <use x="63.623047" xlink:href="#DejaVuSans-48"/>
       <use x="127.246094" xlink:href="#DejaVuSans-50"/>
       <use x="190.869141" xlink:href="#DejaVuSans-48"/>
       <use x="254.492188" xlink:href="#DejaVuSans-45"/>
       <use x="290.576172" xlink:href="#DejaVuSans-48"/>
       <use x="354.199219" xlink:href="#DejaVuSans-52"/>
       <use x="417.822266" xlink:href="#DejaVuSans-45"/>
       <use x="453.90625" xlink:href="#DejaVuSans-48"/>
       <use x="517.529297" xlink:href="#DejaVuSans-49"/>
      </g>
     </g>
    </g>
    <g id="xtick_4">
     <g id="line2d_4">
      <g>
       <use style="stroke:#000000;stroke-width:0.8;" x="646.801148" xlink:href="#m0679e07b15" y="267.974579"/>
      </g>
     </g>
     <g id="text_4">
      <!-- 2020-04-15 -->
      <g transform="translate(617.743336 282.573017)scale(0.1 -0.1)">
       <use xlink:href="#DejaVuSans-50"/>
       <use x="63.623047" xlink:href="#DejaVuSans-48"/>
       <use x="127.246094" xlink:href="#DejaVuSans-50"/>
       <use x="190.869141" xlink:href="#DejaVuSans-48"/>
       <use x="254.492188" xlink:href="#DejaVuSans-45"/>
       <use x="290.576172" xlink:href="#DejaVuSans-48"/>
       <use x="354.199219" xlink:href="#DejaVuSans-52"/>
       <use x="417.822266" xlink:href="#DejaVuSans-45"/>
       <use x="453.90625" xlink:href="#DejaVuSans-49"/>
       <use x="517.529297" xlink:href="#DejaVuSans-53"/>
      </g>
     </g>
    </g>
    <g id="xtick_5">
     <g id="line2d_5">
      <g>
       <use style="stroke:#000000;stroke-width:0.8;" x="800.58488" xlink:href="#m0679e07b15" y="267.974579"/>
      </g>
     </g>
     <g id="text_5">
      <!-- 2020-05-01 -->
      <g transform="translate(771.527068 282.573017)scale(0.1 -0.1)">
       <use xlink:href="#DejaVuSans-50"/>
       <use x="63.623047" xlink:href="#DejaVuSans-48"/>
       <use x="127.246094" xlink:href="#DejaVuSans-50"/>
       <use x="190.869141" xlink:href="#DejaVuSans-48"/>
       <use x="254.492188" xlink:href="#DejaVuSans-45"/>
       <use x="290.576172" xlink:href="#DejaVuSans-48"/>
       <use x="354.199219" xlink:href="#DejaVuSans-53"/>
       <use x="417.822266" xlink:href="#DejaVuSans-45"/>
       <use x="453.90625" xlink:href="#DejaVuSans-48"/>
       <use x="517.529297" xlink:href="#DejaVuSans-49"/>
      </g>
     </g>
    </g>
   </g>
   <g id="matplotlib.axis_2">
    <g id="ytick_1">
     <g id="line2d_6">
      <defs>
       <path d="M 0 0 
L -3.5 0 
" id="m130bbd5068" style="stroke:#000000;stroke-width:0.8;"/>
      </defs>
      <g>
       <use style="stroke:#000000;stroke-width:0.8;" x="43.2" xlink:href="#m130bbd5068" y="256.890693"/>
      </g>
     </g>
     <g id="text_6">
      <!-- 0 -->
      <g transform="translate(29.8375 260.689912)scale(0.1 -0.1)">
       <use xlink:href="#DejaVuSans-48"/>
      </g>
     </g>
    </g>
    <g id="ytick_2">
     <g id="line2d_7">
      <g>
       <use style="stroke:#000000;stroke-width:0.8;" x="43.2" xlink:href="#m130bbd5068" y="207.386958"/>
      </g>
     </g>
     <g id="text_7">
      <!-- 1000 -->
      <g transform="translate(10.75 211.186177)scale(0.1 -0.1)">
       <use xlink:href="#DejaVuSans-49"/>
       <use x="63.623047" xlink:href="#DejaVuSans-48"/>
       <use x="127.246094" xlink:href="#DejaVuSans-48"/>
       <use x="190.869141" xlink:href="#DejaVuSans-48"/>
      </g>
     </g>
    </g>
    <g id="ytick_3">
     <g id="line2d_8">
      <g>
       <use style="stroke:#000000;stroke-width:0.8;" x="43.2" xlink:href="#m130bbd5068" y="157.883223"/>
      </g>
     </g>
     <g id="text_8">
      <!-- 2000 -->
      <g transform="translate(10.75 161.682442)scale(0.1 -0.1)">
       <use xlink:href="#DejaVuSans-50"/>
       <use x="63.623047" xlink:href="#DejaVuSans-48"/>
       <use x="127.246094" xlink:href="#DejaVuSans-48"/>
       <use x="190.869141" xlink:href="#DejaVuSans-48"/>
      </g>
     </g>
    </g>
    <g id="ytick_4">
     <g id="line2d_9">
      <g>
       <use style="stroke:#000000;stroke-width:0.8;" x="43.2" xlink:href="#m130bbd5068" y="108.379489"/>
      </g>
     </g>
     <g id="text_9">
      <!-- 3000 -->
      <g transform="translate(10.75 112.178707)scale(0.1 -0.1)">
       <use xlink:href="#DejaVuSans-51"/>
       <use x="63.623047" xlink:href="#DejaVuSans-48"/>
       <use x="127.246094" xlink:href="#DejaVuSans-48"/>
       <use x="190.869141" xlink:href="#DejaVuSans-48"/>
      </g>
     </g>
    </g>
    <g id="ytick_5">
     <g id="line2d_10">
      <g>
       <use style="stroke:#000000;stroke-width:0.8;" x="43.2" xlink:href="#m130bbd5068" y="58.875754"/>
      </g>
     </g>
     <g id="text_10">
      <!-- 4000 -->
      <g transform="translate(10.75 62.674972)scale(0.1 -0.1)">
       <use xlink:href="#DejaVuSans-52"/>
       <use x="63.623047" xlink:href="#DejaVuSans-48"/>
       <use x="127.246094" xlink:href="#DejaVuSans-48"/>
       <use x="190.869141" xlink:href="#DejaVuSans-48"/>
      </g>
     </g>
    </g>
    <g id="text_11">
     <!-- cases per day -->
     <defs>
      <path d="M 48.78125 52.59375 
L 48.78125 44.1875 
Q 44.96875 46.296875 41.140625 47.34375 
Q 37.3125 48.390625 33.40625 48.390625 
Q 24.65625 48.390625 19.8125 42.84375 
Q 14.984375 37.3125 14.984375 27.296875 
Q 14.984375 17.28125 19.8125 11.734375 
Q 24.65625 6.203125 33.40625 6.203125 
Q 37.3125 6.203125 41.140625 7.25 
Q 44.96875 8.296875 48.78125 10.40625 
L 48.78125 2.09375 
Q 45.015625 0.34375 40.984375 -0.53125 
Q 36.96875 -1.421875 32.421875 -1.421875 
Q 20.0625 -1.421875 12.78125 6.34375 
Q 5.515625 14.109375 5.515625 27.296875 
Q 5.515625 40.671875 12.859375 48.328125 
Q 20.21875 56 33.015625 56 
Q 37.15625 56 41.109375 55.140625 
Q 45.0625 54.296875 48.78125 52.59375 
z
" id="DejaVuSans-99"/>
      <path d="M 34.28125 27.484375 
Q 23.390625 27.484375 19.1875 25 
Q 14.984375 22.515625 14.984375 16.5 
Q 14.984375 11.71875 18.140625 8.90625 
Q 21.296875 6.109375 26.703125 6.109375 
Q 34.1875 6.109375 38.703125 11.40625 
Q 43.21875 16.703125 43.21875 25.484375 
L 43.21875 27.484375 
z
M 52.203125 31.203125 
L 52.203125 0 
L 43.21875 0 
L 43.21875 8.296875 
Q 40.140625 3.328125 35.546875 0.953125 
Q 30.953125 -1.421875 24.3125 -1.421875 
Q 15.921875 -1.421875 10.953125 3.296875 
Q 6 8.015625 6 15.921875 
Q 6 25.140625 12.171875 29.828125 
Q 18.359375 34.515625 30.609375 34.515625 
L 43.21875 34.515625 
L 43.21875 35.40625 
Q 43.21875 41.609375 39.140625 45 
Q 35.0625 48.390625 27.6875 48.390625 
Q 23 48.390625 18.546875 47.265625 
Q 14.109375 46.140625 10.015625 43.890625 
L 10.015625 52.203125 
Q 14.9375 54.109375 19.578125 55.046875 
Q 24.21875 56 28.609375 56 
Q 40.484375 56 46.34375 49.84375 
Q 52.203125 43.703125 52.203125 31.203125 
z
" id="DejaVuSans-97"/>
      <path d="M 44.28125 53.078125 
L 44.28125 44.578125 
Q 40.484375 46.53125 36.375 47.5 
Q 32.28125 48.484375 27.875 48.484375 
Q 21.1875 48.484375 17.84375 46.4375 
Q 14.5 44.390625 14.5 40.28125 
Q 14.5 37.15625 16.890625 35.375 
Q 19.28125 33.59375 26.515625 31.984375 
L 29.59375 31.296875 
Q 39.15625 29.25 43.1875 25.515625 
Q 47.21875 21.78125 47.21875 15.09375 
Q 47.21875 7.46875 41.1875 3.015625 
Q 35.15625 -1.421875 24.609375 -1.421875 
Q 20.21875 -1.421875 15.453125 -0.5625 
Q 10.6875 0.296875 5.421875 2 
L 5.421875 11.28125 
Q 10.40625 8.6875 15.234375 7.390625 
Q 20.0625 6.109375 24.8125 6.109375 
Q 31.15625 6.109375 34.5625 8.28125 
Q 37.984375 10.453125 37.984375 14.40625 
Q 37.984375 18.0625 35.515625 20.015625 
Q 33.0625 21.96875 24.703125 23.78125 
L 21.578125 24.515625 
Q 13.234375 26.265625 9.515625 29.90625 
Q 5.8125 33.546875 5.8125 39.890625 
Q 5.8125 47.609375 11.28125 51.796875 
Q 16.75 56 26.8125 56 
Q 31.78125 56 36.171875 55.265625 
Q 40.578125 54.546875 44.28125 53.078125 
z
" id="DejaVuSans-115"/>
      <path d="M 56.203125 29.59375 
L 56.203125 25.203125 
L 14.890625 25.203125 
Q 15.484375 15.921875 20.484375 11.0625 
Q 25.484375 6.203125 34.421875 6.203125 
Q 39.59375 6.203125 44.453125 7.46875 
Q 49.3125 8.734375 54.109375 11.28125 
L 54.109375 2.78125 
Q 49.265625 0.734375 44.1875 -0.34375 
Q 39.109375 -1.421875 33.890625 -1.421875 
Q 20.796875 -1.421875 13.15625 6.1875 
Q 5.515625 13.8125 5.515625 26.8125 
Q 5.515625 40.234375 12.765625 48.109375 
Q 20.015625 56 32.328125 56 
Q 43.359375 56 49.78125 48.890625 
Q 56.203125 41.796875 56.203125 29.59375 
z
M 47.21875 32.234375 
Q 47.125 39.59375 43.09375 43.984375 
Q 39.0625 48.390625 32.421875 48.390625 
Q 24.90625 48.390625 20.390625 44.140625 
Q 15.875 39.890625 15.1875 32.171875 
z
" id="DejaVuSans-101"/>
      <path id="DejaVuSans-32"/>
      <path d="M 18.109375 8.203125 
L 18.109375 -20.796875 
L 9.078125 -20.796875 
L 9.078125 54.6875 
L 18.109375 54.6875 
L 18.109375 46.390625 
Q 20.953125 51.265625 25.265625 53.625 
Q 29.59375 56 35.59375 56 
Q 45.5625 56 51.78125 48.09375 
Q 58.015625 40.1875 58.015625 27.296875 
Q 58.015625 14.40625 51.78125 6.484375 
Q 45.5625 -1.421875 35.59375 -1.421875 
Q 29.59375 -1.421875 25.265625 0.953125 
Q 20.953125 3.328125 18.109375 8.203125 
z
M 48.6875 27.296875 
Q 48.6875 37.203125 44.609375 42.84375 
Q 40.53125 48.484375 33.40625 48.484375 
Q 26.265625 48.484375 22.1875 42.84375 
Q 18.109375 37.203125 18.109375 27.296875 
Q 18.109375 17.390625 22.1875 11.75 
Q 26.265625 6.109375 33.40625 6.109375 
Q 40.53125 6.109375 44.609375 11.75 
Q 48.6875 17.390625 48.6875 27.296875 
z
" id="DejaVuSans-112"/>
      <path d="M 41.109375 46.296875 
Q 39.59375 47.171875 37.8125 47.578125 
Q 36.03125 48 33.890625 48 
Q 26.265625 48 22.1875 43.046875 
Q 18.109375 38.09375 18.109375 28.8125 
L 18.109375 0 
L 9.078125 0 
L 9.078125 54.6875 
L 18.109375 54.6875 
L 18.109375 46.1875 
Q 20.953125 51.171875 25.484375 53.578125 
Q 30.03125 56 36.53125 56 
Q 37.453125 56 38.578125 55.875 
Q 39.703125 55.765625 41.0625 55.515625 
z
" id="DejaVuSans-114"/>
      <path d="M 45.40625 46.390625 
L 45.40625 75.984375 
L 54.390625 75.984375 
L 54.390625 0 
L 45.40625 0 
L 45.40625 8.203125 
Q 42.578125 3.328125 38.25 0.953125 
Q 33.9375 -1.421875 27.875 -1.421875 
Q 17.96875 -1.421875 11.734375 6.484375 
Q 5.515625 14.40625 5.515625 27.296875 
Q 5.515625 40.1875 11.734375 48.09375 
Q 17.96875 56 27.875 56 
Q 33.9375 56 38.25 53.625 
Q 42.578125 51.265625 45.40625 46.390625 
z
M 14.796875 27.296875 
Q 14.796875 17.390625 18.875 11.75 
Q 22.953125 6.109375 30.078125 6.109375 
Q 37.203125 6.109375 41.296875 11.75 
Q 45.40625 17.390625 45.40625 27.296875 
Q 45.40625 37.203125 41.296875 42.84375 
Q 37.203125 48.484375 30.078125 48.484375 
Q 22.953125 48.484375 18.875 42.84375 
Q 14.796875 37.203125 14.796875 27.296875 
z
" id="DejaVuSans-100"/>
      <path d="M 32.171875 -5.078125 
Q 28.375 -14.84375 24.75 -17.8125 
Q 21.140625 -20.796875 15.09375 -20.796875 
L 7.90625 -20.796875 
L 7.90625 -13.28125 
L 13.1875 -13.28125 
Q 16.890625 -13.28125 18.9375 -11.515625 
Q 21 -9.765625 23.484375 -3.21875 
L 25.09375 0.875 
L 2.984375 54.6875 
L 12.5 54.6875 
L 29.59375 11.921875 
L 46.6875 54.6875 
L 56.203125 54.6875 
z
" id="DejaVuSans-121"/>
     </defs>
     <g transform="translate(4.670312 180.28854)rotate(-90)scale(0.1 -0.1)">
      <use xlink:href="#DejaVuSans-99"/>
      <use x="54.980469" xlink:href="#DejaVuSans-97"/>
      <use x="116.259766" xlink:href="#DejaVuSans-115"/>
      <use x="168.359375" xlink:href="#DejaVuSans-101"/>
      <use x="229.882812" xlink:href="#DejaVuSans-115"/>
      <use x="281.982422" xlink:href="#DejaVuSans-32"/>
      <use x="313.769531" xlink:href="#DejaVuSans-112"/>
      <use x="377.246094" xlink:href="#DejaVuSans-101"/>
      <use x="438.769531" xlink:href="#DejaVuSans-114"/>
      <use x="479.882812" xlink:href="#DejaVuSans-32"/>
      <use x="511.669922" xlink:href="#DejaVuSans-100"/>
      <use x="575.146484" xlink:href="#DejaVuSans-97"/>
      <use x="636.425781" xlink:href="#DejaVuSans-121"/>
     </g>
    </g>
   </g>
   <g id="line2d_11">
    <path clip-path="url(#p47215ed8f9)" d="M 79.723636 256.544167 
L 89.33512 256.395656 
L 98.946603 256.494663 
L 108.558086 256.395656 
L 118.169569 255.207566 
L 127.781053 255.801611 
L 137.392536 255.603596 
L 147.004019 254.613521 
L 156.615502 253.722454 
L 166.226986 251.791809 
L 175.838469 249.613644 
L 185.449952 249.217614 
L 195.061435 247.187961 
L 204.672919 248.22754 
L 214.284402 247.336472 
L 223.895885 243.623692 
L 233.507368 244.316745 
L 243.118852 239.712897 
L 252.730335 238.920837 
L 262.341818 228.525053 
L 271.953301 220.010411 
L 281.564785 207.981003 
L 291.176268 182.783602 
L 300.787751 161.843522 
L 310.399234 138.428256 
L 320.010718 126.151329 
L 329.622201 97.142141 
L 339.233684 96.003555 
L 348.845167 89.766084 
L 358.456651 34.17339 
L 368.068134 71.746725 
L 377.679617 64.717194 
L 387.2911 92.142264 
L 396.902584 63.578608 
L 406.514067 99.12229 
L 416.12555 126.943389 
L 425.737033 71.004169 
L 435.348517 118.725769 
L 444.96 106.844873 
L 454.571483 123.824654 
L 464.182967 120.755422 
L 473.79445 127.784953 
L 483.405933 152.883346 
L 493.017416 111.05269 
L 502.6289 148.923047 
L 512.240383 130.359147 
L 521.851866 143.92317 
L 531.463349 140.60642 
L 541.074833 165.605806 
L 550.686316 175.160027 
L 560.297799 151.794264 
L 569.909282 167.78397 
L 579.520766 175.407546 
L 589.132249 177.98174 
L 598.743732 192.288319 
L 608.355215 201.347503 
L 617.966699 201.05048 
L 627.578182 203.377156 
L 637.189665 201.347503 
L 646.801148 205.456313 
L 656.412632 211.792791 
L 666.024115 213.624429 
L 675.635598 218.970832 
L 685.247081 224.218228 
L 694.858565 216.69366 
L 704.470048 225.851851 
L 714.081531 227.732993 
L 723.693014 229.41612 
L 733.304498 233.722945 
L 742.915981 239.21786 
L 752.527464 241.841558 
L 762.138947 239.514882 
L 771.750431 247.385976 
L 781.361914 251.049252 
L 790.973397 253.524439 
L 800.58488 256.692678 
L 810.196364 256.841189 
" style="fill:none;stroke:#ff0000;stroke-linecap:square;stroke-width:1.5;"/>
   </g>
   <g id="line2d_12">
    <path clip-path="url(#p47215ed8f9)" d="M 79.723636 256.435853 
L 89.33512 256.435853 
L 98.946603 256.648463 
L 108.558086 256.485137 
L 118.169569 255.34319 
L 127.781053 255.669476 
L 137.392536 254.871906 
L 147.004019 254.393458 
L 156.615502 253.821193 
L 166.226986 251.864317 
L 175.838469 252.051883 
L 185.449952 251.482264 
L 195.061435 250.479724 
L 204.672919 248.952817 
L 214.284402 246.845896 
L 223.895885 244.389082 
L 233.507368 240.886485 
L 243.118852 236.115461 
L 252.730335 230.17418 
L 262.341818 222.857212 
L 271.953301 214.050325 
L 281.564785 203.464316 
L 291.176268 190.971255 
L 300.787751 176.988659 
L 310.399234 162.09872 
L 320.010718 146.195611 
L 329.622201 129.940602 
L 339.233684 113.752737 
L 348.845167 98.818862 
L 358.456651 86.006221 
L 368.068134 76.887457 
L 377.679617 72.087566 
L 387.2911 71.916036 
L 396.902584 71.845491 
L 406.514067 78.5416 
L 416.12555 83.931558 
L 425.737033 86.365634 
L 435.348517 96.954841 
L 444.96 104.253357 
L 454.571483 111.026056 
L 464.182967 116.44203 
L 473.79445 122.398947 
L 483.405933 126.569209 
L 493.017416 127.957094 
L 502.6289 135.543079 
L 512.240383 137.629048 
L 521.851866 143.137504 
L 531.463349 147.55108 
L 541.074833 156.612498 
L 550.686316 161.573777 
L 560.297799 163.104118 
L 569.909282 168.922943 
L 579.520766 175.336626 
L 589.132249 180.924959 
L 598.743732 187.560908 
L 608.355215 193.359546 
L 617.966699 197.63448 
L 627.578182 201.100759 
L 637.189665 203.830359 
L 646.801148 207.909206 
L 656.412632 211.456 
L 666.024115 214.558528 
L 675.635598 217.889442 
L 685.247081 220.805333 
L 694.858565 222.669573 
L 704.470048 225.606005 
L 714.081531 227.869089 
L 723.693014 229.601272 
L 733.304498 231.398274 
L 742.915981 233.422916 
L 752.527464 234.841118 
L 762.138947 235.454711 
L 771.750431 236.159112 
L 781.361914 236.914305 
L 790.973397 237.87613 
L 800.58488 238.898795 
" style="fill:none;stroke:#0000ff;stroke-linecap:square;stroke-opacity:0.5;stroke-width:1.5;"/>
   </g>
   <g id="line2d_13">
    <path clip-path="url(#p47215ed8f9)" d="M 79.723636 256.435853 
L 89.33512 256.435853 
L 98.946603 256.663273 
L 108.558086 256.663273 
L 118.169569 255.753543 
L 127.781053 256.208383 
L 137.392536 255.526123 
L 147.004019 255.526123 
L 156.615502 255.526123 
L 166.226986 254.241897 
L 175.838469 255.265931 
L 185.449952 255.702604 
L 195.061435 256.217442 
L 204.672919 256.257045 
L 214.284402 255.464986 
L 223.895885 254.392854 
L 233.507368 252.656738 
L 243.118852 250.397546 
L 252.730335 247.708701 
L 262.341818 244.743229 
L 271.953301 241.685245 
L 281.564785 238.72112 
L 291.176268 236.015919 
L 300.787751 233.698391 
L 310.399234 231.854556 
L 320.010718 230.527539 
L 329.622201 229.722845 
L 339.233684 229.415764 
L 348.845167 229.5598 
L 358.456651 230.094678 
L 368.068134 230.95331 
L 377.679617 232.067342 
L 387.2911 233.37135 
L 396.902584 234.805453 
L 406.514067 236.31702 
L 416.12555 237.861339 
L 425.737033 239.401776 
L 435.348517 240.909264 
L 444.96 242.361624 
L 454.571483 243.742818 
L 464.182967 245.041994 
L 473.79445 246.252578 
L 483.405933 247.371561 
L 493.017416 248.398585 
L 502.6289 249.335394 
L 512.240383 250.185393 
L 521.851866 250.952859 
L 531.463349 251.642941 
L 541.074833 252.261064 
L 550.686316 252.812972 
L 560.297799 253.304207 
L 569.909282 253.740315 
L 579.520766 254.126563 
L 589.132249 254.467901 
L 598.743732 254.769042 
L 608.355215 255.034224 
L 617.966699 255.267406 
L 627.578182 255.472154 
L 637.189665 255.651753 
L 646.801148 255.809096 
L 656.412632 255.946835 
L 666.024115 256.067268 
L 675.635598 256.172533 
L 685.247081 256.264491 
L 694.858565 256.344766 
L 704.470048 256.414784 
L 714.081531 256.475852 
L 723.693014 256.529118 
L 733.304498 256.575533 
L 742.915981 256.615967 
L 752.527464 256.651214 
L 762.138947 256.681906 
L 771.750431 256.708678 
L 781.361914 256.731964 
L 790.973397 256.752241 
L 800.58488 256.769944 
" style="fill:none;stroke:#800080;stroke-linecap:square;stroke-width:1.5;"/>
   </g>
   <g id="patch_3">
    <path d="M 43.2 267.974579 
L 43.2 23.04 
" style="fill:none;stroke:#000000;stroke-linecap:square;stroke-linejoin:miter;stroke-width:0.8;"/>
   </g>
   <g id="patch_4">
    <path d="M 846.72 267.974579 
L 846.72 23.04 
" style="fill:none;stroke:#000000;stroke-linecap:square;stroke-linejoin:miter;stroke-width:0.8;"/>
   </g>
   <g id="patch_5">
    <path d="M 43.2 267.974579 
L 846.72 267.974579 
" style="fill:none;stroke:#000000;stroke-linecap:square;stroke-linejoin:miter;stroke-width:0.8;"/>
   </g>
   <g id="patch_6">
    <path d="M 43.2 23.04 
L 846.72 23.04 
" style="fill:none;stroke:#000000;stroke-linecap:square;stroke-linejoin:miter;stroke-width:0.8;"/>
   </g>
   <g id="legend_1">
    <g id="patch_7">
     <path d="M 762.029375 60.39625 
L 839.72 60.39625 
Q 841.72 60.39625 841.72 58.39625 
L 841.72 30.04 
Q 841.72 28.04 839.72 28.04 
L 762.029375 28.04 
Q 760.029375 28.04 760.029375 30.04 
L 760.029375 58.39625 
Q 760.029375 60.39625 762.029375 60.39625 
z
" style="fill:#ffffff;opacity:0.8;stroke:#cccccc;stroke-linejoin:miter;"/>
    </g>
    <g id="line2d_14">
     <path d="M 764.029375 36.138438 
L 784.029375 36.138438 
" style="fill:none;stroke:#ff0000;stroke-linecap:square;stroke-width:1.5;"/>
    </g>
    <g id="line2d_15"/>
    <g id="text_12">
     <!-- EpiCurve -->
     <defs>
      <path d="M 9.8125 72.90625 
L 55.90625 72.90625 
L 55.90625 64.59375 
L 19.671875 64.59375 
L 19.671875 43.015625 
L 54.390625 43.015625 
L 54.390625 34.71875 
L 19.671875 34.71875 
L 19.671875 8.296875 
L 56.78125 8.296875 
L 56.78125 0 
L 9.8125 0 
z
" id="DejaVuSans-69"/>
      <path d="M 9.421875 54.6875 
L 18.40625 54.6875 
L 18.40625 0 
L 9.421875 0 
z
M 9.421875 75.984375 
L 18.40625 75.984375 
L 18.40625 64.59375 
L 9.421875 64.59375 
z
" id="DejaVuSans-105"/>
      <path d="M 64.40625 67.28125 
L 64.40625 56.890625 
Q 59.421875 61.53125 53.78125 63.8125 
Q 48.140625 66.109375 41.796875 66.109375 
Q 29.296875 66.109375 22.65625 58.46875 
Q 16.015625 50.828125 16.015625 36.375 
Q 16.015625 21.96875 22.65625 14.328125 
Q 29.296875 6.6875 41.796875 6.6875 
Q 48.140625 6.6875 53.78125 8.984375 
Q 59.421875 11.28125 64.40625 15.921875 
L 64.40625 5.609375 
Q 59.234375 2.09375 53.4375 0.328125 
Q 47.65625 -1.421875 41.21875 -1.421875 
Q 24.65625 -1.421875 15.125 8.703125 
Q 5.609375 18.84375 5.609375 36.375 
Q 5.609375 53.953125 15.125 64.078125 
Q 24.65625 74.21875 41.21875 74.21875 
Q 47.75 74.21875 53.53125 72.484375 
Q 59.328125 70.75 64.40625 67.28125 
z
" id="DejaVuSans-67"/>
      <path d="M 8.5 21.578125 
L 8.5 54.6875 
L 17.484375 54.6875 
L 17.484375 21.921875 
Q 17.484375 14.15625 20.5 10.265625 
Q 23.53125 6.390625 29.59375 6.390625 
Q 36.859375 6.390625 41.078125 11.03125 
Q 45.3125 15.671875 45.3125 23.6875 
L 45.3125 54.6875 
L 54.296875 54.6875 
L 54.296875 0 
L 45.3125 0 
L 45.3125 8.40625 
Q 42.046875 3.421875 37.71875 1 
Q 33.40625 -1.421875 27.6875 -1.421875 
Q 18.265625 -1.421875 13.375 4.4375 
Q 8.5 10.296875 8.5 21.578125 
z
M 31.109375 56 
z
" id="DejaVuSans-117"/>
      <path d="M 2.984375 54.6875 
L 12.5 54.6875 
L 29.59375 8.796875 
L 46.6875 54.6875 
L 56.203125 54.6875 
L 35.6875 0 
L 23.484375 0 
z
" id="DejaVuSans-118"/>
     </defs>
     <g transform="translate(792.029375 39.638438)scale(0.1 -0.1)">
      <use xlink:href="#DejaVuSans-69"/>
      <use x="63.183594" xlink:href="#DejaVuSans-112"/>
      <use x="126.660156" xlink:href="#DejaVuSans-105"/>
      <use x="154.443359" xlink:href="#DejaVuSans-67"/>
      <use x="224.267578" xlink:href="#DejaVuSans-117"/>
      <use x="287.646484" xlink:href="#DejaVuSans-114"/>
      <use x="328.759766" xlink:href="#DejaVuSans-118"/>
      <use x="387.939453" xlink:href="#DejaVuSans-101"/>
     </g>
    </g>
    <g id="line2d_16">
     <path d="M 764.029375 50.816563 
L 784.029375 50.816563 
" style="fill:none;stroke:#800080;stroke-linecap:square;stroke-width:1.5;"/>
    </g>
    <g id="line2d_17"/>
    <g id="text_13">
     <!-- Imported -->
     <defs>
      <path d="M 9.8125 72.90625 
L 19.671875 72.90625 
L 19.671875 0 
L 9.8125 0 
z
" id="DejaVuSans-73"/>
      <path d="M 52 44.1875 
Q 55.375 50.25 60.0625 53.125 
Q 64.75 56 71.09375 56 
Q 79.640625 56 84.28125 50.015625 
Q 88.921875 44.046875 88.921875 33.015625 
L 88.921875 0 
L 79.890625 0 
L 79.890625 32.71875 
Q 79.890625 40.578125 77.09375 44.375 
Q 74.3125 48.1875 68.609375 48.1875 
Q 61.625 48.1875 57.5625 43.546875 
Q 53.515625 38.921875 53.515625 30.90625 
L 53.515625 0 
L 44.484375 0 
L 44.484375 32.71875 
Q 44.484375 40.625 41.703125 44.40625 
Q 38.921875 48.1875 33.109375 48.1875 
Q 26.21875 48.1875 22.15625 43.53125 
Q 18.109375 38.875 18.109375 30.90625 
L 18.109375 0 
L 9.078125 0 
L 9.078125 54.6875 
L 18.109375 54.6875 
L 18.109375 46.1875 
Q 21.1875 51.21875 25.484375 53.609375 
Q 29.78125 56 35.6875 56 
Q 41.65625 56 45.828125 52.96875 
Q 50 49.953125 52 44.1875 
z
" id="DejaVuSans-109"/>
      <path d="M 30.609375 48.390625 
Q 23.390625 48.390625 19.1875 42.75 
Q 14.984375 37.109375 14.984375 27.296875 
Q 14.984375 17.484375 19.15625 11.84375 
Q 23.34375 6.203125 30.609375 6.203125 
Q 37.796875 6.203125 41.984375 11.859375 
Q 46.1875 17.53125 46.1875 27.296875 
Q 46.1875 37.015625 41.984375 42.703125 
Q 37.796875 48.390625 30.609375 48.390625 
z
M 30.609375 56 
Q 42.328125 56 49.015625 48.375 
Q 55.71875 40.765625 55.71875 27.296875 
Q 55.71875 13.875 49.015625 6.21875 
Q 42.328125 -1.421875 30.609375 -1.421875 
Q 18.84375 -1.421875 12.171875 6.21875 
Q 5.515625 13.875 5.515625 27.296875 
Q 5.515625 40.765625 12.171875 48.375 
Q 18.84375 56 30.609375 56 
z
" id="DejaVuSans-111"/>
      <path d="M 18.3125 70.21875 
L 18.3125 54.6875 
L 36.8125 54.6875 
L 36.8125 47.703125 
L 18.3125 47.703125 
L 18.3125 18.015625 
Q 18.3125 11.328125 20.140625 9.421875 
Q 21.96875 7.515625 27.59375 7.515625 
L 36.8125 7.515625 
L 36.8125 0 
L 27.59375 0 
Q 17.1875 0 13.234375 3.875 
Q 9.28125 7.765625 9.28125 18.015625 
L 9.28125 47.703125 
L 2.6875 47.703125 
L 2.6875 54.6875 
L 9.28125 54.6875 
L 9.28125 70.21875 
z
" id="DejaVuSans-116"/>
     </defs>
     <g transform="translate(792.029375 54.316563)scale(0.1 -0.1)">
      <use xlink:href="#DejaVuSans-73"/>
      <use x="29.492188" xlink:href="#DejaVuSans-109"/>
      <use x="126.904297" xlink:href="#DejaVuSans-112"/>
      <use x="190.380859" xlink:href="#DejaVuSans-111"/>
      <use x="251.5625" xlink:href="#DejaVuSans-114"/>
      <use x="292.675781" xlink:href="#DejaVuSans-116"/>
      <use x="331.884766" xlink:href="#DejaVuSans-101"/>
      <use x="393.408203" xlink:href="#DejaVuSans-100"/>
     </g>
    </g>
   </g>
  </g>
  <g id="axes_2">
   <g id="patch_8">
    <path d="M 43.2 547.2 
L 846.72 547.2 
L 846.72 302.265421 
L 43.2 302.265421 
z
" style="fill:#ffffff;"/>
   </g>
   <g id="PolyCollection_2">
    <defs>
     <path d="M 435.348517 -162.812853 
L 435.348517 -137.225641 
L 444.96 -150.094187 
L 454.571483 -163.354845 
L 464.182967 -175.133559 
L 473.79445 -185.554592 
L 483.405933 -194.682875 
L 493.017416 -201.734798 
L 502.6289 -206.774528 
L 512.240383 -210.792164 
L 521.851866 -213.189663 
L 531.463349 -214.366523 
L 541.074833 -214.618819 
L 550.686316 -214.026313 
L 560.297799 -213.003425 
L 569.909282 -211.170438 
L 579.520766 -208.939725 
L 589.132249 -205.624289 
L 598.743732 -202.242587 
L 608.355215 -198.420089 
L 617.966699 -194.62296 
L 627.578182 -189.967826 
L 637.189665 -184.747182 
L 646.801148 -179.677566 
L 656.412632 -174.401104 
L 666.024115 -169.168963 
L 675.635598 -163.591492 
L 685.247081 -157.936404 
L 694.858565 -152.305492 
L 704.470048 -146.77333 
L 714.081531 -141.087619 
L 723.693014 -135.56041 
L 733.304498 -130.169113 
L 742.915981 -124.797719 
L 752.527464 -119.757893 
L 762.138947 -114.855167 
L 771.750431 -110.277065 
L 781.361914 -105.862829 
L 790.973397 -101.764159 
L 800.58488 -97.974626 
L 800.58488 -110.273653 
L 800.58488 -110.273653 
L 790.973397 -114.436644 
L 781.361914 -118.88386 
L 771.750431 -123.580046 
L 762.138947 -128.582606 
L 752.527464 -133.572602 
L 742.915981 -138.928092 
L 733.304498 -144.50107 
L 723.693014 -150.004234 
L 714.081531 -155.803729 
L 704.470048 -161.835339 
L 694.858565 -167.756636 
L 685.247081 -173.564064 
L 675.635598 -179.292503 
L 666.024115 -185.015076 
L 656.412632 -190.869881 
L 646.801148 -196.395612 
L 637.189665 -201.596408 
L 627.578182 -207.01943 
L 617.966699 -211.973532 
L 608.355215 -216.985496 
L 598.743732 -221.434569 
L 589.132249 -225.125402 
L 579.520766 -229.139952 
L 569.909282 -232.520708 
L 560.297799 -234.917205 
L 550.686316 -237.072404 
L 541.074833 -238.691188 
L 531.463349 -238.485898 
L 521.851866 -236.672793 
L 512.240383 -233.183729 
L 502.6289 -228.436425 
L 493.017416 -221.591932 
L 483.405933 -213.980538 
L 473.79445 -205.584366 
L 464.182967 -196.383661 
L 454.571483 -185.908939 
L 444.96 -174.491345 
L 435.348517 -162.812853 
z
" id="mec883fd063" style="stroke:#008000;stroke-opacity:0.2;"/>
    </defs>
    <g clip-path="url(#p82f3053cc2)">
     <use style="fill:#008000;fill-opacity:0.2;stroke:#008000;stroke-opacity:0.2;" x="0" xlink:href="#mec883fd063" y="576"/>
    </g>
   </g>
   <g id="PolyCollection_3">
    <defs>
     <path d="M 79.723636 -39.93339 
L 79.723636 -39.93339 
L 89.33512 -39.93339 
L 98.946603 -39.93339 
L 108.558086 -39.93339 
L 118.169569 -39.933391 
L 127.781053 -39.933401 
L 137.392536 -39.933447 
L 147.004019 -39.933594 
L 156.615502 -39.933946 
L 166.226986 -39.934658 
L 175.838469 -39.935938 
L 185.449952 -39.938075 
L 195.061435 -39.941464 
L 204.672919 -39.946661 
L 214.284402 -39.954324 
L 223.895885 -39.965312 
L 233.507368 -39.98055 
L 243.118852 -40.001317 
L 252.730335 -40.029101 
L 262.341818 -40.065038 
L 271.953301 -40.110117 
L 281.564785 -40.167148 
L 291.176268 -40.237695 
L 300.787751 -40.324639 
L 310.399234 -40.43055 
L 320.010718 -40.563764 
L 329.622201 -40.727071 
L 339.233684 -40.929266 
L 348.845167 -41.186368 
L 358.456651 -41.509027 
L 368.068134 -41.913304 
L 377.679617 -42.412575 
L 387.2911 -43.036556 
L 396.902584 -43.801263 
L 406.514067 -44.735952 
L 416.12555 -45.86739 
L 425.737033 -47.208725 
L 435.348517 -48.749481 
L 444.96 -50.538844 
L 454.571483 -52.569506 
L 464.182967 -54.835321 
L 473.79445 -57.307849 
L 483.405933 -59.978074 
L 493.017416 -62.788458 
L 502.6289 -65.72358 
L 512.240383 -68.662337 
L 521.851866 -71.658194 
L 531.463349 -74.580903 
L 541.074833 -77.36387 
L 550.686316 -80.137828 
L 560.297799 -82.621273 
L 569.909282 -84.863965 
L 579.520766 -86.841572 
L 589.132249 -88.588193 
L 598.743732 -90.238461 
L 608.355215 -91.48534 
L 617.966699 -92.553197 
L 627.578182 -93.269128 
L 637.189665 -93.764887 
L 646.801148 -94.062765 
L 656.412632 -94.187039 
L 666.024115 -93.987833 
L 675.635598 -93.759024 
L 685.247081 -93.243537 
L 694.858565 -92.604128 
L 704.470048 -91.809792 
L 714.081531 -90.935267 
L 723.693014 -89.799826 
L 733.304498 -88.610939 
L 742.915981 -87.359393 
L 752.527464 -85.972097 
L 762.138947 -84.575936 
L 771.750431 -83.139278 
L 781.361914 -81.638432 
L 790.973397 -80.091639 
L 800.58488 -78.532364 
L 800.58488 -84.234049 
L 800.58488 -84.234049 
L 790.973397 -85.851854 
L 781.361914 -87.448279 
L 771.750431 -89.060181 
L 762.138947 -90.607443 
L 752.527464 -92.108089 
L 742.915981 -93.465541 
L 733.304498 -94.794773 
L 723.693014 -96.009371 
L 714.081531 -97.038214 
L 704.470048 -97.95628 
L 694.858565 -98.777024 
L 685.247081 -99.413011 
L 675.635598 -99.880354 
L 666.024115 -100.121672 
L 656.412632 -100.247713 
L 646.801148 -100.1488 
L 637.189665 -99.778306 
L 627.578182 -99.145356 
L 617.966699 -98.281871 
L 608.355215 -97.120031 
L 598.743732 -95.844142 
L 589.132249 -94.144638 
L 579.520766 -92.212962 
L 569.909282 -90.062678 
L 560.297799 -87.635732 
L 550.686316 -85.019461 
L 541.074833 -82.150093 
L 531.463349 -79.200737 
L 521.851866 -76.083133 
L 512.240383 -72.863891 
L 502.6289 -69.691814 
L 493.017416 -66.494498 
L 483.405933 -63.419043 
L 473.79445 -60.488781 
L 464.182967 -57.697884 
L 454.571483 -55.066097 
L 444.96 -52.700265 
L 435.348517 -50.60053 
L 425.737033 -48.759602 
L 416.12555 -47.164597 
L 406.514067 -45.822665 
L 396.902584 -44.714474 
L 387.2911 -43.777448 
L 377.679617 -43.012966 
L 368.068134 -42.399768 
L 358.456651 -41.899898 
L 348.845167 -41.498533 
L 339.233684 -41.181047 
L 329.622201 -40.927333 
L 320.010718 -40.726371 
L 310.399234 -40.564201 
L 300.787751 -40.434252 
L 291.176268 -40.325995 
L 281.564785 -40.237254 
L 271.953301 -40.166453 
L 262.341818 -40.108771 
L 252.730335 -40.062474 
L 243.118852 -40.026072 
L 233.507368 -39.998255 
L 223.895885 -39.977809 
L 214.284402 -39.962834 
L 204.672919 -39.952343 
L 195.061435 -39.945115 
L 185.449952 -39.940356 
L 175.838469 -39.937271 
L 166.226986 -39.935385 
L 156.615502 -39.934307 
L 147.004019 -39.933744 
L 137.392536 -39.933496 
L 127.781053 -39.933411 
L 118.169569 -39.933392 
L 108.558086 -39.93339 
L 98.946603 -39.93339 
L 89.33512 -39.93339 
L 79.723636 -39.93339 
z
" id="m72c50ee1cb" style="stroke:#ffa500;stroke-opacity:0.2;"/>
    </defs>
    <g clip-path="url(#p82f3053cc2)">
     <use style="fill:#ffa500;fill-opacity:0.2;stroke:#ffa500;stroke-opacity:0.2;" x="0" xlink:href="#m72c50ee1cb" y="576"/>
    </g>
   </g>
   <g id="matplotlib.axis_3">
    <g id="xtick_6">
     <g id="line2d_18">
      <g>
       <use style="stroke:#000000;stroke-width:0.8;" x="214.284402" xlink:href="#m0679e07b15" y="547.2"/>
      </g>
     </g>
     <g id="text_14">
      <!-- 2020-03-01 -->
      <g transform="translate(185.226589 561.798437)scale(0.1 -0.1)">
       <use xlink:href="#DejaVuSans-50"/>
       <use x="63.623047" xlink:href="#DejaVuSans-48"/>
       <use x="127.246094" xlink:href="#DejaVuSans-50"/>
       <use x="190.869141" xlink:href="#DejaVuSans-48"/>
       <use x="254.492188" xlink:href="#DejaVuSans-45"/>
       <use x="290.576172" xlink:href="#DejaVuSans-48"/>
       <use x="354.199219" xlink:href="#DejaVuSans-51"/>
       <use x="417.822266" xlink:href="#DejaVuSans-45"/>
       <use x="453.90625" xlink:href="#DejaVuSans-48"/>
       <use x="517.529297" xlink:href="#DejaVuSans-49"/>
      </g>
     </g>
    </g>
    <g id="xtick_7">
     <g id="line2d_19">
      <g>
       <use style="stroke:#000000;stroke-width:0.8;" x="348.845167" xlink:href="#m0679e07b15" y="547.2"/>
      </g>
     </g>
     <g id="text_15">
      <!-- 2020-03-15 -->
      <g transform="translate(319.787355 561.798437)scale(0.1 -0.1)">
       <use xlink:href="#DejaVuSans-50"/>
       <use x="63.623047" xlink:href="#DejaVuSans-48"/>
       <use x="127.246094" xlink:href="#DejaVuSans-50"/>
       <use x="190.869141" xlink:href="#DejaVuSans-48"/>
       <use x="254.492188" xlink:href="#DejaVuSans-45"/>
       <use x="290.576172" xlink:href="#DejaVuSans-48"/>
       <use x="354.199219" xlink:href="#DejaVuSans-51"/>
       <use x="417.822266" xlink:href="#DejaVuSans-45"/>
       <use x="453.90625" xlink:href="#DejaVuSans-49"/>
       <use x="517.529297" xlink:href="#DejaVuSans-53"/>
      </g>
     </g>
    </g>
    <g id="xtick_8">
     <g id="line2d_20">
      <g>
       <use style="stroke:#000000;stroke-width:0.8;" x="512.240383" xlink:href="#m0679e07b15" y="547.2"/>
      </g>
     </g>
     <g id="text_16">
      <!-- 2020-04-01 -->
      <g transform="translate(483.18257 561.798437)scale(0.1 -0.1)">
       <use xlink:href="#DejaVuSans-50"/>
       <use x="63.623047" xlink:href="#DejaVuSans-48"/>
       <use x="127.246094" xlink:href="#DejaVuSans-50"/>
       <use x="190.869141" xlink:href="#DejaVuSans-48"/>
       <use x="254.492188" xlink:href="#DejaVuSans-45"/>
       <use x="290.576172" xlink:href="#DejaVuSans-48"/>
       <use x="354.199219" xlink:href="#DejaVuSans-52"/>
       <use x="417.822266" xlink:href="#DejaVuSans-45"/>
       <use x="453.90625" xlink:href="#DejaVuSans-48"/>
       <use x="517.529297" xlink:href="#DejaVuSans-49"/>
      </g>
     </g>
    </g>
    <g id="xtick_9">
     <g id="line2d_21">
      <g>
       <use style="stroke:#000000;stroke-width:0.8;" x="646.801148" xlink:href="#m0679e07b15" y="547.2"/>
      </g>
     </g>
     <g id="text_17">
      <!-- 2020-04-15 -->
      <g transform="translate(617.743336 561.798437)scale(0.1 -0.1)">
       <use xlink:href="#DejaVuSans-50"/>
       <use x="63.623047" xlink:href="#DejaVuSans-48"/>
       <use x="127.246094" xlink:href="#DejaVuSans-50"/>
       <use x="190.869141" xlink:href="#DejaVuSans-48"/>
       <use x="254.492188" xlink:href="#DejaVuSans-45"/>
       <use x="290.576172" xlink:href="#DejaVuSans-48"/>
       <use x="354.199219" xlink:href="#DejaVuSans-52"/>
       <use x="417.822266" xlink:href="#DejaVuSans-45"/>
       <use x="453.90625" xlink:href="#DejaVuSans-49"/>
       <use x="517.529297" xlink:href="#DejaVuSans-53"/>
      </g>
     </g>
    </g>
    <g id="xtick_10">
     <g id="line2d_22">
      <g>
       <use style="stroke:#000000;stroke-width:0.8;" x="800.58488" xlink:href="#m0679e07b15" y="547.2"/>
      </g>
     </g>
     <g id="text_18">
      <!-- 2020-05-01 -->
      <g transform="translate(771.527068 561.798437)scale(0.1 -0.1)">
       <use xlink:href="#DejaVuSans-50"/>
       <use x="63.623047" xlink:href="#DejaVuSans-48"/>
       <use x="127.246094" xlink:href="#DejaVuSans-50"/>
       <use x="190.869141" xlink:href="#DejaVuSans-48"/>
       <use x="254.492188" xlink:href="#DejaVuSans-45"/>
       <use x="290.576172" xlink:href="#DejaVuSans-48"/>
       <use x="354.199219" xlink:href="#DejaVuSans-53"/>
       <use x="417.822266" xlink:href="#DejaVuSans-45"/>
       <use x="453.90625" xlink:href="#DejaVuSans-48"/>
       <use x="517.529297" xlink:href="#DejaVuSans-49"/>
      </g>
     </g>
    </g>
   </g>
   <g id="matplotlib.axis_4">
    <g id="ytick_6">
     <g id="line2d_23">
      <g>
       <use style="stroke:#000000;stroke-width:0.8;" x="43.2" xlink:href="#m130bbd5068" y="536.06661"/>
      </g>
     </g>
     <g id="text_19">
      <!-- 0 -->
      <g transform="translate(29.8375 539.865829)scale(0.1 -0.1)">
       <use xlink:href="#DejaVuSans-48"/>
      </g>
     </g>
    </g>
    <g id="ytick_7">
     <g id="line2d_24">
      <g>
       <use style="stroke:#000000;stroke-width:0.8;" x="43.2" xlink:href="#m130bbd5068" y="482.987278"/>
      </g>
     </g>
     <g id="text_20">
      <!-- 200 -->
      <g transform="translate(17.1125 486.786496)scale(0.1 -0.1)">
       <use xlink:href="#DejaVuSans-50"/>
       <use x="63.623047" xlink:href="#DejaVuSans-48"/>
       <use x="127.246094" xlink:href="#DejaVuSans-48"/>
      </g>
     </g>
    </g>
    <g id="ytick_8">
     <g id="line2d_25">
      <g>
       <use style="stroke:#000000;stroke-width:0.8;" x="43.2" xlink:href="#m130bbd5068" y="429.907945"/>
      </g>
     </g>
     <g id="text_21">
      <!-- 400 -->
      <g transform="translate(17.1125 433.707164)scale(0.1 -0.1)">
       <use xlink:href="#DejaVuSans-52"/>
       <use x="63.623047" xlink:href="#DejaVuSans-48"/>
       <use x="127.246094" xlink:href="#DejaVuSans-48"/>
      </g>
     </g>
    </g>
    <g id="ytick_9">
     <g id="line2d_26">
      <g>
       <use style="stroke:#000000;stroke-width:0.8;" x="43.2" xlink:href="#m130bbd5068" y="376.828613"/>
      </g>
     </g>
     <g id="text_22">
      <!-- 600 -->
      <defs>
       <path d="M 33.015625 40.375 
Q 26.375 40.375 22.484375 35.828125 
Q 18.609375 31.296875 18.609375 23.390625 
Q 18.609375 15.53125 22.484375 10.953125 
Q 26.375 6.390625 33.015625 6.390625 
Q 39.65625 6.390625 43.53125 10.953125 
Q 47.40625 15.53125 47.40625 23.390625 
Q 47.40625 31.296875 43.53125 35.828125 
Q 39.65625 40.375 33.015625 40.375 
z
M 52.59375 71.296875 
L 52.59375 62.3125 
Q 48.875 64.0625 45.09375 64.984375 
Q 41.3125 65.921875 37.59375 65.921875 
Q 27.828125 65.921875 22.671875 59.328125 
Q 17.53125 52.734375 16.796875 39.40625 
Q 19.671875 43.65625 24.015625 45.921875 
Q 28.375 48.1875 33.59375 48.1875 
Q 44.578125 48.1875 50.953125 41.515625 
Q 57.328125 34.859375 57.328125 23.390625 
Q 57.328125 12.15625 50.6875 5.359375 
Q 44.046875 -1.421875 33.015625 -1.421875 
Q 20.359375 -1.421875 13.671875 8.265625 
Q 6.984375 17.96875 6.984375 36.375 
Q 6.984375 53.65625 15.1875 63.9375 
Q 23.390625 74.21875 37.203125 74.21875 
Q 40.921875 74.21875 44.703125 73.484375 
Q 48.484375 72.75 52.59375 71.296875 
z
" id="DejaVuSans-54"/>
      </defs>
      <g transform="translate(17.1125 380.627832)scale(0.1 -0.1)">
       <use xlink:href="#DejaVuSans-54"/>
       <use x="63.623047" xlink:href="#DejaVuSans-48"/>
       <use x="127.246094" xlink:href="#DejaVuSans-48"/>
      </g>
     </g>
    </g>
    <g id="ytick_10">
     <g id="line2d_27">
      <g>
       <use style="stroke:#000000;stroke-width:0.8;" x="43.2" xlink:href="#m130bbd5068" y="323.74928"/>
      </g>
     </g>
     <g id="text_23">
      <!-- 800 -->
      <defs>
       <path d="M 31.78125 34.625 
Q 24.75 34.625 20.71875 30.859375 
Q 16.703125 27.09375 16.703125 20.515625 
Q 16.703125 13.921875 20.71875 10.15625 
Q 24.75 6.390625 31.78125 6.390625 
Q 38.8125 6.390625 42.859375 10.171875 
Q 46.921875 13.96875 46.921875 20.515625 
Q 46.921875 27.09375 42.890625 30.859375 
Q 38.875 34.625 31.78125 34.625 
z
M 21.921875 38.8125 
Q 15.578125 40.375 12.03125 44.71875 
Q 8.5 49.078125 8.5 55.328125 
Q 8.5 64.0625 14.71875 69.140625 
Q 20.953125 74.21875 31.78125 74.21875 
Q 42.671875 74.21875 48.875 69.140625 
Q 55.078125 64.0625 55.078125 55.328125 
Q 55.078125 49.078125 51.53125 44.71875 
Q 48 40.375 41.703125 38.8125 
Q 48.828125 37.15625 52.796875 32.3125 
Q 56.78125 27.484375 56.78125 20.515625 
Q 56.78125 9.90625 50.3125 4.234375 
Q 43.84375 -1.421875 31.78125 -1.421875 
Q 19.734375 -1.421875 13.25 4.234375 
Q 6.78125 9.90625 6.78125 20.515625 
Q 6.78125 27.484375 10.78125 32.3125 
Q 14.796875 37.15625 21.921875 38.8125 
z
M 18.3125 54.390625 
Q 18.3125 48.734375 21.84375 45.5625 
Q 25.390625 42.390625 31.78125 42.390625 
Q 38.140625 42.390625 41.71875 45.5625 
Q 45.3125 48.734375 45.3125 54.390625 
Q 45.3125 60.0625 41.71875 63.234375 
Q 38.140625 66.40625 31.78125 66.40625 
Q 25.390625 66.40625 21.84375 63.234375 
Q 18.3125 60.0625 18.3125 54.390625 
z
" id="DejaVuSans-56"/>
      </defs>
      <g transform="translate(17.1125 327.548499)scale(0.1 -0.1)">
       <use xlink:href="#DejaVuSans-56"/>
       <use x="63.623047" xlink:href="#DejaVuSans-48"/>
       <use x="127.246094" xlink:href="#DejaVuSans-48"/>
      </g>
     </g>
    </g>
    <g id="text_24">
     <!-- cases per day -->
     <g transform="translate(11.032812 459.51396)rotate(-90)scale(0.1 -0.1)">
      <use xlink:href="#DejaVuSans-99"/>
      <use x="54.980469" xlink:href="#DejaVuSans-97"/>
      <use x="116.259766" xlink:href="#DejaVuSans-115"/>
      <use x="168.359375" xlink:href="#DejaVuSans-101"/>
      <use x="229.882812" xlink:href="#DejaVuSans-115"/>
      <use x="281.982422" xlink:href="#DejaVuSans-32"/>
      <use x="313.769531" xlink:href="#DejaVuSans-112"/>
      <use x="377.246094" xlink:href="#DejaVuSans-101"/>
      <use x="438.769531" xlink:href="#DejaVuSans-114"/>
      <use x="479.882812" xlink:href="#DejaVuSans-32"/>
      <use x="511.669922" xlink:href="#DejaVuSans-100"/>
      <use x="575.146484" xlink:href="#DejaVuSans-97"/>
      <use x="636.425781" xlink:href="#DejaVuSans-121"/>
     </g>
    </g>
   </g>
   <g id="line2d_28">
    <path clip-path="url(#p82f3053cc2)" d="M 435.348517 435.481275 
L 444.96 442.646985 
L 454.571483 395.671776 
L 464.182967 381.871149 
L 473.79445 360.639416 
L 483.405933 421.415252 
L 493.017416 385.852099 
L 502.6289 345.24641 
L 512.240383 334.630544 
L 521.851866 314.725794 
L 531.463349 313.398811 
L 541.074833 337.549907 
L 550.686316 337.815303 
L 560.297799 403.368279 
L 569.909282 356.658466 
L 579.520766 336.753717 
L 589.132249 326.13785 
L 598.743732 326.668644 
L 608.355215 375.767026 
L 617.966699 411.860972 
L 627.578182 423.273029 
L 637.189665 425.926995 
L 646.801148 365.15116 
L 656.412632 348.961963 
L 666.024115 364.885763 
L 675.635598 360.904813 
L 685.247081 422.476839 
L 694.858565 453.793645 
L 704.470048 428.580962 
L 714.081531 385.055909 
L 723.693014 403.368279 
L 733.304498 406.022246 
L 742.915981 427.253979 
L 752.527464 460.163165 
L 762.138947 493.603144 
L 771.750431 457.509198 
L 781.361914 440.523812 
L 790.973397 435.481275 
L 800.58488 411.330179 
L 810.196364 485.110451 
" style="fill:none;stroke:#00ffff;stroke-linecap:square;stroke-width:1.5;"/>
   </g>
   <g id="line2d_29">
    <path clip-path="url(#p82f3053cc2)" d="M 435.348517 426.689095 
L 444.96 413.878563 
L 454.571483 402.046657 
L 464.182967 390.519996 
L 473.79445 380.119473 
L 483.405933 371.560301 
L 493.017416 364.204291 
L 502.6289 358.345899 
L 512.240383 354.036119 
L 521.851866 350.966077 
L 531.463349 349.52031 
L 541.074833 349.454625 
L 550.686316 350.043085 
L 560.297799 351.498879 
L 569.909282 353.685551 
L 579.520766 356.448372 
L 589.132249 359.7507 
L 598.743732 363.540896 
L 608.355215 367.607861 
L 617.966699 372.202022 
L 627.578182 376.969702 
L 637.189665 381.841101 
L 646.801148 387.132074 
L 656.412632 392.711009 
L 666.024115 398.428182 
L 675.635598 404.178724 
L 685.247081 410.250547 
L 694.858565 415.994366 
L 704.470048 421.767943 
L 714.081531 427.478506 
L 723.693014 433.037015 
L 733.304498 438.547365 
L 742.915981 443.960151 
L 752.527464 449.133815 
L 762.138947 454.129003 
L 771.750431 458.861451 
L 781.361914 463.486981 
L 790.973397 467.822095 
L 800.58488 472.137796 
" style="fill:none;stroke:#008000;stroke-linecap:square;stroke-width:1.5;"/>
   </g>
   <g id="line2d_30">
    <path clip-path="url(#p82f3053cc2)" d="M 79.723636 536.06661 
L 89.33512 536.06661 
L 98.946603 536.06661 
L 108.558086 536.06661 
L 118.169569 536.06661 
L 127.781053 536.06661 
L 137.392536 536.06661 
L 147.004019 536.06661 
L 156.615502 536.06661 
L 166.226986 536.06661 
L 175.838469 536.06661 
L 185.449952 536.06661 
L 195.061435 536.06661 
L 204.672919 536.06661 
L 214.284402 536.06661 
L 223.895885 536.06661 
L 233.507368 536.06661 
L 243.118852 536.06661 
L 252.730335 536.06661 
L 262.341818 536.06661 
L 271.953301 536.06661 
L 281.564785 536.06661 
L 291.176268 536.06661 
L 300.787751 536.06661 
L 310.399234 535.801213 
L 320.010718 535.535817 
L 329.622201 536.06661 
L 339.233684 535.27042 
L 348.845167 535.005023 
L 358.456651 536.06661 
L 368.068134 536.06661 
L 377.679617 536.06661 
L 387.2911 533.943437 
L 396.902584 533.147247 
L 406.514067 531.820263 
L 416.12555 533.943437 
L 425.737033 527.839314 
L 435.348517 528.635503 
L 444.96 526.777727 
L 454.571483 523.062174 
L 464.182967 521.469794 
L 473.79445 516.95805 
L 483.405933 519.081224 
L 493.017416 518.55043 
L 502.6289 502.095837 
L 512.240383 496.522507 
L 521.851866 498.911077 
L 531.463349 497.584094 
L 541.074833 498.645681 
L 550.686316 487.233624 
L 560.297799 511.650117 
L 569.909282 490.152987 
L 579.520766 468.655858 
L 589.132249 470.779031 
L 598.743732 465.471098 
L 608.355215 490.683781 
L 617.966699 501.830441 
L 627.578182 502.626631 
L 637.189665 490.949177 
L 646.801148 460.428561 
L 656.412632 452.466661 
L 666.024115 456.713008 
L 675.635598 471.840618 
L 685.247081 487.233624 
L 694.858565 506.872977 
L 704.470048 484.579658 
L 714.081531 461.490148 
L 723.693014 479.006328 
L 733.304498 475.821568 
L 742.915981 488.560608 
L 752.527464 498.911077 
L 762.138947 506.872977 
L 771.750431 492.806954 
L 781.361914 482.456484 
L 790.973397 490.152987 
L 800.58488 484.845054 
" style="fill:none;stroke:#ff0000;stroke-linecap:square;stroke-width:1.5;"/>
   </g>
   <g id="line2d_31">
    <path clip-path="url(#p82f3053cc2)" d="M 79.723636 536.06661 
L 89.33512 536.06661 
L 98.946603 536.06661 
L 108.558086 536.06661 
L 118.169569 536.066608 
L 127.781053 536.066595 
L 137.392536 536.066533 
L 147.004019 536.066344 
L 156.615502 536.0659 
L 166.226986 536.065024 
L 175.838469 536.063471 
L 185.449952 536.060907 
L 195.061435 536.056894 
L 204.672919 536.050814 
L 214.284402 536.041914 
L 223.895885 536.029252 
L 233.507368 536.011641 
L 243.118852 535.987594 
L 252.730335 535.956084 
L 262.341818 535.915509 
L 271.953301 535.864195 
L 281.564785 535.80028 
L 291.176268 535.721651 
L 300.787751 535.624752 
L 310.399234 535.506157 
L 320.010718 535.359634 
L 329.622201 535.178511 
L 339.233684 534.954389 
L 348.845167 534.672686 
L 358.456651 534.320089 
L 368.068134 533.872122 
L 377.679617 533.315036 
L 387.2911 532.622269 
L 396.902584 531.774278 
L 406.514067 530.745867 
L 416.12555 529.512516 
L 425.737033 528.053447 
L 435.348517 526.362316 
L 444.96 524.40867 
L 454.571483 522.208708 
L 464.182967 519.799683 
L 473.79445 517.163057 
L 483.405933 514.343857 
L 493.017416 511.436349 
L 502.6289 508.375696 
L 512.240383 505.342953 
L 521.851866 502.234659 
L 531.463349 499.221984 
L 541.074833 496.343862 
L 550.686316 493.523998 
L 560.297799 491.049058 
L 569.909282 488.666311 
L 579.520766 486.534488 
L 589.132249 484.645642 
L 598.743732 483.035768 
L 608.355215 481.764653 
L 617.966699 480.70738 
L 627.578182 479.89651 
L 637.189665 479.304081 
L 646.801148 478.981836 
L 656.412632 478.962126 
L 666.024115 479.00943 
L 675.635598 479.272271 
L 685.247081 479.702633 
L 694.858565 480.368826 
L 704.470048 481.140901 
L 714.081531 482.078929 
L 723.693014 483.199337 
L 733.304498 484.346164 
L 742.915981 485.61755 
L 752.527464 486.997697 
L 762.138947 488.478773 
L 771.750431 489.93455 
L 781.361914 491.446634 
L 790.973397 493.040428 
L 800.58488 494.66039 
" style="fill:none;stroke:#ffa500;stroke-linecap:square;stroke-width:1.5;"/>
   </g>
   <g id="patch_9">
    <path d="M 43.2 547.2 
L 43.2 302.265421 
" style="fill:none;stroke:#000000;stroke-linecap:square;stroke-linejoin:miter;stroke-width:0.8;"/>
   </g>
   <g id="patch_10">
    <path d="M 846.72 547.2 
L 846.72 302.265421 
" style="fill:none;stroke:#000000;stroke-linecap:square;stroke-linejoin:miter;stroke-width:0.8;"/>
   </g>
   <g id="patch_11">
    <path d="M 43.2 547.2 
L 846.72 547.2 
" style="fill:none;stroke:#000000;stroke-linecap:square;stroke-linejoin:miter;stroke-width:0.8;"/>
   </g>
   <g id="patch_12">
    <path d="M 43.2 302.265421 
L 846.72 302.265421 
" style="fill:none;stroke:#000000;stroke-linecap:square;stroke-linejoin:miter;stroke-width:0.8;"/>
   </g>
   <g id="legend_2">
    <g id="patch_13">
     <path d="M 734.791875 339.621671 
L 839.72 339.621671 
Q 841.72 339.621671 841.72 337.621671 
L 841.72 309.265421 
Q 841.72 307.265421 839.72 307.265421 
L 734.791875 307.265421 
Q 732.791875 307.265421 732.791875 309.265421 
L 732.791875 337.621671 
Q 732.791875 339.621671 734.791875 339.621671 
z
" style="fill:#ffffff;opacity:0.8;stroke:#cccccc;stroke-linejoin:miter;"/>
    </g>
    <g id="line2d_32">
     <path d="M 736.791875 315.363858 
L 756.791875 315.363858 
" style="fill:none;stroke:#00ffff;stroke-linecap:square;stroke-width:1.5;"/>
    </g>
    <g id="line2d_33"/>
    <g id="text_25">
     <!-- hospitalization -->
     <defs>
      <path d="M 54.890625 33.015625 
L 54.890625 0 
L 45.90625 0 
L 45.90625 32.71875 
Q 45.90625 40.484375 42.875 44.328125 
Q 39.84375 48.1875 33.796875 48.1875 
Q 26.515625 48.1875 22.3125 43.546875 
Q 18.109375 38.921875 18.109375 30.90625 
L 18.109375 0 
L 9.078125 0 
L 9.078125 75.984375 
L 18.109375 75.984375 
L 18.109375 46.1875 
Q 21.34375 51.125 25.703125 53.5625 
Q 30.078125 56 35.796875 56 
Q 45.21875 56 50.046875 50.171875 
Q 54.890625 44.34375 54.890625 33.015625 
z
" id="DejaVuSans-104"/>
      <path d="M 9.421875 75.984375 
L 18.40625 75.984375 
L 18.40625 0 
L 9.421875 0 
z
" id="DejaVuSans-108"/>
      <path d="M 5.515625 54.6875 
L 48.1875 54.6875 
L 48.1875 46.484375 
L 14.40625 7.171875 
L 48.1875 7.171875 
L 48.1875 0 
L 4.296875 0 
L 4.296875 8.203125 
L 38.09375 47.515625 
L 5.515625 47.515625 
z
" id="DejaVuSans-122"/>
      <path d="M 54.890625 33.015625 
L 54.890625 0 
L 45.90625 0 
L 45.90625 32.71875 
Q 45.90625 40.484375 42.875 44.328125 
Q 39.84375 48.1875 33.796875 48.1875 
Q 26.515625 48.1875 22.3125 43.546875 
Q 18.109375 38.921875 18.109375 30.90625 
L 18.109375 0 
L 9.078125 0 
L 9.078125 54.6875 
L 18.109375 54.6875 
L 18.109375 46.1875 
Q 21.34375 51.125 25.703125 53.5625 
Q 30.078125 56 35.796875 56 
Q 45.21875 56 50.046875 50.171875 
Q 54.890625 44.34375 54.890625 33.015625 
z
" id="DejaVuSans-110"/>
     </defs>
     <g transform="translate(764.791875 318.863858)scale(0.1 -0.1)">
      <use xlink:href="#DejaVuSans-104"/>
      <use x="63.378906" xlink:href="#DejaVuSans-111"/>
      <use x="124.560547" xlink:href="#DejaVuSans-115"/>
      <use x="176.660156" xlink:href="#DejaVuSans-112"/>
      <use x="240.136719" xlink:href="#DejaVuSans-105"/>
      <use x="267.919922" xlink:href="#DejaVuSans-116"/>
      <use x="307.128906" xlink:href="#DejaVuSans-97"/>
      <use x="368.408203" xlink:href="#DejaVuSans-108"/>
      <use x="396.191406" xlink:href="#DejaVuSans-105"/>
      <use x="423.974609" xlink:href="#DejaVuSans-122"/>
      <use x="476.464844" xlink:href="#DejaVuSans-97"/>
      <use x="537.744141" xlink:href="#DejaVuSans-116"/>
      <use x="576.953125" xlink:href="#DejaVuSans-105"/>
      <use x="604.736328" xlink:href="#DejaVuSans-111"/>
      <use x="665.917969" xlink:href="#DejaVuSans-110"/>
     </g>
    </g>
    <g id="line2d_34">
     <path d="M 736.791875 330.041983 
L 756.791875 330.041983 
" style="fill:none;stroke:#ff0000;stroke-linecap:square;stroke-width:1.5;"/>
    </g>
    <g id="line2d_35"/>
    <g id="text_26">
     <!-- deaths -->
     <g transform="translate(764.791875 333.541983)scale(0.1 -0.1)">
      <use xlink:href="#DejaVuSans-100"/>
      <use x="63.476562" xlink:href="#DejaVuSans-101"/>
      <use x="125" xlink:href="#DejaVuSans-97"/>
      <use x="186.279297" xlink:href="#DejaVuSans-116"/>
      <use x="225.488281" xlink:href="#DejaVuSans-104"/>
      <use x="288.867188" xlink:href="#DejaVuSans-115"/>
     </g>
    </g>
   </g>
  </g>
  <g id="axes_3">
   <g id="patch_14">
    <path d="M 95.04 489.6 
L 328.32 489.6 
L 328.32 334.08 
L 95.04 334.08 
z
" style="fill:#ffffff;"/>
   </g>
   <g id="PolyCollection_4">
    <defs>
     <path d="M 105.643636 -233.703401 
L 105.643636 -195.147729 
L 108.471273 -196.351361 
L 111.298909 -196.741185 
L 114.126545 -197.199538 
L 116.954182 -196.868507 
L 119.781818 -199.313708 
L 122.609455 -200.201695 
L 125.437091 -201.834305 
L 128.264727 -202.604771 
L 131.092364 -203.740784 
L 133.92 -204.851211 
L 136.747636 -205.665222 
L 139.575273 -205.729111 
L 142.402909 -206.093408 
L 145.230545 -205.736853 
L 148.058182 -205.624015 
L 150.885818 -204.74665 
L 153.713455 -205.112018 
L 156.541091 -204.314067 
L 159.368727 -204.194844 
L 162.196364 -203.450463 
L 165.024 -202.419973 
L 167.851636 -201.088535 
L 170.679273 -199.710791 
L 173.506909 -197.123287 
L 176.334545 -192.404276 
L 179.162182 -186.885243 
L 181.989818 -179.813526 
L 184.817455 -172.34844 
L 187.645091 -164.394392 
L 190.472727 -154.66676 
L 193.300364 -144.360407 
L 196.128 -133.992801 
L 198.955636 -126.973055 
L 201.783273 -118.138149 
L 204.610909 -112.200559 
L 207.438545 -110.565585 
L 210.266182 -105.854147 
L 213.093818 -104.300744 
L 215.921455 -102.049345 
L 218.749091 -102.091015 
L 221.576727 -101.293702 
L 224.404364 -101.019501 
L 227.232 -104.097468 
L 230.059636 -103.624656 
L 232.887273 -105.289781 
L 235.714909 -105.318199 
L 238.542545 -105.094615 
L 241.370182 -102.181601 
L 244.197818 -100.410956 
L 247.025455 -102.39216 
L 249.853091 -102.139771 
L 252.680727 -100.617164 
L 255.508364 -99.284248 
L 258.336 -95.957444 
L 261.163636 -94.164994 
L 263.991273 -94.433688 
L 266.818909 -95.089368 
L 269.646545 -96.412874 
L 272.474182 -96.212303 
L 275.301818 -95.670812 
L 278.129455 -95.798159 
L 280.957091 -94.807003 
L 283.784727 -94.404509 
L 286.612364 -95.478185 
L 289.44 -94.416502 
L 292.267636 -94.423705 
L 295.095273 -93.893013 
L 297.922909 -93.537936 
L 300.750545 -93.485181 
L 303.578182 -93.469091 
L 306.405818 -94.634172 
L 309.233455 -96.409641 
L 312.061091 -97.335869 
L 314.888727 -96.98759 
L 317.716364 -96.653984 
L 317.716364 -124.889498 
L 317.716364 -124.889498 
L 314.888727 -122.738379 
L 312.061091 -120.614234 
L 309.233455 -117.655427 
L 306.405818 -114.075536 
L 303.578182 -111.469689 
L 300.750545 -109.367001 
L 297.922909 -108.277062 
L 295.095273 -107.194164 
L 292.267636 -106.791404 
L 289.44 -105.876848 
L 286.612364 -105.959157 
L 283.784727 -105.579413 
L 280.957091 -105.73842 
L 278.129455 -105.898571 
L 275.301818 -106.123752 
L 272.474182 -106.138153 
L 269.646545 -106.379707 
L 266.818909 -105.105003 
L 263.991273 -105.041041 
L 261.163636 -104.959585 
L 258.336 -106.490352 
L 255.508364 -108.638325 
L 252.680727 -110.039705 
L 249.853091 -111.5792 
L 247.025455 -113.186531 
L 244.197818 -111.382433 
L 241.370182 -112.798649 
L 238.542545 -115.072779 
L 235.714909 -115.294274 
L 232.887273 -115.434979 
L 230.059636 -113.852301 
L 227.232 -115.356461 
L 224.404364 -113.144264 
L 221.576727 -111.694672 
L 218.749091 -112.200002 
L 215.921455 -112.983547 
L 213.093818 -114.872233 
L 210.266182 -117.273932 
L 207.438545 -122.536883 
L 204.610909 -125.607564 
L 201.783273 -131.843011 
L 198.955636 -139.678984 
L 196.128 -148.159635 
L 193.300364 -158.248647 
L 190.472727 -168.570678 
L 187.645091 -178.593789 
L 184.817455 -187.587289 
L 181.989818 -196.843729 
L 179.162182 -205.376776 
L 176.334545 -211.662503 
L 173.506909 -216.813671 
L 170.679273 -220.670758 
L 167.851636 -222.148833 
L 165.024 -223.851607 
L 162.196364 -225.594051 
L 159.368727 -226.63815 
L 156.541091 -227.928783 
L 153.713455 -228.869361 
L 150.885818 -228.712888 
L 148.058182 -228.845104 
L 145.230545 -229.515429 
L 142.402909 -229.390682 
L 139.575273 -229.081075 
L 136.747636 -229.773726 
L 133.92 -230.560659 
L 131.092364 -231.065649 
L 128.264727 -231.112395 
L 125.437091 -231.346077 
L 122.609455 -231.922196 
L 119.781818 -232.287599 
L 116.954182 -233.759233 
L 114.126545 -233.753807 
L 111.298909 -233.158525 
L 108.471273 -234.850909 
L 105.643636 -233.703401 
z
" id="mfc2afab6d0" style="stroke:#0000ff;stroke-opacity:0.1;"/>
    </defs>
    <g clip-path="url(#pf6136a3b08)">
     <use style="fill:#0000ff;fill-opacity:0.1;stroke:#0000ff;stroke-opacity:0.1;" x="0" xlink:href="#mfc2afab6d0" y="576"/>
    </g>
   </g>
   <g id="matplotlib.axis_5">
    <g id="xtick_11">
     <g id="line2d_36">
      <g>
       <use style="stroke:#000000;stroke-width:0.8;" x="145.230545" xlink:href="#m0679e07b15" y="489.6"/>
      </g>
     </g>
     <g id="text_27">
      <!-- 2020-03-01 -->
      <g transform="translate(89.908426 523.61691)rotate(-20)scale(0.1 -0.1)">
       <use xlink:href="#DejaVuSans-50"/>
       <use x="63.623047" xlink:href="#DejaVuSans-48"/>
       <use x="127.246094" xlink:href="#DejaVuSans-50"/>
       <use x="190.869141" xlink:href="#DejaVuSans-48"/>
       <use x="254.492188" xlink:href="#DejaVuSans-45"/>
       <use x="290.576172" xlink:href="#DejaVuSans-48"/>
       <use x="354.199219" xlink:href="#DejaVuSans-51"/>
       <use x="417.822266" xlink:href="#DejaVuSans-45"/>
       <use x="453.90625" xlink:href="#DejaVuSans-48"/>
       <use x="517.529297" xlink:href="#DejaVuSans-49"/>
      </g>
     </g>
    </g>
    <g id="xtick_12">
     <g id="line2d_37">
      <g>
       <use style="stroke:#000000;stroke-width:0.8;" x="184.817455" xlink:href="#m0679e07b15" y="489.6"/>
      </g>
     </g>
     <g id="text_28">
      <!-- 2020-03-15 -->
      <g transform="translate(129.495336 523.61691)rotate(-20)scale(0.1 -0.1)">
       <use xlink:href="#DejaVuSans-50"/>
       <use x="63.623047" xlink:href="#DejaVuSans-48"/>
       <use x="127.246094" xlink:href="#DejaVuSans-50"/>
       <use x="190.869141" xlink:href="#DejaVuSans-48"/>
       <use x="254.492188" xlink:href="#DejaVuSans-45"/>
       <use x="290.576172" xlink:href="#DejaVuSans-48"/>
       <use x="354.199219" xlink:href="#DejaVuSans-51"/>
       <use x="417.822266" xlink:href="#DejaVuSans-45"/>
       <use x="453.90625" xlink:href="#DejaVuSans-49"/>
       <use x="517.529297" xlink:href="#DejaVuSans-53"/>
      </g>
     </g>
    </g>
    <g id="xtick_13">
     <g id="line2d_38">
      <g>
       <use style="stroke:#000000;stroke-width:0.8;" x="232.887273" xlink:href="#m0679e07b15" y="489.6"/>
      </g>
     </g>
     <g id="text_29">
      <!-- 2020-04-01 -->
      <g transform="translate(177.565154 523.61691)rotate(-20)scale(0.1 -0.1)">
       <use xlink:href="#DejaVuSans-50"/>
       <use x="63.623047" xlink:href="#DejaVuSans-48"/>
       <use x="127.246094" xlink:href="#DejaVuSans-50"/>
       <use x="190.869141" xlink:href="#DejaVuSans-48"/>
       <use x="254.492188" xlink:href="#DejaVuSans-45"/>
       <use x="290.576172" xlink:href="#DejaVuSans-48"/>
       <use x="354.199219" xlink:href="#DejaVuSans-52"/>
       <use x="417.822266" xlink:href="#DejaVuSans-45"/>
       <use x="453.90625" xlink:href="#DejaVuSans-48"/>
       <use x="517.529297" xlink:href="#DejaVuSans-49"/>
      </g>
     </g>
    </g>
    <g id="xtick_14">
     <g id="line2d_39">
      <g>
       <use style="stroke:#000000;stroke-width:0.8;" x="272.474182" xlink:href="#m0679e07b15" y="489.6"/>
      </g>
     </g>
     <g id="text_30">
      <!-- 2020-04-15 -->
      <g transform="translate(217.152063 523.61691)rotate(-20)scale(0.1 -0.1)">
       <use xlink:href="#DejaVuSans-50"/>
       <use x="63.623047" xlink:href="#DejaVuSans-48"/>
       <use x="127.246094" xlink:href="#DejaVuSans-50"/>
       <use x="190.869141" xlink:href="#DejaVuSans-48"/>
       <use x="254.492188" xlink:href="#DejaVuSans-45"/>
       <use x="290.576172" xlink:href="#DejaVuSans-48"/>
       <use x="354.199219" xlink:href="#DejaVuSans-52"/>
       <use x="417.822266" xlink:href="#DejaVuSans-45"/>
       <use x="453.90625" xlink:href="#DejaVuSans-49"/>
       <use x="517.529297" xlink:href="#DejaVuSans-53"/>
      </g>
     </g>
    </g>
    <g id="xtick_15">
     <g id="line2d_40">
      <g>
       <use style="stroke:#000000;stroke-width:0.8;" x="317.716364" xlink:href="#m0679e07b15" y="489.6"/>
      </g>
     </g>
     <g id="text_31">
      <!-- 2020-05-01 -->
      <g transform="translate(262.394245 523.61691)rotate(-20)scale(0.1 -0.1)">
       <use xlink:href="#DejaVuSans-50"/>
       <use x="63.623047" xlink:href="#DejaVuSans-48"/>
       <use x="127.246094" xlink:href="#DejaVuSans-50"/>
       <use x="190.869141" xlink:href="#DejaVuSans-48"/>
       <use x="254.492188" xlink:href="#DejaVuSans-45"/>
       <use x="290.576172" xlink:href="#DejaVuSans-48"/>
       <use x="354.199219" xlink:href="#DejaVuSans-53"/>
       <use x="417.822266" xlink:href="#DejaVuSans-45"/>
       <use x="453.90625" xlink:href="#DejaVuSans-48"/>
       <use x="517.529297" xlink:href="#DejaVuSans-49"/>
      </g>
     </g>
    </g>
   </g>
   <g id="matplotlib.axis_6">
    <g id="ytick_11">
     <g id="line2d_41">
      <g>
       <use style="stroke:#000000;stroke-width:0.8;" x="95.04" xlink:href="#m130bbd5068" y="448.316577"/>
      </g>
     </g>
     <g id="text_32">
      <!-- 1.0 -->
      <defs>
       <path d="M 10.6875 12.40625 
L 21 12.40625 
L 21 0 
L 10.6875 0 
z
" id="DejaVuSans-46"/>
      </defs>
      <g transform="translate(72.136875 452.115796)scale(0.1 -0.1)">
       <use xlink:href="#DejaVuSans-49"/>
       <use x="63.623047" xlink:href="#DejaVuSans-46"/>
       <use x="95.410156" xlink:href="#DejaVuSans-48"/>
      </g>
     </g>
    </g>
    <g id="ytick_12">
     <g id="line2d_42">
      <g>
       <use style="stroke:#000000;stroke-width:0.8;" x="95.04" xlink:href="#m130bbd5068" y="406.756232"/>
      </g>
     </g>
     <g id="text_33">
      <!-- 1.5 -->
      <g transform="translate(72.136875 410.55545)scale(0.1 -0.1)">
       <use xlink:href="#DejaVuSans-49"/>
       <use x="63.623047" xlink:href="#DejaVuSans-46"/>
       <use x="95.410156" xlink:href="#DejaVuSans-53"/>
      </g>
     </g>
    </g>
    <g id="ytick_13">
     <g id="line2d_43">
      <g>
       <use style="stroke:#000000;stroke-width:0.8;" x="95.04" xlink:href="#m130bbd5068" y="365.195886"/>
      </g>
     </g>
     <g id="text_34">
      <!-- 2.0 -->
      <g transform="translate(72.136875 368.995105)scale(0.1 -0.1)">
       <use xlink:href="#DejaVuSans-50"/>
       <use x="63.623047" xlink:href="#DejaVuSans-46"/>
       <use x="95.410156" xlink:href="#DejaVuSans-48"/>
      </g>
     </g>
    </g>
   </g>
   <g id="line2d_44">
    <path clip-path="url(#pf6136a3b08)" d="M 105.643636 361.423141 
L 108.471273 360.907832 
L 111.298909 361.235574 
L 114.126545 360.970656 
L 116.954182 360.193718 
L 119.781818 359.853735 
L 122.609455 360.163467 
L 125.437091 359.864521 
L 128.264727 360.300103 
L 131.092364 359.015085 
L 133.92 359.457307 
L 136.747636 358.570986 
L 139.575273 359.039214 
L 142.402909 359.19789 
L 145.230545 360.054754 
L 148.058182 359.550701 
L 150.885818 360.73256 
L 153.713455 360.800009 
L 156.541091 360.833947 
L 159.368727 361.508782 
L 162.196364 362.095455 
L 165.024 362.325046 
L 167.851636 363.131457 
L 170.679273 365.271224 
L 173.506909 368.996973 
L 176.334545 374.02565 
L 179.162182 380.248993 
L 181.989818 387.816462 
L 184.817455 396.24435 
L 187.645091 404.198084 
L 190.472727 414.67337 
L 193.300364 424.824038 
L 196.128 434.729781 
L 198.955636 442.517941 
L 201.783273 451.052469 
L 204.610909 456.796161 
L 207.438545 459.425686 
L 210.266182 464.545623 
L 213.093818 466.884873 
L 215.921455 468.876125 
L 218.749091 468.823762 
L 221.576727 469.544586 
L 224.404364 468.941356 
L 227.232 466.27884 
L 230.059636 467.463097 
L 232.887273 465.320168 
L 235.714909 465.781659 
L 238.542545 465.956863 
L 241.370182 469.086384 
L 244.197818 469.824971 
L 247.025455 468.454294 
L 249.853091 469.481821 
L 252.680727 470.582705 
L 255.508364 472.007824 
L 258.336 474.665428 
L 261.163636 476.265371 
L 263.991273 476.686265 
L 266.818909 475.888363 
L 269.646545 474.90392 
L 272.474182 474.889181 
L 275.301818 474.818696 
L 278.129455 474.93684 
L 280.957091 475.510221 
L 283.784727 476.487 
L 286.612364 475.128964 
L 289.44 475.706472 
L 292.267636 475.950473 
L 295.095273 475.318193 
L 297.922909 475.014777 
L 300.750545 475.529487 
L 303.578182 473.88302 
L 306.405818 472.446153 
L 309.233455 469.757506 
L 312.061091 467.150189 
L 314.888727 465.652852 
L 317.716364 465.969883 
" style="fill:none;stroke:#1f77b4;stroke-linecap:square;stroke-width:1.5;"/>
   </g>
   <g id="patch_15">
    <path d="M 95.04 489.6 
L 95.04 334.08 
" style="fill:none;stroke:#000000;stroke-linecap:square;stroke-linejoin:miter;stroke-width:0.8;"/>
   </g>
   <g id="patch_16">
    <path d="M 328.32 489.6 
L 328.32 334.08 
" style="fill:none;stroke:#000000;stroke-linecap:square;stroke-linejoin:miter;stroke-width:0.8;"/>
   </g>
   <g id="patch_17">
    <path d="M 95.04 489.6 
L 328.32 489.6 
" style="fill:none;stroke:#000000;stroke-linecap:square;stroke-linejoin:miter;stroke-width:0.8;"/>
   </g>
   <g id="patch_18">
    <path d="M 95.04 334.08 
L 328.32 334.08 
" style="fill:none;stroke:#000000;stroke-linecap:square;stroke-linejoin:miter;stroke-width:0.8;"/>
   </g>
   <g id="text_35">
    <!-- R_eff -->
    <defs>
     <path d="M 44.390625 34.1875 
Q 47.5625 33.109375 50.5625 29.59375 
Q 53.5625 26.078125 56.59375 19.921875 
L 66.609375 0 
L 56 0 
L 46.6875 18.703125 
Q 43.0625 26.03125 39.671875 28.421875 
Q 36.28125 30.8125 30.421875 30.8125 
L 19.671875 30.8125 
L 19.671875 0 
L 9.8125 0 
L 9.8125 72.90625 
L 32.078125 72.90625 
Q 44.578125 72.90625 50.734375 67.671875 
Q 56.890625 62.453125 56.890625 51.90625 
Q 56.890625 45.015625 53.6875 40.46875 
Q 50.484375 35.9375 44.390625 34.1875 
z
M 19.671875 64.796875 
L 19.671875 38.921875 
L 32.078125 38.921875 
Q 39.203125 38.921875 42.84375 42.21875 
Q 46.484375 45.515625 46.484375 51.90625 
Q 46.484375 58.296875 42.84375 61.546875 
Q 39.203125 64.796875 32.078125 64.796875 
z
" id="DejaVuSans-82"/>
     <path d="M 50.984375 -16.609375 
L 50.984375 -23.578125 
L -0.984375 -23.578125 
L -0.984375 -16.609375 
z
" id="DejaVuSans-95"/>
     <path d="M 37.109375 75.984375 
L 37.109375 68.5 
L 28.515625 68.5 
Q 23.6875 68.5 21.796875 66.546875 
Q 19.921875 64.59375 19.921875 59.515625 
L 19.921875 54.6875 
L 34.71875 54.6875 
L 34.71875 47.703125 
L 19.921875 47.703125 
L 19.921875 0 
L 10.890625 0 
L 10.890625 47.703125 
L 2.296875 47.703125 
L 2.296875 54.6875 
L 10.890625 54.6875 
L 10.890625 58.5 
Q 10.890625 67.625 15.140625 71.796875 
Q 19.390625 75.984375 28.609375 75.984375 
z
" id="DejaVuSans-102"/>
    </defs>
    <g transform="translate(196.594688 328.08)scale(0.12 -0.12)">
     <use xlink:href="#DejaVuSans-82"/>
     <use x="69.482422" xlink:href="#DejaVuSans-95"/>
     <use x="119.482422" xlink:href="#DejaVuSans-101"/>
     <use x="181.005859" xlink:href="#DejaVuSans-102"/>
     <use x="216.210938" xlink:href="#DejaVuSans-102"/>
    </g>
   </g>
  </g>
  <g id="text_36">
   <!-- Estimates for (known!) EpiCurve, hospitalization and deaths -->
   <defs>
    <path d="M 31 75.875 
Q 24.46875 64.65625 21.28125 53.65625 
Q 18.109375 42.671875 18.109375 31.390625 
Q 18.109375 20.125 21.3125 9.0625 
Q 24.515625 -2 31 -13.1875 
L 23.1875 -13.1875 
Q 15.875 -1.703125 12.234375 9.375 
Q 8.59375 20.453125 8.59375 31.390625 
Q 8.59375 42.28125 12.203125 53.3125 
Q 15.828125 64.359375 23.1875 75.875 
z
" id="DejaVuSans-40"/>
    <path d="M 9.078125 75.984375 
L 18.109375 75.984375 
L 18.109375 31.109375 
L 44.921875 54.6875 
L 56.390625 54.6875 
L 27.390625 29.109375 
L 57.625 0 
L 45.90625 0 
L 18.109375 26.703125 
L 18.109375 0 
L 9.078125 0 
z
" id="DejaVuSans-107"/>
    <path d="M 4.203125 54.6875 
L 13.1875 54.6875 
L 24.421875 12.015625 
L 35.59375 54.6875 
L 46.1875 54.6875 
L 57.421875 12.015625 
L 68.609375 54.6875 
L 77.59375 54.6875 
L 63.28125 0 
L 52.6875 0 
L 40.921875 44.828125 
L 29.109375 0 
L 18.5 0 
z
" id="DejaVuSans-119"/>
    <path d="M 15.09375 12.40625 
L 25 12.40625 
L 25 0 
L 15.09375 0 
z
M 15.09375 72.90625 
L 25 72.90625 
L 25 40.921875 
L 24.03125 23.484375 
L 16.109375 23.484375 
L 15.09375 40.921875 
z
" id="DejaVuSans-33"/>
    <path d="M 8.015625 75.875 
L 15.828125 75.875 
Q 23.140625 64.359375 26.78125 53.3125 
Q 30.421875 42.28125 30.421875 31.390625 
Q 30.421875 20.453125 26.78125 9.375 
Q 23.140625 -1.703125 15.828125 -13.1875 
L 8.015625 -13.1875 
Q 14.5 -2 17.703125 9.0625 
Q 20.90625 20.125 20.90625 31.390625 
Q 20.90625 42.671875 17.703125 53.65625 
Q 14.5 64.65625 8.015625 75.875 
z
" id="DejaVuSans-41"/>
    <path d="M 11.71875 12.40625 
L 22.015625 12.40625 
L 22.015625 4 
L 14.015625 -11.625 
L 7.71875 -11.625 
L 11.71875 4 
z
" id="DejaVuSans-44"/>
   </defs>
   <g transform="translate(251.5575 20.638125)scale(0.12 -0.12)">
    <use xlink:href="#DejaVuSans-69"/>
    <use x="63.183594" xlink:href="#DejaVuSans-115"/>
    <use x="115.283203" xlink:href="#DejaVuSans-116"/>
    <use x="154.492188" xlink:href="#DejaVuSans-105"/>
    <use x="182.275391" xlink:href="#DejaVuSans-109"/>
    <use x="279.6875" xlink:href="#DejaVuSans-97"/>
    <use x="340.966797" xlink:href="#DejaVuSans-116"/>
    <use x="380.175781" xlink:href="#DejaVuSans-101"/>
    <use x="441.699219" xlink:href="#DejaVuSans-115"/>
    <use x="493.798828" xlink:href="#DejaVuSans-32"/>
    <use x="525.585938" xlink:href="#DejaVuSans-102"/>
    <use x="560.791016" xlink:href="#DejaVuSans-111"/>
    <use x="621.972656" xlink:href="#DejaVuSans-114"/>
    <use x="663.085938" xlink:href="#DejaVuSans-32"/>
    <use x="694.873047" xlink:href="#DejaVuSans-40"/>
    <use x="733.886719" xlink:href="#DejaVuSans-107"/>
    <use x="791.796875" xlink:href="#DejaVuSans-110"/>
    <use x="855.175781" xlink:href="#DejaVuSans-111"/>
    <use x="916.357422" xlink:href="#DejaVuSans-119"/>
    <use x="998.144531" xlink:href="#DejaVuSans-110"/>
    <use x="1061.523438" xlink:href="#DejaVuSans-33"/>
    <use x="1101.611328" xlink:href="#DejaVuSans-41"/>
    <use x="1140.625" xlink:href="#DejaVuSans-32"/>
    <use x="1172.412109" xlink:href="#DejaVuSans-69"/>
    <use x="1235.595703" xlink:href="#DejaVuSans-112"/>
    <use x="1299.072266" xlink:href="#DejaVuSans-105"/>
    <use x="1326.855469" xlink:href="#DejaVuSans-67"/>
    <use x="1396.679688" xlink:href="#DejaVuSans-117"/>
    <use x="1460.058594" xlink:href="#DejaVuSans-114"/>
    <use x="1501.171875" xlink:href="#DejaVuSans-118"/>
    <use x="1560.351562" xlink:href="#DejaVuSans-101"/>
    <use x="1621.875" xlink:href="#DejaVuSans-44"/>
    <use x="1653.662109" xlink:href="#DejaVuSans-32"/>
    <use x="1685.449219" xlink:href="#DejaVuSans-104"/>
    <use x="1748.828125" xlink:href="#DejaVuSans-111"/>
    <use x="1810.009766" xlink:href="#DejaVuSans-115"/>
    <use x="1862.109375" xlink:href="#DejaVuSans-112"/>
    <use x="1925.585938" xlink:href="#DejaVuSans-105"/>
    <use x="1953.369141" xlink:href="#DejaVuSans-116"/>
    <use x="1992.578125" xlink:href="#DejaVuSans-97"/>
    <use x="2053.857422" xlink:href="#DejaVuSans-108"/>
    <use x="2081.640625" xlink:href="#DejaVuSans-105"/>
    <use x="2109.423828" xlink:href="#DejaVuSans-122"/>
    <use x="2161.914062" xlink:href="#DejaVuSans-97"/>
    <use x="2223.193359" xlink:href="#DejaVuSans-116"/>
    <use x="2262.402344" xlink:href="#DejaVuSans-105"/>
    <use x="2290.185547" xlink:href="#DejaVuSans-111"/>
    <use x="2351.367188" xlink:href="#DejaVuSans-110"/>
    <use x="2414.746094" xlink:href="#DejaVuSans-32"/>
    <use x="2446.533203" xlink:href="#DejaVuSans-97"/>
    <use x="2507.8125" xlink:href="#DejaVuSans-110"/>
    <use x="2571.191406" xlink:href="#DejaVuSans-100"/>
    <use x="2634.667969" xlink:href="#DejaVuSans-32"/>
    <use x="2666.455078" xlink:href="#DejaVuSans-100"/>
    <use x="2729.931641" xlink:href="#DejaVuSans-101"/>
    <use x="2791.455078" xlink:href="#DejaVuSans-97"/>
    <use x="2852.734375" xlink:href="#DejaVuSans-116"/>
    <use x="2891.943359" xlink:href="#DejaVuSans-104"/>
    <use x="2955.322266" xlink:href="#DejaVuSans-115"/>
   </g>
  </g>
 </g>
 <defs>
  <clipPath id="p47215ed8f9">
   <rect height="244.934579" width="803.52" x="43.2" y="23.04"/>
  </clipPath>
  <clipPath id="p82f3053cc2">
   <rect height="244.934579" width="803.52" x="43.2" y="302.265421"/>
  </clipPath>
  <clipPath id="pf6136a3b08">
   <rect height="155.52" width="233.28" x="95.04" y="334.08"/>
  </clipPath>
 </defs>
</svg>
