<?xml version="1.0" encoding="utf-8" standalone="no"?>
<!DOCTYPE svg PUBLIC "-//W3C//DTD SVG 1.1//EN"
  "http://www.w3.org/Graphics/SVG/1.1/DTD/svg11.dtd">
<!-- Created with matplotlib (https://matplotlib.org/) -->
<svg height="864pt" version="1.1" viewBox="0 0 576 864" width="576pt" xmlns="http://www.w3.org/2000/svg" xmlns:xlink="http://www.w3.org/1999/xlink">
 <defs>
  <style type="text/css">
*{stroke-linecap:butt;stroke-linejoin:round;}
  </style>
 </defs>
 <g id="figure_1">
  <g id="patch_1">
   <path d="M 0 864 
L 576 864 
L 576 0 
L 0 0 
z
" style="fill:#ffffff;"/>
  </g>
  <g id="axes_1">
   <g id="patch_2">
    <path d="M 28.8 268.56 
L 277.953488 268.56 
L 277.953488 34.56 
L 28.8 34.56 
z
" style="fill:#ffffff;"/>
   </g>
   <g id="patch_3">
    <path clip-path="url(#p4177a66425)" d="M 40.125159 268.56 
L 47.675264 268.56 
L 47.675264 252.920902 
L 40.125159 252.920902 
z
" style="fill:#1f77b4;"/>
   </g>
   <g id="patch_4">
    <path clip-path="url(#p4177a66425)" d="M 47.675264 268.56 
L 55.22537 268.56 
L 55.22537 260.740451 
L 47.675264 260.740451 
z
" style="fill:#1f77b4;"/>
   </g>
   <g id="patch_5">
    <path clip-path="url(#p4177a66425)" d="M 55.22537 268.56 
L 62.775476 268.56 
L 62.775476 252.920902 
L 55.22537 252.920902 
z
" style="fill:#1f77b4;"/>
   </g>
   <g id="patch_6">
    <path clip-path="url(#p4177a66425)" d="M 62.775476 268.56 
L 70.325581 268.56 
L 70.325581 241.191579 
L 62.775476 241.191579 
z
" style="fill:#1f77b4;"/>
   </g>
   <g id="patch_7">
    <path clip-path="url(#p4177a66425)" d="M 70.325581 268.56 
L 77.875687 268.56 
L 77.875687 245.101353 
L 70.325581 245.101353 
z
" style="fill:#1f77b4;"/>
   </g>
   <g id="patch_8">
    <path clip-path="url(#p4177a66425)" d="M 77.875687 268.56 
L 85.425793 268.56 
L 85.425793 237.281805 
L 77.875687 237.281805 
z
" style="fill:#1f77b4;"/>
   </g>
   <g id="patch_9">
    <path clip-path="url(#p4177a66425)" d="M 85.425793 268.56 
L 92.975899 268.56 
L 92.975899 233.37203 
L 85.425793 233.37203 
z
" style="fill:#1f77b4;"/>
   </g>
   <g id="patch_10">
    <path clip-path="url(#p4177a66425)" d="M 92.975899 268.56 
L 100.526004 268.56 
L 100.526004 194.274286 
L 92.975899 194.274286 
z
" style="fill:#1f77b4;"/>
   </g>
   <g id="patch_11">
    <path clip-path="url(#p4177a66425)" d="M 100.526004 268.56 
L 108.07611 268.56 
L 108.07611 178.635188 
L 100.526004 178.635188 
z
" style="fill:#1f77b4;"/>
   </g>
   <g id="patch_12">
    <path clip-path="url(#p4177a66425)" d="M 108.07611 268.56 
L 115.626216 268.56 
L 115.626216 108.259248 
L 108.07611 108.259248 
z
" style="fill:#1f77b4;"/>
   </g>
   <g id="patch_13">
    <path clip-path="url(#p4177a66425)" d="M 115.626216 268.56 
L 123.176321 268.56 
L 123.176321 143.447218 
L 115.626216 143.447218 
z
" style="fill:#1f77b4;"/>
   </g>
   <g id="patch_14">
    <path clip-path="url(#p4177a66425)" d="M 123.176321 268.56 
L 130.726427 268.56 
L 130.726427 116.078797 
L 123.176321 116.078797 
z
" style="fill:#1f77b4;"/>
   </g>
   <g id="patch_15">
    <path clip-path="url(#p4177a66425)" d="M 130.726427 268.56 
L 138.276533 268.56 
L 138.276533 108.259248 
L 130.726427 108.259248 
z
" style="fill:#1f77b4;"/>
   </g>
   <g id="patch_16">
    <path clip-path="url(#p4177a66425)" d="M 138.276533 268.56 
L 145.826638 268.56 
L 145.826638 45.702857 
L 138.276533 45.702857 
z
" style="fill:#1f77b4;"/>
   </g>
   <g id="patch_17">
    <path clip-path="url(#p4177a66425)" d="M 145.826638 268.56 
L 153.376744 268.56 
L 153.376744 104.349474 
L 145.826638 104.349474 
z
" style="fill:#1f77b4;"/>
   </g>
   <g id="patch_18">
    <path clip-path="url(#p4177a66425)" d="M 153.376744 268.56 
L 160.92685 268.56 
L 160.92685 69.161504 
L 153.376744 69.161504 
z
" style="fill:#1f77b4;"/>
   </g>
   <g id="patch_19">
    <path clip-path="url(#p4177a66425)" d="M 160.92685 268.56 
L 168.476956 268.56 
L 168.476956 96.529925 
L 160.92685 96.529925 
z
" style="fill:#1f77b4;"/>
   </g>
   <g id="patch_20">
    <path clip-path="url(#p4177a66425)" d="M 168.476956 268.56 
L 176.027061 268.56 
L 176.027061 135.627669 
L 168.476956 135.627669 
z
" style="fill:#1f77b4;"/>
   </g>
   <g id="patch_21">
    <path clip-path="url(#p4177a66425)" d="M 176.027061 268.56 
L 183.577167 268.56 
L 183.577167 108.259248 
L 176.027061 108.259248 
z
" style="fill:#1f77b4;"/>
   </g>
   <g id="patch_22">
    <path clip-path="url(#p4177a66425)" d="M 183.577167 268.56 
L 191.127273 268.56 
L 191.127273 159.086316 
L 183.577167 159.086316 
z
" style="fill:#1f77b4;"/>
   </g>
   <g id="patch_23">
    <path clip-path="url(#p4177a66425)" d="M 191.127273 268.56 
L 198.677378 268.56 
L 198.677378 170.815639 
L 191.127273 170.815639 
z
" style="fill:#1f77b4;"/>
   </g>
   <g id="patch_24">
    <path clip-path="url(#p4177a66425)" d="M 198.677378 268.56 
L 206.227484 268.56 
L 206.227484 225.552481 
L 198.677378 225.552481 
z
" style="fill:#1f77b4;"/>
   </g>
   <g id="patch_25">
    <path clip-path="url(#p4177a66425)" d="M 206.227484 268.56 
L 213.77759 268.56 
L 213.77759 237.281805 
L 206.227484 237.281805 
z
" style="fill:#1f77b4;"/>
   </g>
   <g id="patch_26">
    <path clip-path="url(#p4177a66425)" d="M 213.77759 268.56 
L 221.327696 268.56 
L 221.327696 245.101353 
L 213.77759 245.101353 
z
" style="fill:#1f77b4;"/>
   </g>
   <g id="patch_27">
    <path clip-path="url(#p4177a66425)" d="M 221.327696 268.56 
L 228.877801 268.56 
L 228.877801 256.830677 
L 221.327696 256.830677 
z
" style="fill:#1f77b4;"/>
   </g>
   <g id="patch_28">
    <path clip-path="url(#p4177a66425)" d="M 228.877801 268.56 
L 236.427907 268.56 
L 236.427907 256.830677 
L 228.877801 256.830677 
z
" style="fill:#1f77b4;"/>
   </g>
   <g id="patch_29">
    <path clip-path="url(#p4177a66425)" d="M 236.427907 268.56 
L 243.978013 268.56 
L 243.978013 252.920902 
L 236.427907 252.920902 
z
" style="fill:#1f77b4;"/>
   </g>
   <g id="patch_30">
    <path clip-path="url(#p4177a66425)" d="M 243.978013 268.56 
L 251.528118 268.56 
L 251.528118 256.830677 
L 243.978013 256.830677 
z
" style="fill:#1f77b4;"/>
   </g>
   <g id="patch_31">
    <path clip-path="url(#p4177a66425)" d="M 251.528118 268.56 
L 259.078224 268.56 
L 259.078224 252.920902 
L 251.528118 252.920902 
z
" style="fill:#1f77b4;"/>
   </g>
   <g id="patch_32">
    <path clip-path="url(#p4177a66425)" d="M 259.078224 268.56 
L 266.62833 268.56 
L 266.62833 264.650226 
L 259.078224 264.650226 
z
" style="fill:#1f77b4;"/>
   </g>
   <g id="matplotlib.axis_1">
    <g id="xtick_1">
     <g id="line2d_1">
      <defs>
       <path d="M 0 0 
L 0 3.5 
" id="m14139c7143" style="stroke:#000000;stroke-width:0.8;"/>
      </defs>
      <g>
       <use style="stroke:#000000;stroke-width:0.8;" x="33.571376" xlink:href="#m14139c7143" y="268.56"/>
      </g>
     </g>
     <g id="text_1">
      <!-- 1.4 -->
      <defs>
       <path d="M 12.40625 8.296875 
L 28.515625 8.296875 
L 28.515625 63.921875 
L 10.984375 60.40625 
L 10.984375 69.390625 
L 28.421875 72.90625 
L 38.28125 72.90625 
L 38.28125 8.296875 
L 54.390625 8.296875 
L 54.390625 0 
L 12.40625 0 
z
" id="DejaVuSans-49"/>
       <path d="M 10.6875 12.40625 
L 21 12.40625 
L 21 0 
L 10.6875 0 
z
" id="DejaVuSans-46"/>
       <path d="M 37.796875 64.3125 
L 12.890625 25.390625 
L 37.796875 25.390625 
z
M 35.203125 72.90625 
L 47.609375 72.90625 
L 47.609375 25.390625 
L 58.015625 25.390625 
L 58.015625 17.1875 
L 47.609375 17.1875 
L 47.609375 0 
L 37.796875 0 
L 37.796875 17.1875 
L 4.890625 17.1875 
L 4.890625 26.703125 
z
" id="DejaVuSans-52"/>
      </defs>
      <g transform="translate(25.619814 283.158437)scale(0.1 -0.1)">
       <use xlink:href="#DejaVuSans-49"/>
       <use x="63.623047" xlink:href="#DejaVuSans-46"/>
       <use x="95.410156" xlink:href="#DejaVuSans-52"/>
      </g>
     </g>
    </g>
    <g id="xtick_2">
     <g id="line2d_2">
      <g>
       <use style="stroke:#000000;stroke-width:0.8;" x="68.943795" xlink:href="#m14139c7143" y="268.56"/>
      </g>
     </g>
     <g id="text_2">
      <!-- 1.6 -->
      <defs>
       <path d="M 33.015625 40.375 
Q 26.375 40.375 22.484375 35.828125 
Q 18.609375 31.296875 18.609375 23.390625 
Q 18.609375 15.53125 22.484375 10.953125 
Q 26.375 6.390625 33.015625 6.390625 
Q 39.65625 6.390625 43.53125 10.953125 
Q 47.40625 15.53125 47.40625 23.390625 
Q 47.40625 31.296875 43.53125 35.828125 
Q 39.65625 40.375 33.015625 40.375 
z
M 52.59375 71.296875 
L 52.59375 62.3125 
Q 48.875 64.0625 45.09375 64.984375 
Q 41.3125 65.921875 37.59375 65.921875 
Q 27.828125 65.921875 22.671875 59.328125 
Q 17.53125 52.734375 16.796875 39.40625 
Q 19.671875 43.65625 24.015625 45.921875 
Q 28.375 48.1875 33.59375 48.1875 
Q 44.578125 48.1875 50.953125 41.515625 
Q 57.328125 34.859375 57.328125 23.390625 
Q 57.328125 12.15625 50.6875 5.359375 
Q 44.046875 -1.421875 33.015625 -1.421875 
Q 20.359375 -1.421875 13.671875 8.265625 
Q 6.984375 17.96875 6.984375 36.375 
Q 6.984375 53.65625 15.1875 63.9375 
Q 23.390625 74.21875 37.203125 74.21875 
Q 40.921875 74.21875 44.703125 73.484375 
Q 48.484375 72.75 52.59375 71.296875 
z
" id="DejaVuSans-54"/>
      </defs>
      <g transform="translate(60.992233 283.158437)scale(0.1 -0.1)">
       <use xlink:href="#DejaVuSans-49"/>
       <use x="63.623047" xlink:href="#DejaVuSans-46"/>
       <use x="95.410156" xlink:href="#DejaVuSans-54"/>
      </g>
     </g>
    </g>
    <g id="xtick_3">
     <g id="line2d_3">
      <g>
       <use style="stroke:#000000;stroke-width:0.8;" x="104.316214" xlink:href="#m14139c7143" y="268.56"/>
      </g>
     </g>
     <g id="text_3">
      <!-- 1.8 -->
      <defs>
       <path d="M 31.78125 34.625 
Q 24.75 34.625 20.71875 30.859375 
Q 16.703125 27.09375 16.703125 20.515625 
Q 16.703125 13.921875 20.71875 10.15625 
Q 24.75 6.390625 31.78125 6.390625 
Q 38.8125 6.390625 42.859375 10.171875 
Q 46.921875 13.96875 46.921875 20.515625 
Q 46.921875 27.09375 42.890625 30.859375 
Q 38.875 34.625 31.78125 34.625 
z
M 21.921875 38.8125 
Q 15.578125 40.375 12.03125 44.71875 
Q 8.5 49.078125 8.5 55.328125 
Q 8.5 64.0625 14.71875 69.140625 
Q 20.953125 74.21875 31.78125 74.21875 
Q 42.671875 74.21875 48.875 69.140625 
Q 55.078125 64.0625 55.078125 55.328125 
Q 55.078125 49.078125 51.53125 44.71875 
Q 48 40.375 41.703125 38.8125 
Q 48.828125 37.15625 52.796875 32.3125 
Q 56.78125 27.484375 56.78125 20.515625 
Q 56.78125 9.90625 50.3125 4.234375 
Q 43.84375 -1.421875 31.78125 -1.421875 
Q 19.734375 -1.421875 13.25 4.234375 
Q 6.78125 9.90625 6.78125 20.515625 
Q 6.78125 27.484375 10.78125 32.3125 
Q 14.796875 37.15625 21.921875 38.8125 
z
M 18.3125 54.390625 
Q 18.3125 48.734375 21.84375 45.5625 
Q 25.390625 42.390625 31.78125 42.390625 
Q 38.140625 42.390625 41.71875 45.5625 
Q 45.3125 48.734375 45.3125 54.390625 
Q 45.3125 60.0625 41.71875 63.234375 
Q 38.140625 66.40625 31.78125 66.40625 
Q 25.390625 66.40625 21.84375 63.234375 
Q 18.3125 60.0625 18.3125 54.390625 
z
" id="DejaVuSans-56"/>
      </defs>
      <g transform="translate(96.364652 283.158437)scale(0.1 -0.1)">
       <use xlink:href="#DejaVuSans-49"/>
       <use x="63.623047" xlink:href="#DejaVuSans-46"/>
       <use x="95.410156" xlink:href="#DejaVuSans-56"/>
      </g>
     </g>
    </g>
    <g id="xtick_4">
     <g id="line2d_4">
      <g>
       <use style="stroke:#000000;stroke-width:0.8;" x="139.688633" xlink:href="#m14139c7143" y="268.56"/>
      </g>
     </g>
     <g id="text_4">
      <!-- 2.0 -->
      <defs>
       <path d="M 19.1875 8.296875 
L 53.609375 8.296875 
L 53.609375 0 
L 7.328125 0 
L 7.328125 8.296875 
Q 12.9375 14.109375 22.625 23.890625 
Q 32.328125 33.6875 34.8125 36.53125 
Q 39.546875 41.84375 41.421875 45.53125 
Q 43.3125 49.21875 43.3125 52.78125 
Q 43.3125 58.59375 39.234375 62.25 
Q 35.15625 65.921875 28.609375 65.921875 
Q 23.96875 65.921875 18.8125 64.3125 
Q 13.671875 62.703125 7.8125 59.421875 
L 7.8125 69.390625 
Q 13.765625 71.78125 18.9375 73 
Q 24.125 74.21875 28.421875 74.21875 
Q 39.75 74.21875 46.484375 68.546875 
Q 53.21875 62.890625 53.21875 53.421875 
Q 53.21875 48.921875 51.53125 44.890625 
Q 49.859375 40.875 45.40625 35.40625 
Q 44.1875 33.984375 37.640625 27.21875 
Q 31.109375 20.453125 19.1875 8.296875 
z
" id="DejaVuSans-50"/>
       <path d="M 31.78125 66.40625 
Q 24.171875 66.40625 20.328125 58.90625 
Q 16.5 51.421875 16.5 36.375 
Q 16.5 21.390625 20.328125 13.890625 
Q 24.171875 6.390625 31.78125 6.390625 
Q 39.453125 6.390625 43.28125 13.890625 
Q 47.125 21.390625 47.125 36.375 
Q 47.125 51.421875 43.28125 58.90625 
Q 39.453125 66.40625 31.78125 66.40625 
z
M 31.78125 74.21875 
Q 44.046875 74.21875 50.515625 64.515625 
Q 56.984375 54.828125 56.984375 36.375 
Q 56.984375 17.96875 50.515625 8.265625 
Q 44.046875 -1.421875 31.78125 -1.421875 
Q 19.53125 -1.421875 13.0625 8.265625 
Q 6.59375 17.96875 6.59375 36.375 
Q 6.59375 54.828125 13.0625 64.515625 
Q 19.53125 74.21875 31.78125 74.21875 
z
" id="DejaVuSans-48"/>
      </defs>
      <g transform="translate(131.737071 283.158437)scale(0.1 -0.1)">
       <use xlink:href="#DejaVuSans-50"/>
       <use x="63.623047" xlink:href="#DejaVuSans-46"/>
       <use x="95.410156" xlink:href="#DejaVuSans-48"/>
      </g>
     </g>
    </g>
    <g id="xtick_5">
     <g id="line2d_5">
      <g>
       <use style="stroke:#000000;stroke-width:0.8;" x="175.061052" xlink:href="#m14139c7143" y="268.56"/>
      </g>
     </g>
     <g id="text_5">
      <!-- 2.2 -->
      <g transform="translate(167.10949 283.158437)scale(0.1 -0.1)">
       <use xlink:href="#DejaVuSans-50"/>
       <use x="63.623047" xlink:href="#DejaVuSans-46"/>
       <use x="95.410156" xlink:href="#DejaVuSans-50"/>
      </g>
     </g>
    </g>
    <g id="xtick_6">
     <g id="line2d_6">
      <g>
       <use style="stroke:#000000;stroke-width:0.8;" x="210.433471" xlink:href="#m14139c7143" y="268.56"/>
      </g>
     </g>
     <g id="text_6">
      <!-- 2.4 -->
      <g transform="translate(202.481909 283.158437)scale(0.1 -0.1)">
       <use xlink:href="#DejaVuSans-50"/>
       <use x="63.623047" xlink:href="#DejaVuSans-46"/>
       <use x="95.410156" xlink:href="#DejaVuSans-52"/>
      </g>
     </g>
    </g>
    <g id="xtick_7">
     <g id="line2d_7">
      <g>
       <use style="stroke:#000000;stroke-width:0.8;" x="245.80589" xlink:href="#m14139c7143" y="268.56"/>
      </g>
     </g>
     <g id="text_7">
      <!-- 2.6 -->
      <g transform="translate(237.854328 283.158437)scale(0.1 -0.1)">
       <use xlink:href="#DejaVuSans-50"/>
       <use x="63.623047" xlink:href="#DejaVuSans-46"/>
       <use x="95.410156" xlink:href="#DejaVuSans-54"/>
      </g>
     </g>
    </g>
    <g id="text_8">
     <!-- lambda0 -->
     <defs>
      <path d="M 9.421875 75.984375 
L 18.40625 75.984375 
L 18.40625 0 
L 9.421875 0 
z
" id="DejaVuSans-108"/>
      <path d="M 34.28125 27.484375 
Q 23.390625 27.484375 19.1875 25 
Q 14.984375 22.515625 14.984375 16.5 
Q 14.984375 11.71875 18.140625 8.90625 
Q 21.296875 6.109375 26.703125 6.109375 
Q 34.1875 6.109375 38.703125 11.40625 
Q 43.21875 16.703125 43.21875 25.484375 
L 43.21875 27.484375 
z
M 52.203125 31.203125 
L 52.203125 0 
L 43.21875 0 
L 43.21875 8.296875 
Q 40.140625 3.328125 35.546875 0.953125 
Q 30.953125 -1.421875 24.3125 -1.421875 
Q 15.921875 -1.421875 10.953125 3.296875 
Q 6 8.015625 6 15.921875 
Q 6 25.140625 12.171875 29.828125 
Q 18.359375 34.515625 30.609375 34.515625 
L 43.21875 34.515625 
L 43.21875 35.40625 
Q 43.21875 41.609375 39.140625 45 
Q 35.0625 48.390625 27.6875 48.390625 
Q 23 48.390625 18.546875 47.265625 
Q 14.109375 46.140625 10.015625 43.890625 
L 10.015625 52.203125 
Q 14.9375 54.109375 19.578125 55.046875 
Q 24.21875 56 28.609375 56 
Q 40.484375 56 46.34375 49.84375 
Q 52.203125 43.703125 52.203125 31.203125 
z
" id="DejaVuSans-97"/>
      <path d="M 52 44.1875 
Q 55.375 50.25 60.0625 53.125 
Q 64.75 56 71.09375 56 
Q 79.640625 56 84.28125 50.015625 
Q 88.921875 44.046875 88.921875 33.015625 
L 88.921875 0 
L 79.890625 0 
L 79.890625 32.71875 
Q 79.890625 40.578125 77.09375 44.375 
Q 74.3125 48.1875 68.609375 48.1875 
Q 61.625 48.1875 57.5625 43.546875 
Q 53.515625 38.921875 53.515625 30.90625 
L 53.515625 0 
L 44.484375 0 
L 44.484375 32.71875 
Q 44.484375 40.625 41.703125 44.40625 
Q 38.921875 48.1875 33.109375 48.1875 
Q 26.21875 48.1875 22.15625 43.53125 
Q 18.109375 38.875 18.109375 30.90625 
L 18.109375 0 
L 9.078125 0 
L 9.078125 54.6875 
L 18.109375 54.6875 
L 18.109375 46.1875 
Q 21.1875 51.21875 25.484375 53.609375 
Q 29.78125 56 35.6875 56 
Q 41.65625 56 45.828125 52.96875 
Q 50 49.953125 52 44.1875 
z
" id="DejaVuSans-109"/>
      <path d="M 48.6875 27.296875 
Q 48.6875 37.203125 44.609375 42.84375 
Q 40.53125 48.484375 33.40625 48.484375 
Q 26.265625 48.484375 22.1875 42.84375 
Q 18.109375 37.203125 18.109375 27.296875 
Q 18.109375 17.390625 22.1875 11.75 
Q 26.265625 6.109375 33.40625 6.109375 
Q 40.53125 6.109375 44.609375 11.75 
Q 48.6875 17.390625 48.6875 27.296875 
z
M 18.109375 46.390625 
Q 20.953125 51.265625 25.265625 53.625 
Q 29.59375 56 35.59375 56 
Q 45.5625 56 51.78125 48.09375 
Q 58.015625 40.1875 58.015625 27.296875 
Q 58.015625 14.40625 51.78125 6.484375 
Q 45.5625 -1.421875 35.59375 -1.421875 
Q 29.59375 -1.421875 25.265625 0.953125 
Q 20.953125 3.328125 18.109375 8.203125 
L 18.109375 0 
L 9.078125 0 
L 9.078125 75.984375 
L 18.109375 75.984375 
z
" id="DejaVuSans-98"/>
      <path d="M 45.40625 46.390625 
L 45.40625 75.984375 
L 54.390625 75.984375 
L 54.390625 0 
L 45.40625 0 
L 45.40625 8.203125 
Q 42.578125 3.328125 38.25 0.953125 
Q 33.9375 -1.421875 27.875 -1.421875 
Q 17.96875 -1.421875 11.734375 6.484375 
Q 5.515625 14.40625 5.515625 27.296875 
Q 5.515625 40.1875 11.734375 48.09375 
Q 17.96875 56 27.875 56 
Q 33.9375 56 38.25 53.625 
Q 42.578125 51.265625 45.40625 46.390625 
z
M 14.796875 27.296875 
Q 14.796875 17.390625 18.875 11.75 
Q 22.953125 6.109375 30.078125 6.109375 
Q 37.203125 6.109375 41.296875 11.75 
Q 45.40625 17.390625 45.40625 27.296875 
Q 45.40625 37.203125 41.296875 42.84375 
Q 37.203125 48.484375 30.078125 48.484375 
Q 22.953125 48.484375 18.875 42.84375 
Q 14.796875 37.203125 14.796875 27.296875 
z
" id="DejaVuSans-100"/>
     </defs>
     <g transform="translate(131.459557 296.836563)scale(0.1 -0.1)">
      <use xlink:href="#DejaVuSans-108"/>
      <use x="27.783203" xlink:href="#DejaVuSans-97"/>
      <use x="89.0625" xlink:href="#DejaVuSans-109"/>
      <use x="186.474609" xlink:href="#DejaVuSans-98"/>
      <use x="249.951172" xlink:href="#DejaVuSans-100"/>
      <use x="313.427734" xlink:href="#DejaVuSans-97"/>
      <use x="374.707031" xlink:href="#DejaVuSans-48"/>
     </g>
    </g>
   </g>
   <g id="matplotlib.axis_2">
    <g id="ytick_1">
     <g id="line2d_8">
      <defs>
       <path d="M 0 0 
L -3.5 0 
" id="mbd747d615c" style="stroke:#000000;stroke-width:0.8;"/>
      </defs>
      <g>
       <use style="stroke:#000000;stroke-width:0.8;" x="28.8" xlink:href="#mbd747d615c" y="268.56"/>
      </g>
     </g>
     <g id="text_9">
      <!-- 0 -->
      <g transform="translate(15.4375 272.359219)scale(0.1 -0.1)">
       <use xlink:href="#DejaVuSans-48"/>
      </g>
     </g>
    </g>
    <g id="ytick_2">
     <g id="line2d_9">
      <g>
       <use style="stroke:#000000;stroke-width:0.8;" x="28.8" xlink:href="#mbd747d615c" y="229.462256"/>
      </g>
     </g>
     <g id="text_10">
      <!-- 10 -->
      <g transform="translate(9.075 233.261474)scale(0.1 -0.1)">
       <use xlink:href="#DejaVuSans-49"/>
       <use x="63.623047" xlink:href="#DejaVuSans-48"/>
      </g>
     </g>
    </g>
    <g id="ytick_3">
     <g id="line2d_10">
      <g>
       <use style="stroke:#000000;stroke-width:0.8;" x="28.8" xlink:href="#mbd747d615c" y="190.364511"/>
      </g>
     </g>
     <g id="text_11">
      <!-- 20 -->
      <g transform="translate(9.075 194.16373)scale(0.1 -0.1)">
       <use xlink:href="#DejaVuSans-50"/>
       <use x="63.623047" xlink:href="#DejaVuSans-48"/>
      </g>
     </g>
    </g>
    <g id="ytick_4">
     <g id="line2d_11">
      <g>
       <use style="stroke:#000000;stroke-width:0.8;" x="28.8" xlink:href="#mbd747d615c" y="151.266767"/>
      </g>
     </g>
     <g id="text_12">
      <!-- 30 -->
      <defs>
       <path d="M 40.578125 39.3125 
Q 47.65625 37.796875 51.625 33 
Q 55.609375 28.21875 55.609375 21.1875 
Q 55.609375 10.40625 48.1875 4.484375 
Q 40.765625 -1.421875 27.09375 -1.421875 
Q 22.515625 -1.421875 17.65625 -0.515625 
Q 12.796875 0.390625 7.625 2.203125 
L 7.625 11.71875 
Q 11.71875 9.328125 16.59375 8.109375 
Q 21.484375 6.890625 26.8125 6.890625 
Q 36.078125 6.890625 40.9375 10.546875 
Q 45.796875 14.203125 45.796875 21.1875 
Q 45.796875 27.640625 41.28125 31.265625 
Q 36.765625 34.90625 28.71875 34.90625 
L 20.21875 34.90625 
L 20.21875 43.015625 
L 29.109375 43.015625 
Q 36.375 43.015625 40.234375 45.921875 
Q 44.09375 48.828125 44.09375 54.296875 
Q 44.09375 59.90625 40.109375 62.90625 
Q 36.140625 65.921875 28.71875 65.921875 
Q 24.65625 65.921875 20.015625 65.03125 
Q 15.375 64.15625 9.8125 62.3125 
L 9.8125 71.09375 
Q 15.4375 72.65625 20.34375 73.4375 
Q 25.25 74.21875 29.59375 74.21875 
Q 40.828125 74.21875 47.359375 69.109375 
Q 53.90625 64.015625 53.90625 55.328125 
Q 53.90625 49.265625 50.4375 45.09375 
Q 46.96875 40.921875 40.578125 39.3125 
z
" id="DejaVuSans-51"/>
      </defs>
      <g transform="translate(9.075 155.065986)scale(0.1 -0.1)">
       <use xlink:href="#DejaVuSans-51"/>
       <use x="63.623047" xlink:href="#DejaVuSans-48"/>
      </g>
     </g>
    </g>
    <g id="ytick_5">
     <g id="line2d_12">
      <g>
       <use style="stroke:#000000;stroke-width:0.8;" x="28.8" xlink:href="#mbd747d615c" y="112.169023"/>
      </g>
     </g>
     <g id="text_13">
      <!-- 40 -->
      <g transform="translate(9.075 115.968241)scale(0.1 -0.1)">
       <use xlink:href="#DejaVuSans-52"/>
       <use x="63.623047" xlink:href="#DejaVuSans-48"/>
      </g>
     </g>
    </g>
    <g id="ytick_6">
     <g id="line2d_13">
      <g>
       <use style="stroke:#000000;stroke-width:0.8;" x="28.8" xlink:href="#mbd747d615c" y="73.071278"/>
      </g>
     </g>
     <g id="text_14">
      <!-- 50 -->
      <defs>
       <path d="M 10.796875 72.90625 
L 49.515625 72.90625 
L 49.515625 64.59375 
L 19.828125 64.59375 
L 19.828125 46.734375 
Q 21.96875 47.46875 24.109375 47.828125 
Q 26.265625 48.1875 28.421875 48.1875 
Q 40.625 48.1875 47.75 41.5 
Q 54.890625 34.8125 54.890625 23.390625 
Q 54.890625 11.625 47.5625 5.09375 
Q 40.234375 -1.421875 26.90625 -1.421875 
Q 22.3125 -1.421875 17.546875 -0.640625 
Q 12.796875 0.140625 7.71875 1.703125 
L 7.71875 11.625 
Q 12.109375 9.234375 16.796875 8.0625 
Q 21.484375 6.890625 26.703125 6.890625 
Q 35.15625 6.890625 40.078125 11.328125 
Q 45.015625 15.765625 45.015625 23.390625 
Q 45.015625 31 40.078125 35.4375 
Q 35.15625 39.890625 26.703125 39.890625 
Q 22.75 39.890625 18.8125 39.015625 
Q 14.890625 38.140625 10.796875 36.28125 
z
" id="DejaVuSans-53"/>
      </defs>
      <g transform="translate(9.075 76.870497)scale(0.1 -0.1)">
       <use xlink:href="#DejaVuSans-53"/>
       <use x="63.623047" xlink:href="#DejaVuSans-48"/>
      </g>
     </g>
    </g>
   </g>
   <g id="patch_33">
    <path d="M 28.8 268.56 
L 28.8 34.56 
" style="fill:none;stroke:#000000;stroke-linecap:square;stroke-linejoin:miter;stroke-width:0.8;"/>
   </g>
   <g id="patch_34">
    <path d="M 277.953488 268.56 
L 277.953488 34.56 
" style="fill:none;stroke:#000000;stroke-linecap:square;stroke-linejoin:miter;stroke-width:0.8;"/>
   </g>
   <g id="patch_35">
    <path d="M 28.8 268.56 
L 277.953488 268.56 
" style="fill:none;stroke:#000000;stroke-linecap:square;stroke-linejoin:miter;stroke-width:0.8;"/>
   </g>
   <g id="patch_36">
    <path d="M 28.8 34.56 
L 277.953488 34.56 
" style="fill:none;stroke:#000000;stroke-linecap:square;stroke-linejoin:miter;stroke-width:0.8;"/>
   </g>
  </g>
  <g id="axes_2">
   <g id="patch_37">
    <path d="M 315.326512 268.56 
L 564.48 268.56 
L 564.48 34.56 
L 315.326512 34.56 
z
" style="fill:#ffffff;"/>
   </g>
   <g id="patch_38">
    <path clip-path="url(#p1e629cc2d9)" d="M 326.65167 268.56 
L 334.201776 268.56 
L 334.201776 264.96553 
L 326.65167 264.96553 
z
" style="fill:#1f77b4;"/>
   </g>
   <g id="patch_39">
    <path clip-path="url(#p1e629cc2d9)" d="M 334.201776 268.56 
L 341.751882 268.56 
L 341.751882 257.77659 
L 334.201776 257.77659 
z
" style="fill:#1f77b4;"/>
   </g>
   <g id="patch_40">
    <path clip-path="url(#p1e629cc2d9)" d="M 341.751882 268.56 
L 349.301987 268.56 
L 349.301987 257.77659 
L 341.751882 257.77659 
z
" style="fill:#1f77b4;"/>
   </g>
   <g id="patch_41">
    <path clip-path="url(#p1e629cc2d9)" d="M 349.301987 268.56 
L 356.852093 268.56 
L 356.852093 257.77659 
L 349.301987 257.77659 
z
" style="fill:#1f77b4;"/>
   </g>
   <g id="patch_42">
    <path clip-path="url(#p1e629cc2d9)" d="M 356.852093 268.56 
L 364.402199 268.56 
L 364.402199 246.99318 
L 356.852093 246.99318 
z
" style="fill:#1f77b4;"/>
   </g>
   <g id="patch_43">
    <path clip-path="url(#p1e629cc2d9)" d="M 364.402199 268.56 
L 371.952304 268.56 
L 371.952304 243.39871 
L 364.402199 243.39871 
z
" style="fill:#1f77b4;"/>
   </g>
   <g id="patch_44">
    <path clip-path="url(#p1e629cc2d9)" d="M 371.952304 268.56 
L 379.50241 268.56 
L 379.50241 203.859539 
L 371.952304 203.859539 
z
" style="fill:#1f77b4;"/>
   </g>
   <g id="patch_45">
    <path clip-path="url(#p1e629cc2d9)" d="M 379.50241 268.56 
L 387.052516 268.56 
L 387.052516 193.076129 
L 379.50241 193.076129 
z
" style="fill:#1f77b4;"/>
   </g>
   <g id="patch_46">
    <path clip-path="url(#p1e629cc2d9)" d="M 387.052516 268.56 
L 394.602622 268.56 
L 394.602622 178.698249 
L 387.052516 178.698249 
z
" style="fill:#1f77b4;"/>
   </g>
   <g id="patch_47">
    <path clip-path="url(#p1e629cc2d9)" d="M 394.602622 268.56 
L 402.152727 268.56 
L 402.152727 67.269677 
L 394.602622 67.269677 
z
" style="fill:#1f77b4;"/>
   </g>
   <g id="patch_48">
    <path clip-path="url(#p1e629cc2d9)" d="M 402.152727 268.56 
L 409.702833 268.56 
L 409.702833 92.430968 
L 402.152727 92.430968 
z
" style="fill:#1f77b4;"/>
   </g>
   <g id="patch_49">
    <path clip-path="url(#p1e629cc2d9)" d="M 409.702833 268.56 
L 417.252939 268.56 
L 417.252939 45.702857 
L 409.702833 45.702857 
z
" style="fill:#1f77b4;"/>
   </g>
   <g id="patch_50">
    <path clip-path="url(#p1e629cc2d9)" d="M 417.252939 268.56 
L 424.803044 268.56 
L 424.803044 85.242028 
L 417.252939 85.242028 
z
" style="fill:#1f77b4;"/>
   </g>
   <g id="patch_51">
    <path clip-path="url(#p1e629cc2d9)" d="M 424.803044 268.56 
L 432.35315 268.56 
L 432.35315 60.080737 
L 424.803044 60.080737 
z
" style="fill:#1f77b4;"/>
   </g>
   <g id="patch_52">
    <path clip-path="url(#p1e629cc2d9)" d="M 432.35315 268.56 
L 439.903256 268.56 
L 439.903256 81.647558 
L 432.35315 81.647558 
z
" style="fill:#1f77b4;"/>
   </g>
   <g id="patch_53">
    <path clip-path="url(#p1e629cc2d9)" d="M 439.903256 268.56 
L 447.453362 268.56 
L 447.453362 110.403318 
L 439.903256 110.403318 
z
" style="fill:#1f77b4;"/>
   </g>
   <g id="patch_54">
    <path clip-path="url(#p1e629cc2d9)" d="M 447.453362 268.56 
L 455.003467 268.56 
L 455.003467 131.970138 
L 447.453362 131.970138 
z
" style="fill:#1f77b4;"/>
   </g>
   <g id="patch_55">
    <path clip-path="url(#p1e629cc2d9)" d="M 455.003467 268.56 
L 462.553573 268.56 
L 462.553573 167.914839 
L 455.003467 167.914839 
z
" style="fill:#1f77b4;"/>
   </g>
   <g id="patch_56">
    <path clip-path="url(#p1e629cc2d9)" d="M 462.553573 268.56 
L 470.103679 268.56 
L 470.103679 167.914839 
L 462.553573 167.914839 
z
" style="fill:#1f77b4;"/>
   </g>
   <g id="patch_57">
    <path clip-path="url(#p1e629cc2d9)" d="M 470.103679 268.56 
L 477.653784 268.56 
L 477.653784 203.859539 
L 470.103679 203.859539 
z
" style="fill:#1f77b4;"/>
   </g>
   <g id="patch_58">
    <path clip-path="url(#p1e629cc2d9)" d="M 477.653784 268.56 
L 485.20389 268.56 
L 485.20389 239.80424 
L 477.653784 239.80424 
z
" style="fill:#1f77b4;"/>
   </g>
   <g id="patch_59">
    <path clip-path="url(#p1e629cc2d9)" d="M 485.20389 268.56 
L 492.753996 268.56 
L 492.753996 236.20977 
L 485.20389 236.20977 
z
" style="fill:#1f77b4;"/>
   </g>
   <g id="patch_60">
    <path clip-path="url(#p1e629cc2d9)" d="M 492.753996 268.56 
L 500.304101 268.56 
L 500.304101 250.58765 
L 492.753996 250.58765 
z
" style="fill:#1f77b4;"/>
   </g>
   <g id="patch_61">
    <path clip-path="url(#p1e629cc2d9)" d="M 500.304101 268.56 
L 507.854207 268.56 
L 507.854207 257.77659 
L 500.304101 257.77659 
z
" style="fill:#1f77b4;"/>
   </g>
   <g id="patch_62">
    <path clip-path="url(#p1e629cc2d9)" d="M 507.854207 268.56 
L 515.404313 268.56 
L 515.404313 268.56 
L 507.854207 268.56 
z
" style="fill:#1f77b4;"/>
   </g>
   <g id="patch_63">
    <path clip-path="url(#p1e629cc2d9)" d="M 515.404313 268.56 
L 522.954419 268.56 
L 522.954419 261.37106 
L 515.404313 261.37106 
z
" style="fill:#1f77b4;"/>
   </g>
   <g id="patch_64">
    <path clip-path="url(#p1e629cc2d9)" d="M 522.954419 268.56 
L 530.504524 268.56 
L 530.504524 264.96553 
L 522.954419 264.96553 
z
" style="fill:#1f77b4;"/>
   </g>
   <g id="patch_65">
    <path clip-path="url(#p1e629cc2d9)" d="M 530.504524 268.56 
L 538.05463 268.56 
L 538.05463 268.56 
L 530.504524 268.56 
z
" style="fill:#1f77b4;"/>
   </g>
   <g id="patch_66">
    <path clip-path="url(#p1e629cc2d9)" d="M 538.05463 268.56 
L 545.604736 268.56 
L 545.604736 268.56 
L 538.05463 268.56 
z
" style="fill:#1f77b4;"/>
   </g>
   <g id="patch_67">
    <path clip-path="url(#p1e629cc2d9)" d="M 545.604736 268.56 
L 553.154841 268.56 
L 553.154841 264.96553 
L 545.604736 264.96553 
z
" style="fill:#1f77b4;"/>
   </g>
   <g id="matplotlib.axis_3">
    <g id="xtick_8">
     <g id="line2d_14">
      <g>
       <use style="stroke:#000000;stroke-width:0.8;" x="347.77371" xlink:href="#m14139c7143" y="268.56"/>
      </g>
     </g>
     <g id="text_15">
      <!-- 3.4 -->
      <g transform="translate(339.822147 283.158437)scale(0.1 -0.1)">
       <use xlink:href="#DejaVuSans-51"/>
       <use x="63.623047" xlink:href="#DejaVuSans-46"/>
       <use x="95.410156" xlink:href="#DejaVuSans-52"/>
      </g>
     </g>
    </g>
    <g id="xtick_9">
     <g id="line2d_15">
      <g>
       <use style="stroke:#000000;stroke-width:0.8;" x="394.325484" xlink:href="#m14139c7143" y="268.56"/>
      </g>
     </g>
     <g id="text_16">
      <!-- 3.6 -->
      <g transform="translate(386.373922 283.158437)scale(0.1 -0.1)">
       <use xlink:href="#DejaVuSans-51"/>
       <use x="63.623047" xlink:href="#DejaVuSans-46"/>
       <use x="95.410156" xlink:href="#DejaVuSans-54"/>
      </g>
     </g>
    </g>
    <g id="xtick_10">
     <g id="line2d_16">
      <g>
       <use style="stroke:#000000;stroke-width:0.8;" x="440.877258" xlink:href="#m14139c7143" y="268.56"/>
      </g>
     </g>
     <g id="text_17">
      <!-- 3.8 -->
      <g transform="translate(432.925696 283.158437)scale(0.1 -0.1)">
       <use xlink:href="#DejaVuSans-51"/>
       <use x="63.623047" xlink:href="#DejaVuSans-46"/>
       <use x="95.410156" xlink:href="#DejaVuSans-56"/>
      </g>
     </g>
    </g>
    <g id="xtick_11">
     <g id="line2d_17">
      <g>
       <use style="stroke:#000000;stroke-width:0.8;" x="487.429033" xlink:href="#m14139c7143" y="268.56"/>
      </g>
     </g>
     <g id="text_18">
      <!-- 4.0 -->
      <g transform="translate(479.47747 283.158437)scale(0.1 -0.1)">
       <use xlink:href="#DejaVuSans-52"/>
       <use x="63.623047" xlink:href="#DejaVuSans-46"/>
       <use x="95.410156" xlink:href="#DejaVuSans-48"/>
      </g>
     </g>
    </g>
    <g id="xtick_12">
     <g id="line2d_18">
      <g>
       <use style="stroke:#000000;stroke-width:0.8;" x="533.980807" xlink:href="#m14139c7143" y="268.56"/>
      </g>
     </g>
     <g id="text_19">
      <!-- 4.2 -->
      <g transform="translate(526.029245 283.158437)scale(0.1 -0.1)">
       <use xlink:href="#DejaVuSans-52"/>
       <use x="63.623047" xlink:href="#DejaVuSans-46"/>
       <use x="95.410156" xlink:href="#DejaVuSans-50"/>
      </g>
     </g>
    </g>
    <g id="text_20">
     <!-- m_incubation -->
     <defs>
      <path d="M 50.984375 -16.609375 
L 50.984375 -23.578125 
L -0.984375 -23.578125 
L -0.984375 -16.609375 
z
" id="DejaVuSans-95"/>
      <path d="M 9.421875 54.6875 
L 18.40625 54.6875 
L 18.40625 0 
L 9.421875 0 
z
M 9.421875 75.984375 
L 18.40625 75.984375 
L 18.40625 64.59375 
L 9.421875 64.59375 
z
" id="DejaVuSans-105"/>
      <path d="M 54.890625 33.015625 
L 54.890625 0 
L 45.90625 0 
L 45.90625 32.71875 
Q 45.90625 40.484375 42.875 44.328125 
Q 39.84375 48.1875 33.796875 48.1875 
Q 26.515625 48.1875 22.3125 43.546875 
Q 18.109375 38.921875 18.109375 30.90625 
L 18.109375 0 
L 9.078125 0 
L 9.078125 54.6875 
L 18.109375 54.6875 
L 18.109375 46.1875 
Q 21.34375 51.125 25.703125 53.5625 
Q 30.078125 56 35.796875 56 
Q 45.21875 56 50.046875 50.171875 
Q 54.890625 44.34375 54.890625 33.015625 
z
" id="DejaVuSans-110"/>
      <path d="M 48.78125 52.59375 
L 48.78125 44.1875 
Q 44.96875 46.296875 41.140625 47.34375 
Q 37.3125 48.390625 33.40625 48.390625 
Q 24.65625 48.390625 19.8125 42.84375 
Q 14.984375 37.3125 14.984375 27.296875 
Q 14.984375 17.28125 19.8125 11.734375 
Q 24.65625 6.203125 33.40625 6.203125 
Q 37.3125 6.203125 41.140625 7.25 
Q 44.96875 8.296875 48.78125 10.40625 
L 48.78125 2.09375 
Q 45.015625 0.34375 40.984375 -0.53125 
Q 36.96875 -1.421875 32.421875 -1.421875 
Q 20.0625 -1.421875 12.78125 6.34375 
Q 5.515625 14.109375 5.515625 27.296875 
Q 5.515625 40.671875 12.859375 48.328125 
Q 20.21875 56 33.015625 56 
Q 37.15625 56 41.109375 55.140625 
Q 45.0625 54.296875 48.78125 52.59375 
z
" id="DejaVuSans-99"/>
      <path d="M 8.5 21.578125 
L 8.5 54.6875 
L 17.484375 54.6875 
L 17.484375 21.921875 
Q 17.484375 14.15625 20.5 10.265625 
Q 23.53125 6.390625 29.59375 6.390625 
Q 36.859375 6.390625 41.078125 11.03125 
Q 45.3125 15.671875 45.3125 23.6875 
L 45.3125 54.6875 
L 54.296875 54.6875 
L 54.296875 0 
L 45.3125 0 
L 45.3125 8.40625 
Q 42.046875 3.421875 37.71875 1 
Q 33.40625 -1.421875 27.6875 -1.421875 
Q 18.265625 -1.421875 13.375 4.4375 
Q 8.5 10.296875 8.5 21.578125 
z
M 31.109375 56 
z
" id="DejaVuSans-117"/>
      <path d="M 18.3125 70.21875 
L 18.3125 54.6875 
L 36.8125 54.6875 
L 36.8125 47.703125 
L 18.3125 47.703125 
L 18.3125 18.015625 
Q 18.3125 11.328125 20.140625 9.421875 
Q 21.96875 7.515625 27.59375 7.515625 
L 36.8125 7.515625 
L 36.8125 0 
L 27.59375 0 
Q 17.1875 0 13.234375 3.875 
Q 9.28125 7.765625 9.28125 18.015625 
L 9.28125 47.703125 
L 2.6875 47.703125 
L 2.6875 54.6875 
L 9.28125 54.6875 
L 9.28125 70.21875 
z
" id="DejaVuSans-116"/>
      <path d="M 30.609375 48.390625 
Q 23.390625 48.390625 19.1875 42.75 
Q 14.984375 37.109375 14.984375 27.296875 
Q 14.984375 17.484375 19.15625 11.84375 
Q 23.34375 6.203125 30.609375 6.203125 
Q 37.796875 6.203125 41.984375 11.859375 
Q 46.1875 17.53125 46.1875 27.296875 
Q 46.1875 37.015625 41.984375 42.703125 
Q 37.796875 48.390625 30.609375 48.390625 
z
M 30.609375 56 
Q 42.328125 56 49.015625 48.375 
Q 55.71875 40.765625 55.71875 27.296875 
Q 55.71875 13.875 49.015625 6.21875 
Q 42.328125 -1.421875 30.609375 -1.421875 
Q 18.84375 -1.421875 12.171875 6.21875 
Q 5.515625 13.875 5.515625 27.296875 
Q 5.515625 40.765625 12.171875 48.375 
Q 18.84375 56 30.609375 56 
z
" id="DejaVuSans-111"/>
     </defs>
     <g transform="translate(406.241537 296.836563)scale(0.1 -0.1)">
      <use xlink:href="#DejaVuSans-109"/>
      <use x="97.412109" xlink:href="#DejaVuSans-95"/>
      <use x="147.412109" xlink:href="#DejaVuSans-105"/>
      <use x="175.195312" xlink:href="#DejaVuSans-110"/>
      <use x="238.574219" xlink:href="#DejaVuSans-99"/>
      <use x="293.554688" xlink:href="#DejaVuSans-117"/>
      <use x="356.933594" xlink:href="#DejaVuSans-98"/>
      <use x="420.410156" xlink:href="#DejaVuSans-97"/>
      <use x="481.689453" xlink:href="#DejaVuSans-116"/>
      <use x="520.898438" xlink:href="#DejaVuSans-105"/>
      <use x="548.681641" xlink:href="#DejaVuSans-111"/>
      <use x="609.863281" xlink:href="#DejaVuSans-110"/>
     </g>
    </g>
   </g>
   <g id="matplotlib.axis_4">
    <g id="ytick_7">
     <g id="line2d_19">
      <g>
       <use style="stroke:#000000;stroke-width:0.8;" x="315.326512" xlink:href="#mbd747d615c" y="268.56"/>
      </g>
     </g>
     <g id="text_21">
      <!-- 0 -->
      <g transform="translate(301.964012 272.359219)scale(0.1 -0.1)">
       <use xlink:href="#DejaVuSans-48"/>
      </g>
     </g>
    </g>
    <g id="ytick_8">
     <g id="line2d_20">
      <g>
       <use style="stroke:#000000;stroke-width:0.8;" x="315.326512" xlink:href="#mbd747d615c" y="232.6153"/>
      </g>
     </g>
     <g id="text_22">
      <!-- 10 -->
      <g transform="translate(295.601512 236.414518)scale(0.1 -0.1)">
       <use xlink:href="#DejaVuSans-49"/>
       <use x="63.623047" xlink:href="#DejaVuSans-48"/>
      </g>
     </g>
    </g>
    <g id="ytick_9">
     <g id="line2d_21">
      <g>
       <use style="stroke:#000000;stroke-width:0.8;" x="315.326512" xlink:href="#mbd747d615c" y="196.670599"/>
      </g>
     </g>
     <g id="text_23">
      <!-- 20 -->
      <g transform="translate(295.601512 200.469818)scale(0.1 -0.1)">
       <use xlink:href="#DejaVuSans-50"/>
       <use x="63.623047" xlink:href="#DejaVuSans-48"/>
      </g>
     </g>
    </g>
    <g id="ytick_10">
     <g id="line2d_22">
      <g>
       <use style="stroke:#000000;stroke-width:0.8;" x="315.326512" xlink:href="#mbd747d615c" y="160.725899"/>
      </g>
     </g>
     <g id="text_24">
      <!-- 30 -->
      <g transform="translate(295.601512 164.525117)scale(0.1 -0.1)">
       <use xlink:href="#DejaVuSans-51"/>
       <use x="63.623047" xlink:href="#DejaVuSans-48"/>
      </g>
     </g>
    </g>
    <g id="ytick_11">
     <g id="line2d_23">
      <g>
       <use style="stroke:#000000;stroke-width:0.8;" x="315.326512" xlink:href="#mbd747d615c" y="124.781198"/>
      </g>
     </g>
     <g id="text_25">
      <!-- 40 -->
      <g transform="translate(295.601512 128.580417)scale(0.1 -0.1)">
       <use xlink:href="#DejaVuSans-52"/>
       <use x="63.623047" xlink:href="#DejaVuSans-48"/>
      </g>
     </g>
    </g>
    <g id="ytick_12">
     <g id="line2d_24">
      <g>
       <use style="stroke:#000000;stroke-width:0.8;" x="315.326512" xlink:href="#mbd747d615c" y="88.836498"/>
      </g>
     </g>
     <g id="text_26">
      <!-- 50 -->
      <g transform="translate(295.601512 92.635716)scale(0.1 -0.1)">
       <use xlink:href="#DejaVuSans-53"/>
       <use x="63.623047" xlink:href="#DejaVuSans-48"/>
      </g>
     </g>
    </g>
    <g id="ytick_13">
     <g id="line2d_25">
      <g>
       <use style="stroke:#000000;stroke-width:0.8;" x="315.326512" xlink:href="#mbd747d615c" y="52.891797"/>
      </g>
     </g>
     <g id="text_27">
      <!-- 60 -->
      <g transform="translate(295.601512 56.691016)scale(0.1 -0.1)">
       <use xlink:href="#DejaVuSans-54"/>
       <use x="63.623047" xlink:href="#DejaVuSans-48"/>
      </g>
     </g>
    </g>
   </g>
   <g id="patch_68">
    <path d="M 315.326512 268.56 
L 315.326512 34.56 
" style="fill:none;stroke:#000000;stroke-linecap:square;stroke-linejoin:miter;stroke-width:0.8;"/>
   </g>
   <g id="patch_69">
    <path d="M 564.48 268.56 
L 564.48 34.56 
" style="fill:none;stroke:#000000;stroke-linecap:square;stroke-linejoin:miter;stroke-width:0.8;"/>
   </g>
   <g id="patch_70">
    <path d="M 315.326512 268.56 
L 564.48 268.56 
" style="fill:none;stroke:#000000;stroke-linecap:square;stroke-linejoin:miter;stroke-width:0.8;"/>
   </g>
   <g id="patch_71">
    <path d="M 315.326512 34.56 
L 564.48 34.56 
" style="fill:none;stroke:#000000;stroke-linecap:square;stroke-linejoin:miter;stroke-width:0.8;"/>
   </g>
  </g>
  <g id="axes_3">
   <g id="patch_72">
    <path d="M 28.8 544.68 
L 277.953488 544.68 
L 277.953488 310.68 
L 28.8 310.68 
z
" style="fill:#ffffff;"/>
   </g>
   <g id="patch_73">
    <path clip-path="url(#p15280e0815)" d="M 40.125159 544.68 
L 47.675264 544.68 
L 47.675264 536.720816 
L 40.125159 536.720816 
z
" style="fill:#1f77b4;"/>
   </g>
   <g id="patch_74">
    <path clip-path="url(#p15280e0815)" d="M 47.675264 544.68 
L 55.22537 544.68 
L 55.22537 540.700408 
L 47.675264 540.700408 
z
" style="fill:#1f77b4;"/>
   </g>
   <g id="patch_75">
    <path clip-path="url(#p15280e0815)" d="M 55.22537 544.68 
L 62.775476 544.68 
L 62.775476 524.782041 
L 55.22537 524.782041 
z
" style="fill:#1f77b4;"/>
   </g>
   <g id="patch_76">
    <path clip-path="url(#p15280e0815)" d="M 62.775476 544.68 
L 70.325581 544.68 
L 70.325581 540.700408 
L 62.775476 540.700408 
z
" style="fill:#1f77b4;"/>
   </g>
   <g id="patch_77">
    <path clip-path="url(#p15280e0815)" d="M 70.325581 544.68 
L 77.875687 544.68 
L 77.875687 520.802449 
L 70.325581 520.802449 
z
" style="fill:#1f77b4;"/>
   </g>
   <g id="patch_78">
    <path clip-path="url(#p15280e0815)" d="M 77.875687 544.68 
L 85.425793 544.68 
L 85.425793 524.782041 
L 77.875687 524.782041 
z
" style="fill:#1f77b4;"/>
   </g>
   <g id="patch_79">
    <path clip-path="url(#p15280e0815)" d="M 85.425793 544.68 
L 92.975899 544.68 
L 92.975899 469.067755 
L 85.425793 469.067755 
z
" style="fill:#1f77b4;"/>
   </g>
   <g id="patch_80">
    <path clip-path="url(#p15280e0815)" d="M 92.975899 544.68 
L 100.526004 544.68 
L 100.526004 473.047347 
L 92.975899 473.047347 
z
" style="fill:#1f77b4;"/>
   </g>
   <g id="patch_81">
    <path clip-path="url(#p15280e0815)" d="M 100.526004 544.68 
L 108.07611 544.68 
L 108.07611 437.23102 
L 100.526004 437.23102 
z
" style="fill:#1f77b4;"/>
   </g>
   <g id="patch_82">
    <path clip-path="url(#p15280e0815)" d="M 108.07611 544.68 
L 115.626216 544.68 
L 115.626216 429.271837 
L 108.07611 429.271837 
z
" style="fill:#1f77b4;"/>
   </g>
   <g id="patch_83">
    <path clip-path="url(#p15280e0815)" d="M 115.626216 544.68 
L 123.176321 544.68 
L 123.176321 389.475918 
L 115.626216 389.475918 
z
" style="fill:#1f77b4;"/>
   </g>
   <g id="patch_84">
    <path clip-path="url(#p15280e0815)" d="M 123.176321 544.68 
L 130.726427 544.68 
L 130.726427 337.741224 
L 123.176321 337.741224 
z
" style="fill:#1f77b4;"/>
   </g>
   <g id="patch_85">
    <path clip-path="url(#p15280e0815)" d="M 130.726427 544.68 
L 138.276533 544.68 
L 138.276533 349.68 
L 130.726427 349.68 
z
" style="fill:#1f77b4;"/>
   </g>
   <g id="patch_86">
    <path clip-path="url(#p15280e0815)" d="M 138.276533 544.68 
L 145.826638 544.68 
L 145.826638 321.822857 
L 138.276533 321.822857 
z
" style="fill:#1f77b4;"/>
   </g>
   <g id="patch_87">
    <path clip-path="url(#p15280e0815)" d="M 145.826638 544.68 
L 153.376744 544.68 
L 153.376744 365.598367 
L 145.826638 365.598367 
z
" style="fill:#1f77b4;"/>
   </g>
   <g id="patch_88">
    <path clip-path="url(#p15280e0815)" d="M 153.376744 544.68 
L 160.92685 544.68 
L 160.92685 353.659592 
L 153.376744 353.659592 
z
" style="fill:#1f77b4;"/>
   </g>
   <g id="patch_89">
    <path clip-path="url(#p15280e0815)" d="M 160.92685 544.68 
L 168.476956 544.68 
L 168.476956 409.373878 
L 160.92685 409.373878 
z
" style="fill:#1f77b4;"/>
   </g>
   <g id="patch_90">
    <path clip-path="url(#p15280e0815)" d="M 168.476956 544.68 
L 176.027061 544.68 
L 176.027061 389.475918 
L 168.476956 389.475918 
z
" style="fill:#1f77b4;"/>
   </g>
   <g id="patch_91">
    <path clip-path="url(#p15280e0815)" d="M 176.027061 544.68 
L 183.577167 544.68 
L 183.577167 405.394286 
L 176.027061 405.394286 
z
" style="fill:#1f77b4;"/>
   </g>
   <g id="patch_92">
    <path clip-path="url(#p15280e0815)" d="M 183.577167 544.68 
L 191.127273 544.68 
L 191.127273 449.169796 
L 183.577167 449.169796 
z
" style="fill:#1f77b4;"/>
   </g>
   <g id="patch_93">
    <path clip-path="url(#p15280e0815)" d="M 191.127273 544.68 
L 198.677378 544.68 
L 198.677378 465.088163 
L 191.127273 465.088163 
z
" style="fill:#1f77b4;"/>
   </g>
   <g id="patch_94">
    <path clip-path="url(#p15280e0815)" d="M 198.677378 544.68 
L 206.227484 544.68 
L 206.227484 473.047347 
L 198.677378 473.047347 
z
" style="fill:#1f77b4;"/>
   </g>
   <g id="patch_95">
    <path clip-path="url(#p15280e0815)" d="M 206.227484 544.68 
L 213.77759 544.68 
L 213.77759 516.822857 
L 206.227484 516.822857 
z
" style="fill:#1f77b4;"/>
   </g>
   <g id="patch_96">
    <path clip-path="url(#p15280e0815)" d="M 213.77759 544.68 
L 221.327696 544.68 
L 221.327696 516.822857 
L 213.77759 516.822857 
z
" style="fill:#1f77b4;"/>
   </g>
   <g id="patch_97">
    <path clip-path="url(#p15280e0815)" d="M 221.327696 544.68 
L 228.877801 544.68 
L 228.877801 536.720816 
L 221.327696 536.720816 
z
" style="fill:#1f77b4;"/>
   </g>
   <g id="patch_98">
    <path clip-path="url(#p15280e0815)" d="M 228.877801 544.68 
L 236.427907 544.68 
L 236.427907 540.700408 
L 228.877801 540.700408 
z
" style="fill:#1f77b4;"/>
   </g>
   <g id="patch_99">
    <path clip-path="url(#p15280e0815)" d="M 236.427907 544.68 
L 243.978013 544.68 
L 243.978013 512.843265 
L 236.427907 512.843265 
z
" style="fill:#1f77b4;"/>
   </g>
   <g id="patch_100">
    <path clip-path="url(#p15280e0815)" d="M 243.978013 544.68 
L 251.528118 544.68 
L 251.528118 540.700408 
L 243.978013 540.700408 
z
" style="fill:#1f77b4;"/>
   </g>
   <g id="patch_101">
    <path clip-path="url(#p15280e0815)" d="M 251.528118 544.68 
L 259.078224 544.68 
L 259.078224 540.700408 
L 251.528118 540.700408 
z
" style="fill:#1f77b4;"/>
   </g>
   <g id="patch_102">
    <path clip-path="url(#p15280e0815)" d="M 259.078224 544.68 
L 266.62833 544.68 
L 266.62833 540.700408 
L 259.078224 540.700408 
z
" style="fill:#1f77b4;"/>
   </g>
   <g id="matplotlib.axis_5">
    <g id="xtick_13">
     <g id="line2d_26">
      <g>
       <use style="stroke:#000000;stroke-width:0.8;" x="32.943726" xlink:href="#m14139c7143" y="544.68"/>
      </g>
     </g>
     <g id="text_28">
      <!-- 0.070 -->
      <defs>
       <path d="M 8.203125 72.90625 
L 55.078125 72.90625 
L 55.078125 68.703125 
L 28.609375 0 
L 18.3125 0 
L 43.21875 64.59375 
L 8.203125 64.59375 
z
" id="DejaVuSans-55"/>
      </defs>
      <g transform="translate(18.629664 559.278437)scale(0.1 -0.1)">
       <use xlink:href="#DejaVuSans-48"/>
       <use x="63.623047" xlink:href="#DejaVuSans-46"/>
       <use x="95.410156" xlink:href="#DejaVuSans-48"/>
       <use x="159.033203" xlink:href="#DejaVuSans-55"/>
       <use x="222.65625" xlink:href="#DejaVuSans-48"/>
      </g>
     </g>
    </g>
    <g id="xtick_14">
     <g id="line2d_27">
      <g>
       <use style="stroke:#000000;stroke-width:0.8;" x="74.345095" xlink:href="#m14139c7143" y="544.68"/>
      </g>
     </g>
     <g id="text_29">
      <!-- 0.075 -->
      <g transform="translate(60.031032 559.278437)scale(0.1 -0.1)">
       <use xlink:href="#DejaVuSans-48"/>
       <use x="63.623047" xlink:href="#DejaVuSans-46"/>
       <use x="95.410156" xlink:href="#DejaVuSans-48"/>
       <use x="159.033203" xlink:href="#DejaVuSans-55"/>
       <use x="222.65625" xlink:href="#DejaVuSans-53"/>
      </g>
     </g>
    </g>
    <g id="xtick_15">
     <g id="line2d_28">
      <g>
       <use style="stroke:#000000;stroke-width:0.8;" x="115.746463" xlink:href="#m14139c7143" y="544.68"/>
      </g>
     </g>
     <g id="text_30">
      <!-- 0.080 -->
      <g transform="translate(101.432401 559.278437)scale(0.1 -0.1)">
       <use xlink:href="#DejaVuSans-48"/>
       <use x="63.623047" xlink:href="#DejaVuSans-46"/>
       <use x="95.410156" xlink:href="#DejaVuSans-48"/>
       <use x="159.033203" xlink:href="#DejaVuSans-56"/>
       <use x="222.65625" xlink:href="#DejaVuSans-48"/>
      </g>
     </g>
    </g>
    <g id="xtick_16">
     <g id="line2d_29">
      <g>
       <use style="stroke:#000000;stroke-width:0.8;" x="157.147832" xlink:href="#m14139c7143" y="544.68"/>
      </g>
     </g>
     <g id="text_31">
      <!-- 0.085 -->
      <g transform="translate(142.833769 559.278437)scale(0.1 -0.1)">
       <use xlink:href="#DejaVuSans-48"/>
       <use x="63.623047" xlink:href="#DejaVuSans-46"/>
       <use x="95.410156" xlink:href="#DejaVuSans-48"/>
       <use x="159.033203" xlink:href="#DejaVuSans-56"/>
       <use x="222.65625" xlink:href="#DejaVuSans-53"/>
      </g>
     </g>
    </g>
    <g id="xtick_17">
     <g id="line2d_30">
      <g>
       <use style="stroke:#000000;stroke-width:0.8;" x="198.5492" xlink:href="#m14139c7143" y="544.68"/>
      </g>
     </g>
     <g id="text_32">
      <!-- 0.090 -->
      <defs>
       <path d="M 10.984375 1.515625 
L 10.984375 10.5 
Q 14.703125 8.734375 18.5 7.8125 
Q 22.3125 6.890625 25.984375 6.890625 
Q 35.75 6.890625 40.890625 13.453125 
Q 46.046875 20.015625 46.78125 33.40625 
Q 43.953125 29.203125 39.59375 26.953125 
Q 35.25 24.703125 29.984375 24.703125 
Q 19.046875 24.703125 12.671875 31.3125 
Q 6.296875 37.9375 6.296875 49.421875 
Q 6.296875 60.640625 12.9375 67.421875 
Q 19.578125 74.21875 30.609375 74.21875 
Q 43.265625 74.21875 49.921875 64.515625 
Q 56.59375 54.828125 56.59375 36.375 
Q 56.59375 19.140625 48.40625 8.859375 
Q 40.234375 -1.421875 26.421875 -1.421875 
Q 22.703125 -1.421875 18.890625 -0.6875 
Q 15.09375 0.046875 10.984375 1.515625 
z
M 30.609375 32.421875 
Q 37.25 32.421875 41.125 36.953125 
Q 45.015625 41.5 45.015625 49.421875 
Q 45.015625 57.28125 41.125 61.84375 
Q 37.25 66.40625 30.609375 66.40625 
Q 23.96875 66.40625 20.09375 61.84375 
Q 16.21875 57.28125 16.21875 49.421875 
Q 16.21875 41.5 20.09375 36.953125 
Q 23.96875 32.421875 30.609375 32.421875 
z
" id="DejaVuSans-57"/>
      </defs>
      <g transform="translate(184.235137 559.278437)scale(0.1 -0.1)">
       <use xlink:href="#DejaVuSans-48"/>
       <use x="63.623047" xlink:href="#DejaVuSans-46"/>
       <use x="95.410156" xlink:href="#DejaVuSans-48"/>
       <use x="159.033203" xlink:href="#DejaVuSans-57"/>
       <use x="222.65625" xlink:href="#DejaVuSans-48"/>
      </g>
     </g>
    </g>
    <g id="xtick_18">
     <g id="line2d_31">
      <g>
       <use style="stroke:#000000;stroke-width:0.8;" x="239.950568" xlink:href="#m14139c7143" y="544.68"/>
      </g>
     </g>
     <g id="text_33">
      <!-- 0.095 -->
      <g transform="translate(225.636506 559.278437)scale(0.1 -0.1)">
       <use xlink:href="#DejaVuSans-48"/>
       <use x="63.623047" xlink:href="#DejaVuSans-46"/>
       <use x="95.410156" xlink:href="#DejaVuSans-48"/>
       <use x="159.033203" xlink:href="#DejaVuSans-57"/>
       <use x="222.65625" xlink:href="#DejaVuSans-53"/>
      </g>
     </g>
    </g>
    <g id="text_34">
     <!-- f_death -->
     <defs>
      <path d="M 37.109375 75.984375 
L 37.109375 68.5 
L 28.515625 68.5 
Q 23.6875 68.5 21.796875 66.546875 
Q 19.921875 64.59375 19.921875 59.515625 
L 19.921875 54.6875 
L 34.71875 54.6875 
L 34.71875 47.703125 
L 19.921875 47.703125 
L 19.921875 0 
L 10.890625 0 
L 10.890625 47.703125 
L 2.296875 47.703125 
L 2.296875 54.6875 
L 10.890625 54.6875 
L 10.890625 58.5 
Q 10.890625 67.625 15.140625 71.796875 
Q 19.390625 75.984375 28.609375 75.984375 
z
" id="DejaVuSans-102"/>
      <path d="M 56.203125 29.59375 
L 56.203125 25.203125 
L 14.890625 25.203125 
Q 15.484375 15.921875 20.484375 11.0625 
Q 25.484375 6.203125 34.421875 6.203125 
Q 39.59375 6.203125 44.453125 7.46875 
Q 49.3125 8.734375 54.109375 11.28125 
L 54.109375 2.78125 
Q 49.265625 0.734375 44.1875 -0.34375 
Q 39.109375 -1.421875 33.890625 -1.421875 
Q 20.796875 -1.421875 13.15625 6.1875 
Q 5.515625 13.8125 5.515625 26.8125 
Q 5.515625 40.234375 12.765625 48.109375 
Q 20.015625 56 32.328125 56 
Q 43.359375 56 49.78125 48.890625 
Q 56.203125 41.796875 56.203125 29.59375 
z
M 47.21875 32.234375 
Q 47.125 39.59375 43.09375 43.984375 
Q 39.0625 48.390625 32.421875 48.390625 
Q 24.90625 48.390625 20.390625 44.140625 
Q 15.875 39.890625 15.1875 32.171875 
z
" id="DejaVuSans-101"/>
      <path d="M 54.890625 33.015625 
L 54.890625 0 
L 45.90625 0 
L 45.90625 32.71875 
Q 45.90625 40.484375 42.875 44.328125 
Q 39.84375 48.1875 33.796875 48.1875 
Q 26.515625 48.1875 22.3125 43.546875 
Q 18.109375 38.921875 18.109375 30.90625 
L 18.109375 0 
L 9.078125 0 
L 9.078125 75.984375 
L 18.109375 75.984375 
L 18.109375 46.1875 
Q 21.34375 51.125 25.703125 53.5625 
Q 30.078125 56 35.796875 56 
Q 45.21875 56 50.046875 50.171875 
Q 54.890625 44.34375 54.890625 33.015625 
z
" id="DejaVuSans-104"/>
     </defs>
     <g transform="translate(134.672838 572.956563)scale(0.1 -0.1)">
      <use xlink:href="#DejaVuSans-102"/>
      <use x="35.205078" xlink:href="#DejaVuSans-95"/>
      <use x="85.205078" xlink:href="#DejaVuSans-100"/>
      <use x="148.681641" xlink:href="#DejaVuSans-101"/>
      <use x="210.205078" xlink:href="#DejaVuSans-97"/>
      <use x="271.484375" xlink:href="#DejaVuSans-116"/>
      <use x="310.693359" xlink:href="#DejaVuSans-104"/>
     </g>
    </g>
   </g>
   <g id="matplotlib.axis_6">
    <g id="ytick_14">
     <g id="line2d_32">
      <g>
       <use style="stroke:#000000;stroke-width:0.8;" x="28.8" xlink:href="#mbd747d615c" y="544.68"/>
      </g>
     </g>
     <g id="text_35">
      <!-- 0 -->
      <g transform="translate(15.4375 548.479219)scale(0.1 -0.1)">
       <use xlink:href="#DejaVuSans-48"/>
      </g>
     </g>
    </g>
    <g id="ytick_15">
     <g id="line2d_33">
      <g>
       <use style="stroke:#000000;stroke-width:0.8;" x="28.8" xlink:href="#mbd747d615c" y="504.884082"/>
      </g>
     </g>
     <g id="text_36">
      <!-- 10 -->
      <g transform="translate(9.075 508.6833)scale(0.1 -0.1)">
       <use xlink:href="#DejaVuSans-49"/>
       <use x="63.623047" xlink:href="#DejaVuSans-48"/>
      </g>
     </g>
    </g>
    <g id="ytick_16">
     <g id="line2d_34">
      <g>
       <use style="stroke:#000000;stroke-width:0.8;" x="28.8" xlink:href="#mbd747d615c" y="465.088163"/>
      </g>
     </g>
     <g id="text_37">
      <!-- 20 -->
      <g transform="translate(9.075 468.887382)scale(0.1 -0.1)">
       <use xlink:href="#DejaVuSans-50"/>
       <use x="63.623047" xlink:href="#DejaVuSans-48"/>
      </g>
     </g>
    </g>
    <g id="ytick_17">
     <g id="line2d_35">
      <g>
       <use style="stroke:#000000;stroke-width:0.8;" x="28.8" xlink:href="#mbd747d615c" y="425.292245"/>
      </g>
     </g>
     <g id="text_38">
      <!-- 30 -->
      <g transform="translate(9.075 429.091464)scale(0.1 -0.1)">
       <use xlink:href="#DejaVuSans-51"/>
       <use x="63.623047" xlink:href="#DejaVuSans-48"/>
      </g>
     </g>
    </g>
    <g id="ytick_18">
     <g id="line2d_36">
      <g>
       <use style="stroke:#000000;stroke-width:0.8;" x="28.8" xlink:href="#mbd747d615c" y="385.496327"/>
      </g>
     </g>
     <g id="text_39">
      <!-- 40 -->
      <g transform="translate(9.075 389.295545)scale(0.1 -0.1)">
       <use xlink:href="#DejaVuSans-52"/>
       <use x="63.623047" xlink:href="#DejaVuSans-48"/>
      </g>
     </g>
    </g>
    <g id="ytick_19">
     <g id="line2d_37">
      <g>
       <use style="stroke:#000000;stroke-width:0.8;" x="28.8" xlink:href="#mbd747d615c" y="345.700408"/>
      </g>
     </g>
     <g id="text_40">
      <!-- 50 -->
      <g transform="translate(9.075 349.499627)scale(0.1 -0.1)">
       <use xlink:href="#DejaVuSans-53"/>
       <use x="63.623047" xlink:href="#DejaVuSans-48"/>
      </g>
     </g>
    </g>
   </g>
   <g id="patch_103">
    <path d="M 28.8 544.68 
L 28.8 310.68 
" style="fill:none;stroke:#000000;stroke-linecap:square;stroke-linejoin:miter;stroke-width:0.8;"/>
   </g>
   <g id="patch_104">
    <path d="M 277.953488 544.68 
L 277.953488 310.68 
" style="fill:none;stroke:#000000;stroke-linecap:square;stroke-linejoin:miter;stroke-width:0.8;"/>
   </g>
   <g id="patch_105">
    <path d="M 28.8 544.68 
L 277.953488 544.68 
" style="fill:none;stroke:#000000;stroke-linecap:square;stroke-linejoin:miter;stroke-width:0.8;"/>
   </g>
   <g id="patch_106">
    <path d="M 28.8 310.68 
L 277.953488 310.68 
" style="fill:none;stroke:#000000;stroke-linecap:square;stroke-linejoin:miter;stroke-width:0.8;"/>
   </g>
  </g>
  <g id="axes_4">
   <g id="patch_107">
    <path d="M 315.326512 544.68 
L 564.48 544.68 
L 564.48 310.68 
L 315.326512 310.68 
z
" style="fill:#ffffff;"/>
   </g>
   <g id="patch_108">
    <path clip-path="url(#pcb69f6148b)" d="M 326.65167 544.68 
L 334.201776 544.68 
L 334.201776 541.303377 
L 326.65167 541.303377 
z
" style="fill:#1f77b4;"/>
   </g>
   <g id="patch_109">
    <path clip-path="url(#pcb69f6148b)" d="M 334.201776 544.68 
L 341.751882 544.68 
L 341.751882 544.68 
L 334.201776 544.68 
z
" style="fill:#1f77b4;"/>
   </g>
   <g id="patch_110">
    <path clip-path="url(#pcb69f6148b)" d="M 341.751882 544.68 
L 349.301987 544.68 
L 349.301987 544.68 
L 341.751882 544.68 
z
" style="fill:#1f77b4;"/>
   </g>
   <g id="patch_111">
    <path clip-path="url(#pcb69f6148b)" d="M 349.301987 544.68 
L 356.852093 544.68 
L 356.852093 541.303377 
L 349.301987 541.303377 
z
" style="fill:#1f77b4;"/>
   </g>
   <g id="patch_112">
    <path clip-path="url(#pcb69f6148b)" d="M 356.852093 544.68 
L 364.402199 544.68 
L 364.402199 544.68 
L 356.852093 544.68 
z
" style="fill:#1f77b4;"/>
   </g>
   <g id="patch_113">
    <path clip-path="url(#pcb69f6148b)" d="M 364.402199 544.68 
L 371.952304 544.68 
L 371.952304 517.667013 
L 364.402199 517.667013 
z
" style="fill:#1f77b4;"/>
   </g>
   <g id="patch_114">
    <path clip-path="url(#pcb69f6148b)" d="M 371.952304 544.68 
L 379.50241 544.68 
L 379.50241 517.667013 
L 371.952304 517.667013 
z
" style="fill:#1f77b4;"/>
   </g>
   <g id="patch_115">
    <path clip-path="url(#pcb69f6148b)" d="M 379.50241 544.68 
L 387.052516 544.68 
L 387.052516 500.783896 
L 379.50241 500.783896 
z
" style="fill:#1f77b4;"/>
   </g>
   <g id="patch_116">
    <path clip-path="url(#pcb69f6148b)" d="M 387.052516 544.68 
L 394.602622 544.68 
L 394.602622 500.783896 
L 387.052516 500.783896 
z
" style="fill:#1f77b4;"/>
   </g>
   <g id="patch_117">
    <path clip-path="url(#pcb69f6148b)" d="M 394.602622 544.68 
L 402.152727 544.68 
L 402.152727 467.017662 
L 394.602622 467.017662 
z
" style="fill:#1f77b4;"/>
   </g>
   <g id="patch_118">
    <path clip-path="url(#pcb69f6148b)" d="M 402.152727 544.68 
L 409.702833 544.68 
L 409.702833 463.641039 
L 402.152727 463.641039 
z
" style="fill:#1f77b4;"/>
   </g>
   <g id="patch_119">
    <path clip-path="url(#pcb69f6148b)" d="M 409.702833 544.68 
L 417.252939 544.68 
L 417.252939 399.485195 
L 409.702833 399.485195 
z
" style="fill:#1f77b4;"/>
   </g>
   <g id="patch_120">
    <path clip-path="url(#pcb69f6148b)" d="M 417.252939 544.68 
L 424.803044 544.68 
L 424.803044 396.108571 
L 417.252939 396.108571 
z
" style="fill:#1f77b4;"/>
   </g>
   <g id="patch_121">
    <path clip-path="url(#pcb69f6148b)" d="M 424.803044 544.68 
L 432.35315 544.68 
L 432.35315 352.212468 
L 424.803044 352.212468 
z
" style="fill:#1f77b4;"/>
   </g>
   <g id="patch_122">
    <path clip-path="url(#pcb69f6148b)" d="M 432.35315 544.68 
L 439.903256 544.68 
L 439.903256 321.822857 
L 432.35315 321.822857 
z
" style="fill:#1f77b4;"/>
   </g>
   <g id="patch_123">
    <path clip-path="url(#pcb69f6148b)" d="M 439.903256 544.68 
L 447.453362 544.68 
L 447.453362 392.731948 
L 439.903256 392.731948 
z
" style="fill:#1f77b4;"/>
   </g>
   <g id="patch_124">
    <path clip-path="url(#pcb69f6148b)" d="M 447.453362 544.68 
L 455.003467 544.68 
L 455.003467 338.705974 
L 447.453362 338.705974 
z
" style="fill:#1f77b4;"/>
   </g>
   <g id="patch_125">
    <path clip-path="url(#pcb69f6148b)" d="M 455.003467 544.68 
L 462.553573 544.68 
L 462.553573 362.342338 
L 455.003467 362.342338 
z
" style="fill:#1f77b4;"/>
   </g>
   <g id="patch_126">
    <path clip-path="url(#pcb69f6148b)" d="M 462.553573 544.68 
L 470.103679 544.68 
L 470.103679 409.615065 
L 462.553573 409.615065 
z
" style="fill:#1f77b4;"/>
   </g>
   <g id="patch_127">
    <path clip-path="url(#pcb69f6148b)" d="M 470.103679 544.68 
L 477.653784 544.68 
L 477.653784 433.251429 
L 470.103679 433.251429 
z
" style="fill:#1f77b4;"/>
   </g>
   <g id="patch_128">
    <path clip-path="url(#pcb69f6148b)" d="M 477.653784 544.68 
L 485.20389 544.68 
L 485.20389 477.147532 
L 477.653784 477.147532 
z
" style="fill:#1f77b4;"/>
   </g>
   <g id="patch_129">
    <path clip-path="url(#pcb69f6148b)" d="M 485.20389 544.68 
L 492.753996 544.68 
L 492.753996 497.407273 
L 485.20389 497.407273 
z
" style="fill:#1f77b4;"/>
   </g>
   <g id="patch_130">
    <path clip-path="url(#pcb69f6148b)" d="M 492.753996 544.68 
L 500.304101 544.68 
L 500.304101 490.654026 
L 492.753996 490.654026 
z
" style="fill:#1f77b4;"/>
   </g>
   <g id="patch_131">
    <path clip-path="url(#pcb69f6148b)" d="M 500.304101 544.68 
L 507.854207 544.68 
L 507.854207 527.796883 
L 500.304101 527.796883 
z
" style="fill:#1f77b4;"/>
   </g>
   <g id="patch_132">
    <path clip-path="url(#pcb69f6148b)" d="M 507.854207 544.68 
L 515.404313 544.68 
L 515.404313 524.42026 
L 507.854207 524.42026 
z
" style="fill:#1f77b4;"/>
   </g>
   <g id="patch_133">
    <path clip-path="url(#pcb69f6148b)" d="M 515.404313 544.68 
L 522.954419 544.68 
L 522.954419 541.303377 
L 515.404313 541.303377 
z
" style="fill:#1f77b4;"/>
   </g>
   <g id="patch_134">
    <path clip-path="url(#pcb69f6148b)" d="M 522.954419 544.68 
L 530.504524 544.68 
L 530.504524 537.926753 
L 522.954419 537.926753 
z
" style="fill:#1f77b4;"/>
   </g>
   <g id="patch_135">
    <path clip-path="url(#pcb69f6148b)" d="M 530.504524 544.68 
L 538.05463 544.68 
L 538.05463 544.68 
L 530.504524 544.68 
z
" style="fill:#1f77b4;"/>
   </g>
   <g id="patch_136">
    <path clip-path="url(#pcb69f6148b)" d="M 538.05463 544.68 
L 545.604736 544.68 
L 545.604736 544.68 
L 538.05463 544.68 
z
" style="fill:#1f77b4;"/>
   </g>
   <g id="patch_137">
    <path clip-path="url(#pcb69f6148b)" d="M 545.604736 544.68 
L 553.154841 544.68 
L 553.154841 537.926753 
L 545.604736 537.926753 
z
" style="fill:#1f77b4;"/>
   </g>
   <g id="matplotlib.axis_7">
    <g id="xtick_19">
     <g id="line2d_38">
      <g>
       <use style="stroke:#000000;stroke-width:0.8;" x="327.124376" xlink:href="#m14139c7143" y="544.68"/>
      </g>
     </g>
     <g id="text_41">
      <!-- 22 -->
      <g transform="translate(320.761876 559.278437)scale(0.1 -0.1)">
       <use xlink:href="#DejaVuSans-50"/>
       <use x="63.623047" xlink:href="#DejaVuSans-50"/>
      </g>
     </g>
    </g>
    <g id="xtick_20">
     <g id="line2d_39">
      <g>
       <use style="stroke:#000000;stroke-width:0.8;" x="367.600548" xlink:href="#m14139c7143" y="544.68"/>
      </g>
     </g>
     <g id="text_42">
      <!-- 23 -->
      <g transform="translate(361.238048 559.278437)scale(0.1 -0.1)">
       <use xlink:href="#DejaVuSans-50"/>
       <use x="63.623047" xlink:href="#DejaVuSans-51"/>
      </g>
     </g>
    </g>
    <g id="xtick_21">
     <g id="line2d_40">
      <g>
       <use style="stroke:#000000;stroke-width:0.8;" x="408.07672" xlink:href="#m14139c7143" y="544.68"/>
      </g>
     </g>
     <g id="text_43">
      <!-- 24 -->
      <g transform="translate(401.71422 559.278437)scale(0.1 -0.1)">
       <use xlink:href="#DejaVuSans-50"/>
       <use x="63.623047" xlink:href="#DejaVuSans-52"/>
      </g>
     </g>
    </g>
    <g id="xtick_22">
     <g id="line2d_41">
      <g>
       <use style="stroke:#000000;stroke-width:0.8;" x="448.552891" xlink:href="#m14139c7143" y="544.68"/>
      </g>
     </g>
     <g id="text_44">
      <!-- 25 -->
      <g transform="translate(442.190391 559.278437)scale(0.1 -0.1)">
       <use xlink:href="#DejaVuSans-50"/>
       <use x="63.623047" xlink:href="#DejaVuSans-53"/>
      </g>
     </g>
    </g>
    <g id="xtick_23">
     <g id="line2d_42">
      <g>
       <use style="stroke:#000000;stroke-width:0.8;" x="489.029063" xlink:href="#m14139c7143" y="544.68"/>
      </g>
     </g>
     <g id="text_45">
      <!-- 26 -->
      <g transform="translate(482.666563 559.278437)scale(0.1 -0.1)">
       <use xlink:href="#DejaVuSans-50"/>
       <use x="63.623047" xlink:href="#DejaVuSans-54"/>
      </g>
     </g>
    </g>
    <g id="xtick_24">
     <g id="line2d_43">
      <g>
       <use style="stroke:#000000;stroke-width:0.8;" x="529.505235" xlink:href="#m14139c7143" y="544.68"/>
      </g>
     </g>
     <g id="text_46">
      <!-- 27 -->
      <g transform="translate(523.142735 559.278437)scale(0.1 -0.1)">
       <use xlink:href="#DejaVuSans-50"/>
       <use x="63.623047" xlink:href="#DejaVuSans-55"/>
      </g>
     </g>
    </g>
    <g id="text_47">
     <!-- m_death -->
     <g transform="translate(418.089193 572.956563)scale(0.1 -0.1)">
      <use xlink:href="#DejaVuSans-109"/>
      <use x="97.412109" xlink:href="#DejaVuSans-95"/>
      <use x="147.412109" xlink:href="#DejaVuSans-100"/>
      <use x="210.888672" xlink:href="#DejaVuSans-101"/>
      <use x="272.412109" xlink:href="#DejaVuSans-97"/>
      <use x="333.691406" xlink:href="#DejaVuSans-116"/>
      <use x="372.900391" xlink:href="#DejaVuSans-104"/>
     </g>
    </g>
   </g>
   <g id="matplotlib.axis_8">
    <g id="ytick_20">
     <g id="line2d_44">
      <g>
       <use style="stroke:#000000;stroke-width:0.8;" x="315.326512" xlink:href="#mbd747d615c" y="544.68"/>
      </g>
     </g>
     <g id="text_48">
      <!-- 0 -->
      <g transform="translate(301.964012 548.479219)scale(0.1 -0.1)">
       <use xlink:href="#DejaVuSans-48"/>
      </g>
     </g>
    </g>
    <g id="ytick_21">
     <g id="line2d_45">
      <g>
       <use style="stroke:#000000;stroke-width:0.8;" x="315.326512" xlink:href="#mbd747d615c" y="510.913766"/>
      </g>
     </g>
     <g id="text_49">
      <!-- 10 -->
      <g transform="translate(295.601512 514.712985)scale(0.1 -0.1)">
       <use xlink:href="#DejaVuSans-49"/>
       <use x="63.623047" xlink:href="#DejaVuSans-48"/>
      </g>
     </g>
    </g>
    <g id="ytick_22">
     <g id="line2d_46">
      <g>
       <use style="stroke:#000000;stroke-width:0.8;" x="315.326512" xlink:href="#mbd747d615c" y="477.147532"/>
      </g>
     </g>
     <g id="text_50">
      <!-- 20 -->
      <g transform="translate(295.601512 480.946751)scale(0.1 -0.1)">
       <use xlink:href="#DejaVuSans-50"/>
       <use x="63.623047" xlink:href="#DejaVuSans-48"/>
      </g>
     </g>
    </g>
    <g id="ytick_23">
     <g id="line2d_47">
      <g>
       <use style="stroke:#000000;stroke-width:0.8;" x="315.326512" xlink:href="#mbd747d615c" y="443.381299"/>
      </g>
     </g>
     <g id="text_51">
      <!-- 30 -->
      <g transform="translate(295.601512 447.180517)scale(0.1 -0.1)">
       <use xlink:href="#DejaVuSans-51"/>
       <use x="63.623047" xlink:href="#DejaVuSans-48"/>
      </g>
     </g>
    </g>
    <g id="ytick_24">
     <g id="line2d_48">
      <g>
       <use style="stroke:#000000;stroke-width:0.8;" x="315.326512" xlink:href="#mbd747d615c" y="409.615065"/>
      </g>
     </g>
     <g id="text_52">
      <!-- 40 -->
      <g transform="translate(295.601512 413.414284)scale(0.1 -0.1)">
       <use xlink:href="#DejaVuSans-52"/>
       <use x="63.623047" xlink:href="#DejaVuSans-48"/>
      </g>
     </g>
    </g>
    <g id="ytick_25">
     <g id="line2d_49">
      <g>
       <use style="stroke:#000000;stroke-width:0.8;" x="315.326512" xlink:href="#mbd747d615c" y="375.848831"/>
      </g>
     </g>
     <g id="text_53">
      <!-- 50 -->
      <g transform="translate(295.601512 379.64805)scale(0.1 -0.1)">
       <use xlink:href="#DejaVuSans-53"/>
       <use x="63.623047" xlink:href="#DejaVuSans-48"/>
      </g>
     </g>
    </g>
    <g id="ytick_26">
     <g id="line2d_50">
      <g>
       <use style="stroke:#000000;stroke-width:0.8;" x="315.326512" xlink:href="#mbd747d615c" y="342.082597"/>
      </g>
     </g>
     <g id="text_54">
      <!-- 60 -->
      <g transform="translate(295.601512 345.881816)scale(0.1 -0.1)">
       <use xlink:href="#DejaVuSans-54"/>
       <use x="63.623047" xlink:href="#DejaVuSans-48"/>
      </g>
     </g>
    </g>
   </g>
   <g id="patch_138">
    <path d="M 315.326512 544.68 
L 315.326512 310.68 
" style="fill:none;stroke:#000000;stroke-linecap:square;stroke-linejoin:miter;stroke-width:0.8;"/>
   </g>
   <g id="patch_139">
    <path d="M 564.48 544.68 
L 564.48 310.68 
" style="fill:none;stroke:#000000;stroke-linecap:square;stroke-linejoin:miter;stroke-width:0.8;"/>
   </g>
   <g id="patch_140">
    <path d="M 315.326512 544.68 
L 564.48 544.68 
" style="fill:none;stroke:#000000;stroke-linecap:square;stroke-linejoin:miter;stroke-width:0.8;"/>
   </g>
   <g id="patch_141">
    <path d="M 315.326512 310.68 
L 564.48 310.68 
" style="fill:none;stroke:#000000;stroke-linecap:square;stroke-linejoin:miter;stroke-width:0.8;"/>
   </g>
  </g>
  <g id="axes_5">
   <g id="patch_142">
    <path d="M 28.8 820.8 
L 277.953488 820.8 
L 277.953488 586.8 
L 28.8 586.8 
z
" style="fill:#ffffff;"/>
   </g>
   <g id="patch_143">
    <path clip-path="url(#p712b64cc53)" d="M 40.125159 820.8 
L 47.675264 820.8 
L 47.675264 817.146604 
L 40.125159 817.146604 
z
" style="fill:#1f77b4;"/>
   </g>
   <g id="patch_144">
    <path clip-path="url(#p712b64cc53)" d="M 47.675264 820.8 
L 55.22537 820.8 
L 55.22537 813.493208 
L 47.675264 813.493208 
z
" style="fill:#1f77b4;"/>
   </g>
   <g id="patch_145">
    <path clip-path="url(#p712b64cc53)" d="M 55.22537 820.8 
L 62.775476 820.8 
L 62.775476 795.22623 
L 55.22537 795.22623 
z
" style="fill:#1f77b4;"/>
   </g>
   <g id="patch_146">
    <path clip-path="url(#p712b64cc53)" d="M 62.775476 820.8 
L 70.325581 820.8 
L 70.325581 806.186417 
L 62.775476 806.186417 
z
" style="fill:#1f77b4;"/>
   </g>
   <g id="patch_147">
    <path clip-path="url(#p712b64cc53)" d="M 70.325581 820.8 
L 77.875687 820.8 
L 77.875687 784.266042 
L 70.325581 784.266042 
z
" style="fill:#1f77b4;"/>
   </g>
   <g id="patch_148">
    <path clip-path="url(#p712b64cc53)" d="M 77.875687 820.8 
L 85.425793 820.8 
L 85.425793 769.652459 
L 77.875687 769.652459 
z
" style="fill:#1f77b4;"/>
   </g>
   <g id="patch_149">
    <path clip-path="url(#p712b64cc53)" d="M 85.425793 820.8 
L 92.975899 820.8 
L 92.975899 740.425293 
L 85.425793 740.425293 
z
" style="fill:#1f77b4;"/>
   </g>
   <g id="patch_150">
    <path clip-path="url(#p712b64cc53)" d="M 92.975899 820.8 
L 100.526004 820.8 
L 100.526004 725.81171 
L 92.975899 725.81171 
z
" style="fill:#1f77b4;"/>
   </g>
   <g id="patch_151">
    <path clip-path="url(#p712b64cc53)" d="M 100.526004 820.8 
L 108.07611 820.8 
L 108.07611 714.851522 
L 100.526004 714.851522 
z
" style="fill:#1f77b4;"/>
   </g>
   <g id="patch_152">
    <path clip-path="url(#p712b64cc53)" d="M 108.07611 820.8 
L 115.626216 820.8 
L 115.626216 718.504918 
L 108.07611 718.504918 
z
" style="fill:#1f77b4;"/>
   </g>
   <g id="patch_153">
    <path clip-path="url(#p712b64cc53)" d="M 115.626216 820.8 
L 123.176321 820.8 
L 123.176321 645.437002 
L 115.626216 645.437002 
z
" style="fill:#1f77b4;"/>
   </g>
   <g id="patch_154">
    <path clip-path="url(#p712b64cc53)" d="M 123.176321 820.8 
L 130.726427 820.8 
L 130.726427 616.209836 
L 123.176321 616.209836 
z
" style="fill:#1f77b4;"/>
   </g>
   <g id="patch_155">
    <path clip-path="url(#p712b64cc53)" d="M 130.726427 820.8 
L 138.276533 820.8 
L 138.276533 652.743794 
L 130.726427 652.743794 
z
" style="fill:#1f77b4;"/>
   </g>
   <g id="patch_156">
    <path clip-path="url(#p712b64cc53)" d="M 138.276533 820.8 
L 145.826638 820.8 
L 145.826638 597.942857 
L 138.276533 597.942857 
z
" style="fill:#1f77b4;"/>
   </g>
   <g id="patch_157">
    <path clip-path="url(#p712b64cc53)" d="M 145.826638 820.8 
L 153.376744 820.8 
L 153.376744 641.783607 
L 145.826638 641.783607 
z
" style="fill:#1f77b4;"/>
   </g>
   <g id="patch_158">
    <path clip-path="url(#p712b64cc53)" d="M 153.376744 820.8 
L 160.92685 820.8 
L 160.92685 674.664169 
L 153.376744 674.664169 
z
" style="fill:#1f77b4;"/>
   </g>
   <g id="patch_159">
    <path clip-path="url(#p712b64cc53)" d="M 160.92685 820.8 
L 168.476956 820.8 
L 168.476956 696.584543 
L 160.92685 696.584543 
z
" style="fill:#1f77b4;"/>
   </g>
   <g id="patch_160">
    <path clip-path="url(#p712b64cc53)" d="M 168.476956 820.8 
L 176.027061 820.8 
L 176.027061 722.158314 
L 168.476956 722.158314 
z
" style="fill:#1f77b4;"/>
   </g>
   <g id="patch_161">
    <path clip-path="url(#p712b64cc53)" d="M 176.027061 820.8 
L 183.577167 820.8 
L 183.577167 755.038876 
L 176.027061 755.038876 
z
" style="fill:#1f77b4;"/>
   </g>
   <g id="patch_162">
    <path clip-path="url(#p712b64cc53)" d="M 183.577167 820.8 
L 191.127273 820.8 
L 191.127273 740.425293 
L 183.577167 740.425293 
z
" style="fill:#1f77b4;"/>
   </g>
   <g id="patch_163">
    <path clip-path="url(#p712b64cc53)" d="M 191.127273 820.8 
L 198.677378 820.8 
L 198.677378 733.118501 
L 191.127273 733.118501 
z
" style="fill:#1f77b4;"/>
   </g>
   <g id="patch_164">
    <path clip-path="url(#p712b64cc53)" d="M 198.677378 820.8 
L 206.227484 820.8 
L 206.227484 780.612646 
L 198.677378 780.612646 
z
" style="fill:#1f77b4;"/>
   </g>
   <g id="patch_165">
    <path clip-path="url(#p712b64cc53)" d="M 206.227484 820.8 
L 213.77759 820.8 
L 213.77759 791.572834 
L 206.227484 791.572834 
z
" style="fill:#1f77b4;"/>
   </g>
   <g id="patch_166">
    <path clip-path="url(#p712b64cc53)" d="M 213.77759 820.8 
L 221.327696 820.8 
L 221.327696 806.186417 
L 213.77759 806.186417 
z
" style="fill:#1f77b4;"/>
   </g>
   <g id="patch_167">
    <path clip-path="url(#p712b64cc53)" d="M 221.327696 820.8 
L 228.877801 820.8 
L 228.877801 809.839813 
L 221.327696 809.839813 
z
" style="fill:#1f77b4;"/>
   </g>
   <g id="patch_168">
    <path clip-path="url(#p712b64cc53)" d="M 228.877801 820.8 
L 236.427907 820.8 
L 236.427907 817.146604 
L 228.877801 817.146604 
z
" style="fill:#1f77b4;"/>
   </g>
   <g id="patch_169">
    <path clip-path="url(#p712b64cc53)" d="M 236.427907 820.8 
L 243.978013 820.8 
L 243.978013 813.493208 
L 236.427907 813.493208 
z
" style="fill:#1f77b4;"/>
   </g>
   <g id="patch_170">
    <path clip-path="url(#p712b64cc53)" d="M 243.978013 820.8 
L 251.528118 820.8 
L 251.528118 817.146604 
L 243.978013 817.146604 
z
" style="fill:#1f77b4;"/>
   </g>
   <g id="patch_171">
    <path clip-path="url(#p712b64cc53)" d="M 251.528118 820.8 
L 259.078224 820.8 
L 259.078224 820.8 
L 251.528118 820.8 
z
" style="fill:#1f77b4;"/>
   </g>
   <g id="patch_172">
    <path clip-path="url(#p712b64cc53)" d="M 259.078224 820.8 
L 266.62833 820.8 
L 266.62833 813.493208 
L 259.078224 813.493208 
z
" style="fill:#1f77b4;"/>
   </g>
   <g id="matplotlib.axis_9">
    <g id="xtick_25">
     <g id="line2d_51">
      <g>
       <use style="stroke:#000000;stroke-width:0.8;" x="29.961027" xlink:href="#m14139c7143" y="820.8"/>
      </g>
     </g>
     <g id="text_55">
      <!-- 0.21 -->
      <g transform="translate(18.828214 835.398438)scale(0.1 -0.1)">
       <use xlink:href="#DejaVuSans-48"/>
       <use x="63.623047" xlink:href="#DejaVuSans-46"/>
       <use x="95.410156" xlink:href="#DejaVuSans-50"/>
       <use x="159.033203" xlink:href="#DejaVuSans-49"/>
      </g>
     </g>
    </g>
    <g id="xtick_26">
     <g id="line2d_52">
      <g>
       <use style="stroke:#000000;stroke-width:0.8;" x="70.812783" xlink:href="#m14139c7143" y="820.8"/>
      </g>
     </g>
     <g id="text_56">
      <!-- 0.22 -->
      <g transform="translate(59.679971 835.398438)scale(0.1 -0.1)">
       <use xlink:href="#DejaVuSans-48"/>
       <use x="63.623047" xlink:href="#DejaVuSans-46"/>
       <use x="95.410156" xlink:href="#DejaVuSans-50"/>
       <use x="159.033203" xlink:href="#DejaVuSans-50"/>
      </g>
     </g>
    </g>
    <g id="xtick_27">
     <g id="line2d_53">
      <g>
       <use style="stroke:#000000;stroke-width:0.8;" x="111.66454" xlink:href="#m14139c7143" y="820.8"/>
      </g>
     </g>
     <g id="text_57">
      <!-- 0.23 -->
      <g transform="translate(100.531727 835.398438)scale(0.1 -0.1)">
       <use xlink:href="#DejaVuSans-48"/>
       <use x="63.623047" xlink:href="#DejaVuSans-46"/>
       <use x="95.410156" xlink:href="#DejaVuSans-50"/>
       <use x="159.033203" xlink:href="#DejaVuSans-51"/>
      </g>
     </g>
    </g>
    <g id="xtick_28">
     <g id="line2d_54">
      <g>
       <use style="stroke:#000000;stroke-width:0.8;" x="152.516296" xlink:href="#m14139c7143" y="820.8"/>
      </g>
     </g>
     <g id="text_58">
      <!-- 0.24 -->
      <g transform="translate(141.383484 835.398438)scale(0.1 -0.1)">
       <use xlink:href="#DejaVuSans-48"/>
       <use x="63.623047" xlink:href="#DejaVuSans-46"/>
       <use x="95.410156" xlink:href="#DejaVuSans-50"/>
       <use x="159.033203" xlink:href="#DejaVuSans-52"/>
      </g>
     </g>
    </g>
    <g id="xtick_29">
     <g id="line2d_55">
      <g>
       <use style="stroke:#000000;stroke-width:0.8;" x="193.368053" xlink:href="#m14139c7143" y="820.8"/>
      </g>
     </g>
     <g id="text_59">
      <!-- 0.25 -->
      <g transform="translate(182.23524 835.398438)scale(0.1 -0.1)">
       <use xlink:href="#DejaVuSans-48"/>
       <use x="63.623047" xlink:href="#DejaVuSans-46"/>
       <use x="95.410156" xlink:href="#DejaVuSans-50"/>
       <use x="159.033203" xlink:href="#DejaVuSans-53"/>
      </g>
     </g>
    </g>
    <g id="xtick_30">
     <g id="line2d_56">
      <g>
       <use style="stroke:#000000;stroke-width:0.8;" x="234.219809" xlink:href="#m14139c7143" y="820.8"/>
      </g>
     </g>
     <g id="text_60">
      <!-- 0.26 -->
      <g transform="translate(223.086997 835.398438)scale(0.1 -0.1)">
       <use xlink:href="#DejaVuSans-48"/>
       <use x="63.623047" xlink:href="#DejaVuSans-46"/>
       <use x="95.410156" xlink:href="#DejaVuSans-50"/>
       <use x="159.033203" xlink:href="#DejaVuSans-54"/>
      </g>
     </g>
    </g>
    <g id="xtick_31">
     <g id="line2d_57">
      <g>
       <use style="stroke:#000000;stroke-width:0.8;" x="275.071566" xlink:href="#m14139c7143" y="820.8"/>
      </g>
     </g>
     <g id="text_61">
      <!-- 0.27 -->
      <g transform="translate(263.938754 835.398438)scale(0.1 -0.1)">
       <use xlink:href="#DejaVuSans-48"/>
       <use x="63.623047" xlink:href="#DejaVuSans-46"/>
       <use x="95.410156" xlink:href="#DejaVuSans-50"/>
       <use x="159.033203" xlink:href="#DejaVuSans-55"/>
      </g>
     </g>
    </g>
    <g id="text_62">
     <!-- f_hospital -->
     <defs>
      <path d="M 44.28125 53.078125 
L 44.28125 44.578125 
Q 40.484375 46.53125 36.375 47.5 
Q 32.28125 48.484375 27.875 48.484375 
Q 21.1875 48.484375 17.84375 46.4375 
Q 14.5 44.390625 14.5 40.28125 
Q 14.5 37.15625 16.890625 35.375 
Q 19.28125 33.59375 26.515625 31.984375 
L 29.59375 31.296875 
Q 39.15625 29.25 43.1875 25.515625 
Q 47.21875 21.78125 47.21875 15.09375 
Q 47.21875 7.46875 41.1875 3.015625 
Q 35.15625 -1.421875 24.609375 -1.421875 
Q 20.21875 -1.421875 15.453125 -0.5625 
Q 10.6875 0.296875 5.421875 2 
L 5.421875 11.28125 
Q 10.40625 8.6875 15.234375 7.390625 
Q 20.0625 6.109375 24.8125 6.109375 
Q 31.15625 6.109375 34.5625 8.28125 
Q 37.984375 10.453125 37.984375 14.40625 
Q 37.984375 18.0625 35.515625 20.015625 
Q 33.0625 21.96875 24.703125 23.78125 
L 21.578125 24.515625 
Q 13.234375 26.265625 9.515625 29.90625 
Q 5.8125 33.546875 5.8125 39.890625 
Q 5.8125 47.609375 11.28125 51.796875 
Q 16.75 56 26.8125 56 
Q 31.78125 56 36.171875 55.265625 
Q 40.578125 54.546875 44.28125 53.078125 
z
" id="DejaVuSans-115"/>
      <path d="M 18.109375 8.203125 
L 18.109375 -20.796875 
L 9.078125 -20.796875 
L 9.078125 54.6875 
L 18.109375 54.6875 
L 18.109375 46.390625 
Q 20.953125 51.265625 25.265625 53.625 
Q 29.59375 56 35.59375 56 
Q 45.5625 56 51.78125 48.09375 
Q 58.015625 40.1875 58.015625 27.296875 
Q 58.015625 14.40625 51.78125 6.484375 
Q 45.5625 -1.421875 35.59375 -1.421875 
Q 29.59375 -1.421875 25.265625 0.953125 
Q 20.953125 3.328125 18.109375 8.203125 
z
M 48.6875 27.296875 
Q 48.6875 37.203125 44.609375 42.84375 
Q 40.53125 48.484375 33.40625 48.484375 
Q 26.265625 48.484375 22.1875 42.84375 
Q 18.109375 37.203125 18.109375 27.296875 
Q 18.109375 17.390625 22.1875 11.75 
Q 26.265625 6.109375 33.40625 6.109375 
Q 40.53125 6.109375 44.609375 11.75 
Q 48.6875 17.390625 48.6875 27.296875 
z
" id="DejaVuSans-112"/>
     </defs>
     <g transform="translate(129.307213 849.076562)scale(0.1 -0.1)">
      <use xlink:href="#DejaVuSans-102"/>
      <use x="35.205078" xlink:href="#DejaVuSans-95"/>
      <use x="85.205078" xlink:href="#DejaVuSans-104"/>
      <use x="148.583984" xlink:href="#DejaVuSans-111"/>
      <use x="209.765625" xlink:href="#DejaVuSans-115"/>
      <use x="261.865234" xlink:href="#DejaVuSans-112"/>
      <use x="325.341797" xlink:href="#DejaVuSans-105"/>
      <use x="353.125" xlink:href="#DejaVuSans-116"/>
      <use x="392.333984" xlink:href="#DejaVuSans-97"/>
      <use x="453.613281" xlink:href="#DejaVuSans-108"/>
     </g>
    </g>
   </g>
   <g id="matplotlib.axis_10">
    <g id="ytick_27">
     <g id="line2d_58">
      <g>
       <use style="stroke:#000000;stroke-width:0.8;" x="28.8" xlink:href="#mbd747d615c" y="820.8"/>
      </g>
     </g>
     <g id="text_63">
      <!-- 0 -->
      <g transform="translate(15.4375 824.599219)scale(0.1 -0.1)">
       <use xlink:href="#DejaVuSans-48"/>
      </g>
     </g>
    </g>
    <g id="ytick_28">
     <g id="line2d_59">
      <g>
       <use style="stroke:#000000;stroke-width:0.8;" x="28.8" xlink:href="#mbd747d615c" y="784.266042"/>
      </g>
     </g>
     <g id="text_64">
      <!-- 10 -->
      <g transform="translate(9.075 788.065261)scale(0.1 -0.1)">
       <use xlink:href="#DejaVuSans-49"/>
       <use x="63.623047" xlink:href="#DejaVuSans-48"/>
      </g>
     </g>
    </g>
    <g id="ytick_29">
     <g id="line2d_60">
      <g>
       <use style="stroke:#000000;stroke-width:0.8;" x="28.8" xlink:href="#mbd747d615c" y="747.732084"/>
      </g>
     </g>
     <g id="text_65">
      <!-- 20 -->
      <g transform="translate(9.075 751.531303)scale(0.1 -0.1)">
       <use xlink:href="#DejaVuSans-50"/>
       <use x="63.623047" xlink:href="#DejaVuSans-48"/>
      </g>
     </g>
    </g>
    <g id="ytick_30">
     <g id="line2d_61">
      <g>
       <use style="stroke:#000000;stroke-width:0.8;" x="28.8" xlink:href="#mbd747d615c" y="711.198126"/>
      </g>
     </g>
     <g id="text_66">
      <!-- 30 -->
      <g transform="translate(9.075 714.997345)scale(0.1 -0.1)">
       <use xlink:href="#DejaVuSans-51"/>
       <use x="63.623047" xlink:href="#DejaVuSans-48"/>
      </g>
     </g>
    </g>
    <g id="ytick_31">
     <g id="line2d_62">
      <g>
       <use style="stroke:#000000;stroke-width:0.8;" x="28.8" xlink:href="#mbd747d615c" y="674.664169"/>
      </g>
     </g>
     <g id="text_67">
      <!-- 40 -->
      <g transform="translate(9.075 678.463387)scale(0.1 -0.1)">
       <use xlink:href="#DejaVuSans-52"/>
       <use x="63.623047" xlink:href="#DejaVuSans-48"/>
      </g>
     </g>
    </g>
    <g id="ytick_32">
     <g id="line2d_63">
      <g>
       <use style="stroke:#000000;stroke-width:0.8;" x="28.8" xlink:href="#mbd747d615c" y="638.130211"/>
      </g>
     </g>
     <g id="text_68">
      <!-- 50 -->
      <g transform="translate(9.075 641.92943)scale(0.1 -0.1)">
       <use xlink:href="#DejaVuSans-53"/>
       <use x="63.623047" xlink:href="#DejaVuSans-48"/>
      </g>
     </g>
    </g>
    <g id="ytick_33">
     <g id="line2d_64">
      <g>
       <use style="stroke:#000000;stroke-width:0.8;" x="28.8" xlink:href="#mbd747d615c" y="601.596253"/>
      </g>
     </g>
     <g id="text_69">
      <!-- 60 -->
      <g transform="translate(9.075 605.395472)scale(0.1 -0.1)">
       <use xlink:href="#DejaVuSans-54"/>
       <use x="63.623047" xlink:href="#DejaVuSans-48"/>
      </g>
     </g>
    </g>
   </g>
   <g id="patch_173">
    <path d="M 28.8 820.8 
L 28.8 586.8 
" style="fill:none;stroke:#000000;stroke-linecap:square;stroke-linejoin:miter;stroke-width:0.8;"/>
   </g>
   <g id="patch_174">
    <path d="M 277.953488 820.8 
L 277.953488 586.8 
" style="fill:none;stroke:#000000;stroke-linecap:square;stroke-linejoin:miter;stroke-width:0.8;"/>
   </g>
   <g id="patch_175">
    <path d="M 28.8 820.8 
L 277.953488 820.8 
" style="fill:none;stroke:#000000;stroke-linecap:square;stroke-linejoin:miter;stroke-width:0.8;"/>
   </g>
   <g id="patch_176">
    <path d="M 28.8 586.8 
L 277.953488 586.8 
" style="fill:none;stroke:#000000;stroke-linecap:square;stroke-linejoin:miter;stroke-width:0.8;"/>
   </g>
  </g>
  <g id="axes_6">
   <g id="patch_177">
    <path d="M 315.326512 820.8 
L 564.48 820.8 
L 564.48 586.8 
L 315.326512 586.8 
z
" style="fill:#ffffff;"/>
   </g>
   <g id="patch_178">
    <path clip-path="url(#p559169498b)" d="M 326.65167 820.8 
L 334.201776 820.8 
L 334.201776 816.673016 
L 326.65167 816.673016 
z
" style="fill:#1f77b4;"/>
   </g>
   <g id="patch_179">
    <path clip-path="url(#p559169498b)" d="M 334.201776 820.8 
L 341.751882 820.8 
L 341.751882 820.8 
L 334.201776 820.8 
z
" style="fill:#1f77b4;"/>
   </g>
   <g id="patch_180">
    <path clip-path="url(#p559169498b)" d="M 341.751882 820.8 
L 349.301987 820.8 
L 349.301987 812.546032 
L 341.751882 812.546032 
z
" style="fill:#1f77b4;"/>
   </g>
   <g id="patch_181">
    <path clip-path="url(#p559169498b)" d="M 349.301987 820.8 
L 356.852093 820.8 
L 356.852093 808.419048 
L 349.301987 808.419048 
z
" style="fill:#1f77b4;"/>
   </g>
   <g id="patch_182">
    <path clip-path="url(#p559169498b)" d="M 356.852093 820.8 
L 364.402199 820.8 
L 364.402199 804.292063 
L 356.852093 804.292063 
z
" style="fill:#1f77b4;"/>
   </g>
   <g id="patch_183">
    <path clip-path="url(#p559169498b)" d="M 364.402199 820.8 
L 371.952304 820.8 
L 371.952304 800.165079 
L 364.402199 800.165079 
z
" style="fill:#1f77b4;"/>
   </g>
   <g id="patch_184">
    <path clip-path="url(#p559169498b)" d="M 371.952304 820.8 
L 379.50241 820.8 
L 379.50241 767.149206 
L 371.952304 767.149206 
z
" style="fill:#1f77b4;"/>
   </g>
   <g id="patch_185">
    <path clip-path="url(#p559169498b)" d="M 379.50241 820.8 
L 387.052516 820.8 
L 387.052516 758.895238 
L 379.50241 758.895238 
z
" style="fill:#1f77b4;"/>
   </g>
   <g id="patch_186">
    <path clip-path="url(#p559169498b)" d="M 387.052516 820.8 
L 394.602622 820.8 
L 394.602622 746.514286 
L 387.052516 746.514286 
z
" style="fill:#1f77b4;"/>
   </g>
   <g id="patch_187">
    <path clip-path="url(#p559169498b)" d="M 394.602622 820.8 
L 402.152727 820.8 
L 402.152727 721.752381 
L 394.602622 721.752381 
z
" style="fill:#1f77b4;"/>
   </g>
   <g id="patch_188">
    <path clip-path="url(#p559169498b)" d="M 402.152727 820.8 
L 409.702833 820.8 
L 409.702833 721.752381 
L 402.152727 721.752381 
z
" style="fill:#1f77b4;"/>
   </g>
   <g id="patch_189">
    <path clip-path="url(#p559169498b)" d="M 409.702833 820.8 
L 417.252939 820.8 
L 417.252939 663.974603 
L 409.702833 663.974603 
z
" style="fill:#1f77b4;"/>
   </g>
   <g id="patch_190">
    <path clip-path="url(#p559169498b)" d="M 417.252939 820.8 
L 424.803044 820.8 
L 424.803044 663.974603 
L 417.252939 663.974603 
z
" style="fill:#1f77b4;"/>
   </g>
   <g id="patch_191">
    <path clip-path="url(#p559169498b)" d="M 424.803044 820.8 
L 432.35315 820.8 
L 432.35315 597.942857 
L 424.803044 597.942857 
z
" style="fill:#1f77b4;"/>
   </g>
   <g id="patch_192">
    <path clip-path="url(#p559169498b)" d="M 432.35315 820.8 
L 439.903256 820.8 
L 439.903256 597.942857 
L 432.35315 597.942857 
z
" style="fill:#1f77b4;"/>
   </g>
   <g id="patch_193">
    <path clip-path="url(#p559169498b)" d="M 439.903256 820.8 
L 447.453362 820.8 
L 447.453362 655.720635 
L 439.903256 655.720635 
z
" style="fill:#1f77b4;"/>
   </g>
   <g id="patch_194">
    <path clip-path="url(#p559169498b)" d="M 447.453362 820.8 
L 455.003467 820.8 
L 455.003467 597.942857 
L 447.453362 597.942857 
z
" style="fill:#1f77b4;"/>
   </g>
   <g id="patch_195">
    <path clip-path="url(#p559169498b)" d="M 455.003467 820.8 
L 462.553573 820.8 
L 462.553573 647.466667 
L 455.003467 647.466667 
z
" style="fill:#1f77b4;"/>
   </g>
   <g id="patch_196">
    <path clip-path="url(#p559169498b)" d="M 462.553573 820.8 
L 470.103679 820.8 
L 470.103679 622.704762 
L 462.553573 622.704762 
z
" style="fill:#1f77b4;"/>
   </g>
   <g id="patch_197">
    <path clip-path="url(#p559169498b)" d="M 470.103679 820.8 
L 477.653784 820.8 
L 477.653784 721.752381 
L 470.103679 721.752381 
z
" style="fill:#1f77b4;"/>
   </g>
   <g id="patch_198">
    <path clip-path="url(#p559169498b)" d="M 477.653784 820.8 
L 485.20389 820.8 
L 485.20389 659.847619 
L 477.653784 659.847619 
z
" style="fill:#1f77b4;"/>
   </g>
   <g id="patch_199">
    <path clip-path="url(#p559169498b)" d="M 485.20389 820.8 
L 492.753996 820.8 
L 492.753996 730.006349 
L 485.20389 730.006349 
z
" style="fill:#1f77b4;"/>
   </g>
   <g id="patch_200">
    <path clip-path="url(#p559169498b)" d="M 492.753996 820.8 
L 500.304101 820.8 
L 500.304101 754.768254 
L 492.753996 754.768254 
z
" style="fill:#1f77b4;"/>
   </g>
   <g id="patch_201">
    <path clip-path="url(#p559169498b)" d="M 500.304101 820.8 
L 507.854207 820.8 
L 507.854207 783.657143 
L 500.304101 783.657143 
z
" style="fill:#1f77b4;"/>
   </g>
   <g id="patch_202">
    <path clip-path="url(#p559169498b)" d="M 507.854207 820.8 
L 515.404313 820.8 
L 515.404313 812.546032 
L 507.854207 812.546032 
z
" style="fill:#1f77b4;"/>
   </g>
   <g id="patch_203">
    <path clip-path="url(#p559169498b)" d="M 515.404313 820.8 
L 522.954419 820.8 
L 522.954419 796.038095 
L 515.404313 796.038095 
z
" style="fill:#1f77b4;"/>
   </g>
   <g id="patch_204">
    <path clip-path="url(#p559169498b)" d="M 522.954419 820.8 
L 530.504524 820.8 
L 530.504524 816.673016 
L 522.954419 816.673016 
z
" style="fill:#1f77b4;"/>
   </g>
   <g id="patch_205">
    <path clip-path="url(#p559169498b)" d="M 530.504524 820.8 
L 538.05463 820.8 
L 538.05463 808.419048 
L 530.504524 808.419048 
z
" style="fill:#1f77b4;"/>
   </g>
   <g id="patch_206">
    <path clip-path="url(#p559169498b)" d="M 538.05463 820.8 
L 545.604736 820.8 
L 545.604736 820.8 
L 538.05463 820.8 
z
" style="fill:#1f77b4;"/>
   </g>
   <g id="patch_207">
    <path clip-path="url(#p559169498b)" d="M 545.604736 820.8 
L 553.154841 820.8 
L 553.154841 816.673016 
L 545.604736 816.673016 
z
" style="fill:#1f77b4;"/>
   </g>
   <g id="matplotlib.axis_11">
    <g id="xtick_32">
     <g id="line2d_65">
      <g>
       <use style="stroke:#000000;stroke-width:0.8;" x="316.661272" xlink:href="#m14139c7143" y="820.8"/>
      </g>
     </g>
     <g id="text_70">
      <!-- 11 -->
      <g transform="translate(310.298772 835.398438)scale(0.1 -0.1)">
       <use xlink:href="#DejaVuSans-49"/>
       <use x="63.623047" xlink:href="#DejaVuSans-49"/>
      </g>
     </g>
    </g>
    <g id="xtick_33">
     <g id="line2d_66">
      <g>
       <use style="stroke:#000000;stroke-width:0.8;" x="362.337261" xlink:href="#m14139c7143" y="820.8"/>
      </g>
     </g>
     <g id="text_71">
      <!-- 12 -->
      <g transform="translate(355.974761 835.398438)scale(0.1 -0.1)">
       <use xlink:href="#DejaVuSans-49"/>
       <use x="63.623047" xlink:href="#DejaVuSans-50"/>
      </g>
     </g>
    </g>
    <g id="xtick_34">
     <g id="line2d_67">
      <g>
       <use style="stroke:#000000;stroke-width:0.8;" x="408.013251" xlink:href="#m14139c7143" y="820.8"/>
      </g>
     </g>
     <g id="text_72">
      <!-- 13 -->
      <g transform="translate(401.650751 835.398438)scale(0.1 -0.1)">
       <use xlink:href="#DejaVuSans-49"/>
       <use x="63.623047" xlink:href="#DejaVuSans-51"/>
      </g>
     </g>
    </g>
    <g id="xtick_35">
     <g id="line2d_68">
      <g>
       <use style="stroke:#000000;stroke-width:0.8;" x="453.689241" xlink:href="#m14139c7143" y="820.8"/>
      </g>
     </g>
     <g id="text_73">
      <!-- 14 -->
      <g transform="translate(447.326741 835.398438)scale(0.1 -0.1)">
       <use xlink:href="#DejaVuSans-49"/>
       <use x="63.623047" xlink:href="#DejaVuSans-52"/>
      </g>
     </g>
    </g>
    <g id="xtick_36">
     <g id="line2d_69">
      <g>
       <use style="stroke:#000000;stroke-width:0.8;" x="499.365231" xlink:href="#m14139c7143" y="820.8"/>
      </g>
     </g>
     <g id="text_74">
      <!-- 15 -->
      <g transform="translate(493.002731 835.398438)scale(0.1 -0.1)">
       <use xlink:href="#DejaVuSans-49"/>
       <use x="63.623047" xlink:href="#DejaVuSans-53"/>
      </g>
     </g>
    </g>
    <g id="xtick_37">
     <g id="line2d_70">
      <g>
       <use style="stroke:#000000;stroke-width:0.8;" x="545.041221" xlink:href="#m14139c7143" y="820.8"/>
      </g>
     </g>
     <g id="text_75">
      <!-- 16 -->
      <g transform="translate(538.678721 835.398438)scale(0.1 -0.1)">
       <use xlink:href="#DejaVuSans-49"/>
       <use x="63.623047" xlink:href="#DejaVuSans-54"/>
      </g>
     </g>
    </g>
    <g id="text_76">
     <!-- m_hospital -->
     <g transform="translate(412.723568 849.076562)scale(0.1 -0.1)">
      <use xlink:href="#DejaVuSans-109"/>
      <use x="97.412109" xlink:href="#DejaVuSans-95"/>
      <use x="147.412109" xlink:href="#DejaVuSans-104"/>
      <use x="210.791016" xlink:href="#DejaVuSans-111"/>
      <use x="271.972656" xlink:href="#DejaVuSans-115"/>
      <use x="324.072266" xlink:href="#DejaVuSans-112"/>
      <use x="387.548828" xlink:href="#DejaVuSans-105"/>
      <use x="415.332031" xlink:href="#DejaVuSans-116"/>
      <use x="454.541016" xlink:href="#DejaVuSans-97"/>
      <use x="515.820312" xlink:href="#DejaVuSans-108"/>
     </g>
    </g>
   </g>
   <g id="matplotlib.axis_12">
    <g id="ytick_34">
     <g id="line2d_71">
      <g>
       <use style="stroke:#000000;stroke-width:0.8;" x="315.326512" xlink:href="#mbd747d615c" y="820.8"/>
      </g>
     </g>
     <g id="text_77">
      <!-- 0 -->
      <g transform="translate(301.964012 824.599219)scale(0.1 -0.1)">
       <use xlink:href="#DejaVuSans-48"/>
      </g>
     </g>
    </g>
    <g id="ytick_35">
     <g id="line2d_72">
      <g>
       <use style="stroke:#000000;stroke-width:0.8;" x="315.326512" xlink:href="#mbd747d615c" y="779.530159"/>
      </g>
     </g>
     <g id="text_78">
      <!-- 10 -->
      <g transform="translate(295.601512 783.329377)scale(0.1 -0.1)">
       <use xlink:href="#DejaVuSans-49"/>
       <use x="63.623047" xlink:href="#DejaVuSans-48"/>
      </g>
     </g>
    </g>
    <g id="ytick_36">
     <g id="line2d_73">
      <g>
       <use style="stroke:#000000;stroke-width:0.8;" x="315.326512" xlink:href="#mbd747d615c" y="738.260317"/>
      </g>
     </g>
     <g id="text_79">
      <!-- 20 -->
      <g transform="translate(295.601512 742.059536)scale(0.1 -0.1)">
       <use xlink:href="#DejaVuSans-50"/>
       <use x="63.623047" xlink:href="#DejaVuSans-48"/>
      </g>
     </g>
    </g>
    <g id="ytick_37">
     <g id="line2d_74">
      <g>
       <use style="stroke:#000000;stroke-width:0.8;" x="315.326512" xlink:href="#mbd747d615c" y="696.990476"/>
      </g>
     </g>
     <g id="text_80">
      <!-- 30 -->
      <g transform="translate(295.601512 700.789695)scale(0.1 -0.1)">
       <use xlink:href="#DejaVuSans-51"/>
       <use x="63.623047" xlink:href="#DejaVuSans-48"/>
      </g>
     </g>
    </g>
    <g id="ytick_38">
     <g id="line2d_75">
      <g>
       <use style="stroke:#000000;stroke-width:0.8;" x="315.326512" xlink:href="#mbd747d615c" y="655.720635"/>
      </g>
     </g>
     <g id="text_81">
      <!-- 40 -->
      <g transform="translate(295.601512 659.519854)scale(0.1 -0.1)">
       <use xlink:href="#DejaVuSans-52"/>
       <use x="63.623047" xlink:href="#DejaVuSans-48"/>
      </g>
     </g>
    </g>
    <g id="ytick_39">
     <g id="line2d_76">
      <g>
       <use style="stroke:#000000;stroke-width:0.8;" x="315.326512" xlink:href="#mbd747d615c" y="614.450794"/>
      </g>
     </g>
     <g id="text_82">
      <!-- 50 -->
      <g transform="translate(295.601512 618.250012)scale(0.1 -0.1)">
       <use xlink:href="#DejaVuSans-53"/>
       <use x="63.623047" xlink:href="#DejaVuSans-48"/>
      </g>
     </g>
    </g>
   </g>
   <g id="patch_208">
    <path d="M 315.326512 820.8 
L 315.326512 586.8 
" style="fill:none;stroke:#000000;stroke-linecap:square;stroke-linejoin:miter;stroke-width:0.8;"/>
   </g>
   <g id="patch_209">
    <path d="M 564.48 820.8 
L 564.48 586.8 
" style="fill:none;stroke:#000000;stroke-linecap:square;stroke-linejoin:miter;stroke-width:0.8;"/>
   </g>
   <g id="patch_210">
    <path d="M 315.326512 820.8 
L 564.48 820.8 
" style="fill:none;stroke:#000000;stroke-linecap:square;stroke-linejoin:miter;stroke-width:0.8;"/>
   </g>
   <g id="patch_211">
    <path d="M 315.326512 586.8 
L 564.48 586.8 
" style="fill:none;stroke:#000000;stroke-linecap:square;stroke-linejoin:miter;stroke-width:0.8;"/>
   </g>
  </g>
 </g>
 <defs>
  <clipPath id="p4177a66425">
   <rect height="234" width="249.153488" x="28.8" y="34.56"/>
  </clipPath>
  <clipPath id="p1e629cc2d9">
   <rect height="234" width="249.153488" x="315.326512" y="34.56"/>
  </clipPath>
  <clipPath id="p15280e0815">
   <rect height="234" width="249.153488" x="28.8" y="310.68"/>
  </clipPath>
  <clipPath id="pcb69f6148b">
   <rect height="234" width="249.153488" x="315.326512" y="310.68"/>
  </clipPath>
  <clipPath id="p712b64cc53">
   <rect height="234" width="249.153488" x="28.8" y="586.8"/>
  </clipPath>
  <clipPath id="p559169498b">
   <rect height="234" width="249.153488" x="315.326512" y="586.8"/>
  </clipPath>
 </defs>
</svg>
